<?xml version="1.0" encoding="utf-8"?>
<!-- Generator: Adobe Illustrator 19.0.0, SVG Export Plug-In . SVG Version: 6.00 Build 0)  -->
<svg version="1.1" id="Layer_1" xmlns="http://www.w3.org/2000/svg" xmlns:xlink="http://www.w3.org/1999/xlink" x="0px" y="0px"
	 width="63px" height="47px" viewBox="-274 373 63 47" style="enable-background:new -274 373 63 47;" xml:space="preserve">
<path style="fill:#D8D8D8;" d="M-211.3,403.7c-0.3,1.2-2.1,2.8-3.7,4.5c-2.1,2.3-4.2,4.9-7.3,6.9c0,0.8,0.6,1.8,0.8,2.6
	c-2,0.3-2.5,2.7-3.4,2.3c-1.2,0.1-1.6-1.2-2.3-1.8c-3-2.6-6-4.4-8.5-7.3c-2.5-2.9-4.5-6.3-7.4-10c-1.6-2-6.4-3.2-8.9-3.9
	c-3.5-0.9-7.1-1.4-10.1-3c-0.8-0.4-1.6-1.2-2.5-1.7c-2.2-1.3-5.3-2.9-7.1-5.6c-0.7-1-1.9-3.1-2.2-4.8c-0.2-1.3,0.5-3.1,0.8-4.4
	c0.3-1.4,0.7-2.7,0.9-4.2c7.2,1.4,13.9,4.2,20.7,6.9c4.2-2.8,8.2-4.1,12.5-6.2c3.9-0.6,7.2-1.6,10.7,0.3c2.7,1.5,5.8,5.4,8.2,8.3
	c0.9-0.4,1.7-0.9,2.6-1.3c1.2,1.7,2.5,2.9,3.4,5.3c-0.5,0.9-1.5,1.1-1.8,2.3c2.5,3.2,4,6,4.6,9.3
	C-211,400.3-210.7,401.4-211.3,403.7z M-217.3,409.4c-0.4-1-2.3-0.9-3.6-1.2c-1.5-0.3-3-0.9-4-0.4c0.2,0,0.3,0.1,0.4,0.3
	C-222,408.3-220,409.9-217.3,409.4z M-222.9,405.2c-1-0.9-2.4-0.3-3.4-1c-1.3,1.1-2.9,2.1-3.3,3.5c0.7-0.3,1.9,0.6,2.3-0.3
	c-0.3,0.3-1.1-0.4-0.6-0.8c1.9,0,4.4,1,6,0.2c-1.7-0.5-3.6-0.4-5.1-1.5C-225.5,404.7-224.5,405.8-222.9,405.2z M-222.3,414
	c1-1.2,2.8-2.2,3.7-3.4c-2.7-1.5-5.7-2.2-8.9-2.3c1.8,2,5.6,1.2,6.9,3c-2,0-4.1-1.3-6-1.8c-1.2-0.3-3.1-0.7-3.9-0.2
	c2.6,1.6,7.1,0.6,8.7,3.4c-0.8,0.1-2.8-0.2-2.2-1.1c-2.2,0-2.9-1-5.9-1.1c1.9,1.3,4.2,1.3,6.2,2.3C-223.1,412.9-223,414.4-222.3,414
	z M-223.6,413.6c-2.5-0.1-5.3-3-7.4-1.9c1.2,0.3,2.3,1.4,3.7,1.9c1.2,0.5,2.9,1.1,3.9,0.8C-223.6,414.1-223.4,413.9-223.6,413.6z
	 M-225.2,419c0.6-1.1,3.2-1.5,1.9-3.1c-1.6,0.4-1.9,1.9-2.8,1.9C-225.9,418.5-225.4,418.2-225.2,419z M-227,416.9
	c-0.7-0.8-2.2-2.1-2.7-1.6C-228.8,415.8-228.1,416.7-227,416.9z M-224.7,415.7c-0.1-0.3,0.3-0.4,0.2-0.6c-1.1,0-2.2-0.9-3.3-1.3
	c-1.1-0.4-2.9-0.9-3.4-0.4C-229.1,414.2-227.3,416.4-224.7,415.7z M-233,412.6c0.5-0.3,0.8-0.4,1.2-0.3c-0.2-0.9-0.8-0.7-1.1-1.6
	c0.9-0.2,1.4-0.6,1.5-1.3c-1.2-0.1-2.1,1.1-2.9,1.7C-233.9,411.8-233.3,411.8-233,412.6z M-243.9,392.3c1.9-1.3,3.9-2.5,5.3-4
	c-3.7-0.5-6.3-3.9-10.3-3.5c0.9,1.2,2.5,1.8,3.9,2.4c1.3,0.6,3,0.8,3.7,1.9c-2.7-0.1-4.6-2.4-7.3-2.3c1.5,2,4.7,1.7,5.7,3.3
	c-1.3-0.2-2.5-0.9-3.8-1.1c1.1,1.3,2.7,1.2,4,2C-243.2,391.5-244.5,391.6-243.9,392.3z M-247.6,382.3c-0.5-0.3-1.2-0.8-2.4-0.4
	C-249.2,382.8-245.6,383.4-247.6,382.3z M-250,385.6c0.1,0.2,0.2,0.4,0.3,0.6c0.1-0.1,0.3-0.1,0.4-0.2c-0.1-0.2-0.2-0.4-0.3-0.6
	C-249.7,385.5-249.8,385.5-250,385.6z M-247.9,384.3c-0.2-0.7-0.7-0.7-1.2-0.8C-249.3,384.2-248.4,384.2-247.9,384.3z M-248.2,383.1
	c0.1,0.3,0.3,0.4,0.5,0.5c2.9,1.2,5.6,3,8.6,3.8c0.4,0.5,0.8,1.3,1.6,0.5c-0.3-1-1.4-0.9-2.3-1.3
	C-242.5,385.4-245.3,383.4-248.2,383.1z M-249.1,387.9c0.1,0.1,0.1,0.3,0.2,0.4c0.1-0.1,0.3-0.1,0.4-0.2c-0.1-0.1-0.1-0.3-0.2-0.4
	C-248.8,387.7-248.9,387.8-249.1,387.9z M-246.9,391.1c0.2,0.4,0.3,1.2,0.9,0.6C-246.3,391.2-246.5,391-246.9,391.1z M-245.4,390.9
	c0,0.8,1.2,0.9,1.2,0.2C-244.7,391.2-245,390.7-245.4,390.9z M-265.1,376.2c-1.5-0.4-3-1.2-4.5-1c-0.7,0.7-0.3,1.7-0.7,2.5
	c-0.2-0.5-0.5-0.6-1-0.3c-0.3,2.8-1,6,0.6,8.8c0.9,1.4,2.9,2.9,4.6,3.9c1.6,0.9,3.6,1.6,5.2,2.3c3.9,1.6,7.8,2.9,10.8,3.8
	c1.7-1.1,3,0.8,4.7,0.9c-2.6-5-6.2-10.7-6.3-15.9C-256.1,379.4-260.8,377.5-265.1,376.2z M-250.2,380.3c0.6,1,1.7,0.4,2.7,1.1
	c0,0-0.2,0.4,0,0.5c3.4,2.1,7.4,3.7,11.2,5.2c0.4-0.1,2-1.2,2.9-1.2c-4.3-1.9-8.3-4.4-13-5.1c2.6,1.6,5.8,2.8,8.4,3.9
	c0.9,0.4,1.9,0.8,2.4,1.5c-4.2-0.9-7.8-3.6-11.8-4.9C-247.5,380.5-249.1,379.9-250.2,380.3z M-248.4,379.5c1.1,0.8,3,1.6,4,1
	C-245.8,380.2-246.8,379-248.4,379.5z M-243.5,380.2c-0.1-0.1,0.1,0.5,0.3,0.6c2.9,1.9,7.1,2.5,10.2,4.8c0.5-0.4,1.8-0.6,1.8-1.2
	c-1.1-0.1-1.7,0.4-2.9,0.1C-236.9,382.4-240.3,381.6-243.5,380.2c0.6-0.4,0.9,0.3,1.4,0.1c-1.5-1.1-3.2-1.6-4.9-1.8
	C-246.2,379.6-244.9,379.5-243.5,380.2z M-232.5,383.9c-2.8-1.5-5.6-3-8.6-3.8C-238.4,381.7-235.6,383.4-232.5,383.9z M-242.7,376.4
	c-0.5,0.3-1,0.5-1.5,0.8c0.3,0.7,1,0.3,1.6,0C-242.8,376.8-242.8,376.6-242.7,376.4z M-240.5,375.5c-0.7,0.5-1,0.1-1.6,0.5
	C-241.8,376.6-240.2,376.2-240.5,375.5z M-242.3,377.8c0.5,0.8,1.4,0.3,1.8,1.5c-1.7-0.3-3.1-1.7-5.1-1.5c1.8,1.4,4,1.7,6,2.4
	c0.3,0.3,0.2-0.2,0.3-0.4c3.3,1.4,7.2,5.2,11.2,4.1c-3.1-2.4-6.5-3.7-10-5c2.8,1.9,5.9,2.9,8.7,4.5c-1.2,0.3-1.9-0.7-2.7-1.1
	c-2.6-1.4-6.1-2.3-8.3-3.7c0.1,0,0.5-0.1,0.5,0C-240.1,377.8-241.9,377.5-242.3,377.8z M-238.6,374.8c-0.5,0.5-1.5-0.1-1.5,0.8
	c0.8,0,1.3,0.6,2.3,0.2C-238.1,375.3-238.5,375.5-238.6,374.8z M-230.3,381.2c0.7,0.3,2.2,1.4,2.2,0.5c-3.2-1.3-6.1-3.7-9.6-4.1
	C-235.6,378.9-232.6,380.2-230.3,381.2z M-228.9,379.2c-2.4-1.8-4.9-3.4-7.6-4c2.1,2.4,5.1,2.2,7.3,4.4
	C-229.5,379.2-229.3,379.1-228.9,379.2z M-235,375.2c1.8,1.1,3.7,2.3,5.7,2.8C-231,376.8-233.5,375.1-235,375.2z M-231.5,376.1
	c0.8,0.1,1.3,1.2,2.2,1.1C-229.9,376.8-231.2,375.6-231.5,376.1z M-230.2,374.4c0.8,0.7,1.6,1.4,2.5,1.7
	C-228.4,375.1-229.3,374.8-230.2,374.4z M-228.3,378.8c0.1,0.8,1.5,1.3,2.4,1.5C-226.6,379.6-227.4,379.1-228.3,378.8z
	 M-228.9,380.2c-2.7-1.4-5.9-4.2-8.7-3.4c3.9,1.8,8,3.3,11.6,6c0.3-0.9-0.5-0.3-0.8-1c0.6,0,0.4-0.2,1.2-0.3
	C-226.4,380.5-228.6,379.1-228.9,380.2z M-223.9,381.7c0.2,0.7,0.7,0.9,1.3,0.4C-222.9,381.6-223.3,381.5-223.9,381.7z
	 M-223.1,382.7c0.2,0.5,0.5,0.6,1,0.3C-222.3,382.4-222.8,382.8-223.1,382.7z M-219.4,387c-0.2-0.4-0.4-0.5-0.8-0.4
	c-0.2,1.5-0.1,4-1.5,4.5c-0.2-1.6,1.2-2.7,0.4-4.5c-0.4-0.5-1.1,0.1-1.5-0.3c0.4-0.9,1.5-0.1,1.9-1c-0.4-1.4-1.3-1.1-2-1.4
	c-0.8,0.1,0.2,0.8-0.6,0.9c-3.6-1.2-8.2,0.9-12,3c-3.6,2-7,4.7-9.7,7c0.5,0.2,0.9-1,1.4,0.1c-0.3,0.8-0.9,0.5-1.3,1.2
	c3,5.3,6.4,9.6,9.7,14c1.9-0.6,3.6-2,5.1-3.3c4.2-3.8,8.1-8.5,10-12.8C-219.3,391.8-219,389.4-219.4,387z M-222.6,399.4
	c0.8,1.1,2.2,0.2,3.3,0.2c1.4,0,2.9,0.9,3.8,0C-218.1,399-219.9,399.3-222.6,399.4z M-215.9,398.7c-0.5,0.2-0.7-0.4-1.2-0.2
	C-217,399.2-215.2,398.9-215.9,398.7z M-218.1,396.1c-1,0.4-1.4-0.9-2.5-0.1C-220.1,396.7-218.5,396.8-218.1,396.1z M-218.5,387.7
	c0.1,0.3,0.3,0.6,0.4,0.9C-217.2,388.3-217.8,387.1-218.5,387.7z M-218.7,392.1c0.1,0.6,1.2,0.5,1.1,0
	C-218.1,392.3-218.2,391.6-218.7,392.1z M-216.1,387c-0.2-0.3-0.3-0.8-0.8-0.4C-216.7,387-216.5,387.1-216.1,387z M-216.9,390.9
	c0.4-0.2,0.6,0.5,1.1,0C-215.9,390.2-217,390.3-216.9,390.9z M-217.3,391.6c0.7,0.7,1.5,1.2,2.6,0.9
	C-215.2,391.1-216.4,391.7-217.3,391.6z M-218.3,392.9c0,0.5,1,0.4,0.4,0.9c-0.4-0.1-0.8-0.4-1.4-0.1c-0.3,0.4-0.9,0.8-0.3,1.5
	c1,0,0.5-0.4,1.2-0.9c0.6,0.4,0.9,0,1.4-0.4c1.1,0.4,2.1,0.9,3.3,0.8C-214,392.5-216.8,393.5-218.3,392.9z M-216.6,395.3
	c1.2,0.2,2.2,0.9,3.6,0.7C-214,395.5-215.8,394.5-216.6,395.3z M-217.5,396.1c0.6,0.8,1.6,0.7,2.5,0.6c0.5,0.2,2.4,1.1,2.2,0
	C-214.7,397.2-215.7,395.4-217.5,396.1z M-212.7,397.7c-2.2,0.3-3.9-1-6-0.8c1.3,1.8,3.6,0.8,5.2,1.7c-1.1,0.4,1.1,0.9-0.4,1.3
	c0,0.5,1,0.4,0.4,0.9c-2,0.6-4.2-1-5.7-0.1c0.3-0.1,0.5,0.1,0.6,0.2c-1.6-0.1-3.1-0.3-4.6-0.6c-0.3,0.8-1.5,1.4-1.2,2.5
	c0.5-0.1,0.9,0.2,1.5-0.2c0-0.5-1-0.4-0.4-0.9c3.9,0.1,7-0.8,10.3,0.8c-2.8,0.6-5-0.9-7.8-0.4c1.1,0.7,2.7,1.4,4.1,1.7
	c0.9,0.2,2.4-0.4,2.6,0.9c-3.2-0.2-6.1-1.6-9.4-1.5c2.1,1.9,6.4,0.7,7.8,2.6c-2.7-0.1-4.9-1.4-7.6-1.3c1.8,1.5,4.3,1.2,6.2,2.3
	c-2.5,0.8-4.2-1.1-6.6-0.8c0.7,1,2.2,1.1,3.4,1.5c1,0.3,2.6,1.3,3.7,0.9c0.7-0.3,2.8-2.4,3.7-4
	C-211.8,402.3-211.9,399.9-212.7,397.7z M-225.8,397.8c0.2-1.6,1.1-3,2.8-4.1C-223.4,395.3-223.9,396.7-225.8,397.8z M-225.3,385.9
	c0.1,0.2,0.2,0.4,0.3,0.6c-1.5,0.3-3.2,0.9-4.7,1.3C-229.2,386.3-226.5,386.1-225.3,385.9z M-228,399.9c0.1,0.2,0.2,0.4,0.3,0.6
	c-1.5,0.8-1.5,2.8-3.3,3C-230.9,402.1-229.6,401-228,399.9z M-235,390.8c-0.5-1.5,2.1-2.5,3.5-2.8c0.1,0.2,0.2,0.4,0.3,0.6
	C-233,389.1-233.8,390.7-235,390.8z M-232.2,405c-0.2,1.5-2,2.4-3.3,3.6c-0.5-1.1-1.5-1.8-2.4-3.1c1.3-0.7,1.7,1.2,2.6,1.9
	C-234.3,406.5-233.4,405.1-232.2,405z M-242.3,394.4c-0.2-1.4,2.3-2.8,3.9-3c0.2,0.3,0,0.5,0.1,0.8
	C-240.1,392.1-240.8,394.4-242.3,394.4z M-239.3,403.1c-1.1-0.3-2.5-2.1-2.6-3.6C-240.7,399.6-239.5,401.9-239.3,403.1z
	 M-253.5,393.6c1.3-0.1,2.2,0.9,3.2,1.6C-251.5,395.2-253.3,394.8-253.5,393.6z M-257.2,392.2c1.2-0.3,2,0.7,3.1,0.9
	C-254.2,394.2-257.1,392.8-257.2,392.2z M-262.5,390.2c1.3,0.5,2.8,0.3,3.8,1.6c-2.5-0.1-4.5-1.6-6.6-2.9
	C-264.7,388.3-262.5,389.5-262.5,390.2z M-268.9,386.4c1.3-0.5,2,1,2.9,1.5C-267.3,388.4-268.1,387.5-268.9,386.4z M-269.6,383.5
	c-0.2,1,1,1.6,0.9,2.3C-269.8,386.2-271.5,383.3-269.6,383.5z M-270.4,378.6c0.3,1.4,0.3,2.6-0.6,3.6
	C-271.3,380.8-271.5,379.5-270.4,378.6z"/>
</svg>
