<?xml version="1.0" encoding="utf-8"?>
<!-- Generator: Adobe Illustrator 19.0.0, SVG Export Plug-In . SVG Version: 6.00 Build 0)  -->
<svg version="1.1" id="Layer_1" xmlns="http://www.w3.org/2000/svg" xmlns:xlink="http://www.w3.org/1999/xlink" x="0px" y="0px"
	 width="30px" height="31.1px" viewBox="-290 381.9 30 31.1" style="enable-background:new -290 381.9 30 31.1;"
	 xml:space="preserve">
<path style="fill:#88C13C;" d="M-260.1,389.3c-0.6,1.1-1.7,3.2-3.4,4.2c-0.5,0.4-1.2,0.5-1.9,0.5h-3.3c-0.3,0.4-0.6,0.8-0.8,1.1
	c1.2,0.8,2.1,1.8,2.8,3.2c2.3,4.5,0.7,10.1-3.7,13l-0.2,0.1c-1.6,1-3.4,1.6-5.2,1.6h-4.2c-0.9,0-1.7-0.1-2.5-0.3
	c-3-0.9-5.3-3.3-6.5-7.1c-0.9-2.8-1-5.3-1-5.4c-0.4-3.7,1.1-6.4,2.1-7.7c0.2-0.3,0.6-0.5,0.9-0.5c0.4,0,0.7,0.1,1,0.4l3.6,3.6
	c0.6,0.6,1.3,1.1,2,1.3c0.8,0.3,1.4,0.3,1.9,0c0.6-0.4,0.7-1.3,0.7-1.7c-0.1,0-0.1-0.1-0.2-0.1c-1-0.8-3.5-2.8-3.5-6.2
	c0-4,3.3-7.3,7.3-7.3c3.6,0,6.6,2.6,7.2,6.1h5.9c0.3,0,0.6,0.2,0.8,0.4C-259.9,388.7-259.9,389-260.1,389.3z M-268,388.7l0-0.1
	c-0.3-3-2.9-5.4-6.1-5.4c-3.4,0-6.1,2.7-6.1,6.1c0,2.9,2.1,4.6,3,5.3c0.2,0.1,0.3,0.2,0.4,0.3c0.2,0.2,0.3,0.4,0.3,0.6
	c0,0.6-0.1,2.1-1.2,2.8c-0.8,0.5-1.7,0.6-3,0.2c-0.9-0.3-1.7-0.8-2.5-1.6l-3.6-3.6l-0.6-0.4l0.5,0.4c-0.8,1.1-2.2,3.5-1.8,6.9
	c0,0.1,0.3,9.5,6.7,11.4c0.6,0.2,1.3,0.3,2.1,0.3h4.2c1.6,0,3.2-0.5,4.6-1.4l0.1-0.1c3.9-2.6,5.3-7.5,3.3-11.5
	c-0.6-1.2-1.5-2.2-2.6-2.9c-0.2-0.1-0.4-0.4-0.4-0.6c0-0.2,0-0.5,0.2-0.7c0.5-0.6,1-1.2,1.4-1.9c0,0,0.1-0.1,0.1-0.1
	c0.3-0.5,0.5-0.9,0.7-1.4c0,0,0,0,0,0c0.2-0.5,0.3-0.9,0.4-1.3c0,0,0-0.1,0-0.1c0-0.2,0.1-0.4,0.1-0.6
	C-267.9,389-267.9,388.9-268,388.7z M-266.7,389.2c0,0.1,0,0.3,0,0.4c0,0,0,0.1,0,0.1c0,0.1,0,0.2,0,0.3c0,0,0,0,0,0.1
	c0,0.2-0.1,0.4-0.2,0.6c0,0,0,0.1,0,0.1c0,0.1,0,0.1-0.1,0.2c0,0.1-0.1,0.2-0.1,0.3c0,0,0,0.1-0.1,0.1c0,0.1-0.1,0.2-0.1,0.3
	c0,0,0,0.1-0.1,0.1c-0.1,0.1-0.1,0.3-0.2,0.4c0,0,0,0,0,0.1c-0.1,0.2-0.2,0.3-0.3,0.5h2.5c0.5,0,0.9-0.1,1.3-0.3
	c1.2-0.8,2.2-2.4,2.7-3.3H-266.7z M-272.8,391.1c-1.7,0-3.1-1.4-3.1-3c0-1.7,1.4-3,3.1-3c1.7,0,3.1,1.4,3.1,3
	C-269.8,389.7-271.1,391.1-272.8,391.1z M-272.8,386.2c-1,0-1.8,0.8-1.8,1.8s0.8,1.8,1.8,1.8c0.2,0,0.5,0,0.7-0.1
	c-0.4-0.2-0.7-0.6-0.7-1.1c0-0.7,0.5-1.2,1.2-1.2c0.2,0,0.4,0,0.5,0.1C-271.3,386.8-272,386.2-272.8,386.2z M-274.1,399.9
	c1.6,0.9,1.9,3.2,1.9,3.3l0,0.1c0,2-0.5,3.4-1.6,4.4c-1.1,1-2.4,1.1-3,1.1c-0.1,0-0.2,0-0.3,0c-4,0-6-4.2-6.5-5.5
	c-0.1-0.3-0.1-0.6,0-0.8c0.1-0.3,0.4-0.4,0.7-0.5l0.2-0.1c1.9-0.4,3.6-1,5-1.7C-276.3,399.5-275.1,399.4-274.1,399.9z M-277.1,401.3
	c-1.5,0.8-3.2,1.4-5.2,1.8c0.6,1.3,2.2,4.4,5.3,4.4l0.1,0c0,0,1.4,0.1,2.4-0.8c0.8-0.7,1.2-1.9,1.2-3.4c0-0.2-0.3-1.8-1.3-2.3
	C-275.3,400.7-276.1,400.8-277.1,401.3z"/>
</svg>
