<?xml version="1.0" encoding="utf-8"?>
<!-- Generator: Adobe Illustrator 19.0.0, SVG Export Plug-In . SVG Version: 6.00 Build 0)  -->
<svg version="1.1" id="Layer_1" xmlns="http://www.w3.org/2000/svg" xmlns:xlink="http://www.w3.org/1999/xlink" x="0px" y="0px"
	 width="39.2px" height="39.4px" viewBox="-285 377.6 39.2 39.4" style="enable-background:new -285 377.6 39.2 39.4;"
	 xml:space="preserve">
<path style="fill:#30488C;" d="M-265.4,377.6c-10.8,0-19.6,8.8-19.6,19.7c0,10.9,8.8,19.7,19.6,19.7c10.8,0,19.6-8.8,19.6-19.7
	C-245.8,386.4-254.6,377.6-265.4,377.6L-265.4,377.6z M-260.6,398h-3.2v11.4h-4.7V398h-2.2v-4h2.2v-2.6c0-1.9,0.9-4.8,4.8-4.8l3.5,0
	v3.9h-2.5c-0.4,0-1,0.2-1,1.1v2.4h3.6L-260.6,398z"/>
</svg>
