<?xml version="1.0" encoding="utf-8"?>
<!-- Generator: Adobe Illustrator 19.0.0, SVG Export Plug-In . SVG Version: 6.00 Build 0)  -->
<svg version="1.1" id="Layer_1" xmlns="http://www.w3.org/2000/svg" xmlns:xlink="http://www.w3.org/1999/xlink" x="0px" y="0px"
	 width="94px" height="35px" viewBox="-258 379 94 35" style="enable-background:new -258 379 94 35;" xml:space="preserve">
<path style="fill:#FFFFFF;" d="M-169.6,408.5c-2.3,0-5.6-1.5-5.6-5.5c0-3.5,2.6-6.8,3.8-8.1v-6.4l-41.1,5.3c-0.1,0-0.2,0-0.2,0
	c-0.1,0-0.2,0-0.2,0l-43.2-5.5c-0.9-0.1-1.6-0.9-1.6-1.8c0-0.9,0.7-1.7,1.6-1.8l43.2-5.5c0.2,0,0.3,0,0.5,0l43.2,5.5
	c0.1,0,0.2,0.1,0.3,0.1c0.1,0,0.2,0,0.3,0.1c0.1,0.1,0.2,0.1,0.3,0.2c0.1,0.1,0.2,0.1,0.2,0.2c0.1,0.1,0.2,0.2,0.2,0.4
	c0,0.1,0.1,0.1,0.1,0.2c0.1,0.2,0.1,0.4,0.1,0.7v8.5c1.2,1.3,3.8,4.5,3.8,8.1C-164,407-167.4,408.5-169.6,408.5z M-212.9,382.7
	l-28.7,3.7l28.7,3.7l28.7-3.7L-212.9,382.7z M-169.6,398.5c-0.9,1.3-1.9,3-1.9,4.5c0,1.5,1,1.8,1.9,1.8c0.9,0,1.9-0.4,1.9-1.8
	C-167.8,401.4-168.7,399.7-169.6,398.5z M-241.1,391.9c1,0,1.9,0.8,1.9,1.8v11.7c3.1,1.3,12.9,4.9,26.3,4.9
	c13.4,0,23.2-3.6,26.3-4.9v-11.7c0-1,0.8-1.8,1.9-1.8c1,0,1.9,0.8,1.9,1.8v12.9c0,0.7-0.4,1.3-1,1.6c-0.5,0.2-11.9,5.7-29,5.7
	c-17.2,0-28.6-5.5-29-5.7c-0.6-0.3-1-1-1-1.6v-12.9C-243,392.7-242.1,391.9-241.1,391.9z"/>
</svg>
