<?xml version="1.0" encoding="utf-8"?>
<!-- Generator: Adobe Illustrator 19.0.0, SVG Export Plug-In . SVG Version: 6.00 Build 0)  -->
<svg version="1.1" id="Layer_1" xmlns="http://www.w3.org/2000/svg" xmlns:xlink="http://www.w3.org/1999/xlink" x="0px" y="0px"
	 width="39.1px" height="39.4px" viewBox="-285 377.6 39.1 39.4" style="enable-background:new -285 377.6 39.1 39.4;"
	 xml:space="preserve">
<path style="fill:#F1096B;" d="M-265.5,417c-10.8,0-19.6-8.8-19.6-19.7c0-10.9,8.8-19.7,19.6-19.7c10.8,0,19.6,8.8,19.6,19.7
	C-245.9,408.2-254.7,417-265.5,417z M-254.3,395v-4.6c0-2.4-1.9-4.3-4.3-4.3h-13.6c-2.4,0-4.3,1.9-4.3,4.3v13.8
	c0,2.4,1.9,4.3,4.3,4.3h13.6c2.4,0,4.3-1.9,4.3-4.3V395z M-258.6,406.3h-13.6c-1.2,0-2.1-1-2.1-2.1V395h3.3
	c-0.3,0.7-0.4,1.5-0.4,2.3c0,3.4,2.7,6.1,6.1,6.1c3.4,0,6.1-2.8,6.1-6.1c0-0.8-0.2-1.6-0.5-2.3h3.3v9.2
	C-256.5,405.4-257.5,406.3-258.6,406.3z M-260.7,388.7l3.3,0h0.5v3.8l-3.8,0L-260.7,388.7z M-265.5,401.2c-2.2,0-3.9-1.8-3.9-3.9
	c0-0.9,0.3-1.7,0.7-2.3c0.7-1,1.9-1.6,3.2-1.6c1.3,0,2.5,0.7,3.2,1.6c0.5,0.6,0.7,1.4,0.7,2.3C-261.5,399.5-263.3,401.2-265.5,401.2
	z"/>
</svg>
