<?xml version="1.0" encoding="utf-8"?>
<!-- Generator: Adobe Illustrator 19.0.0, SVG Export Plug-In . SVG Version: 6.00 Build 0)  -->
<svg version="1.1" id="Layer_1" xmlns="http://www.w3.org/2000/svg" xmlns:xlink="http://www.w3.org/1999/xlink" x="0px" y="0px"
	 viewBox="0 0 216 44" style="enable-background:new 0 0 216 44;" xml:space="preserve">
<g>
	<path style="fill:#A60F26;" d="M10.9,20.5c0,0,5.2,6,11.2,12.6c0,0,7.9,9,13.1,2c0,0,1.5-2.8,7.6-2c0-0.1-3.6-10.4-3.6-10.4l-7-1.4
		l-15.2-2.8L10.9,20.5z"/>
	<path d="M30.4,38.2C30.4,38.2,30.4,38.2,30.4,38.2c-4.4,0-8.4-4.6-8.6-4.8c-6-6.5-11.2-12.6-11.2-12.6l-0.4-0.4L17,18l15.3,2.8
		l7.2,1.5l0.1,0.2c0.4,1.1,3.6,10.4,3.6,10.4l0.2,0.6l-0.6-0.1c-0.7-0.1-1.3-0.1-1.9-0.1c-4.2,0-5.2,1.9-5.3,1.9l0,0
		C34.1,37.2,32.4,38.2,30.4,38.2z M11.6,20.7c1.3,1.5,5.8,6.7,10.8,12.2c0,0.1,4,4.6,8,4.6c0,0,0,0,0,0c1.7,0,3.2-0.8,4.4-2.5
		c0.2-0.3,1.5-2.3,5.9-2.3c0.5,0,0.9,0,1.4,0.1c-0.7-2-2.9-8.4-3.3-9.6l-6.7-1.4l-15.1-2.8L11.6,20.7z"/>
</g>
<g>
	<path d="M62.4,8.1c0.5-0.4,0.1-1.4,0.1-1.4l-2.4-0.3C58,2.2,55.3,2,55.3,2c0-0.1-0.1-0.2-0.1-0.2c-1.6,0-2.9-1-4.8-1.4
		c-1.7-0.4-4.8-0.5-6.7,0.5c-0.4,0.3-0.7,0.6-1,0.8c-0.2,0.3-0.5,0.5-0.8,0.6c-1.9,1.5-2.7,3.1-3,4.3l-2.6,0.2
		c-0.1,0.5,0.3,1.4,0.3,1.4c-2.6,1.1-2.4,3.1-2.4,3.1c-0.1,2.9,3,3.3,3,3.4c-0.5,5,3.8,7.1,3.8,7.1c-4.7,3.1-4.2,6.3-4.2,6.4
		c0.1,2.9,3.4,5.4,3.4,5.4c0.7,2.9,3.5,7.1,3.5,7.1c-0.6,0.1-1,0.6-1,0.6c-1.3,1.3,0,2.1,0,2.1c0.9,1,3.3,0.4,3.3,0.4
		c2.3-1,2.6-2.7,2.6-2.7c0.5-1.4,0.8-1.5,0.8-1.5c0.6-0.3,0.8,0.6,0.8,0.6c0.1,1.6,1.9,3.1,1.9,3.1c3.7,1.8,4.7-0.6,4.7-0.6
		c0.4-1.4-1.3-2.1-1.3-2.1c2.8-4,3.4-7.1,3.4-7.1c3.8-3,3.4-6,3.4-6c-0.9-4-4.2-5.7-4.3-5.7c5-3.2,3.8-7.1,3.8-7.1
		c2.6-1.1,3-2.7,3-2.7C65.2,9.6,62.5,8.1,62.4,8.1z"/>
</g>
<g>
	<g>
		<path style="fill:#E31D39;" d="M58,22.9c-0.6-0.4-1-0.6-1-0.6c-7.9,3.8-15.1,0-15.1,0c-0.2,0.1-0.4,0.2-0.6,0.4
			C42.9,23.5,48.6,26.1,58,22.9z"/>
	</g>
	<g>
		<path style="fill:#8DC63F;" d="M58.7,23.5c-3.7,1.3-6.9,1.8-9.5,1.8c-5,0-7.9-1.7-8.6-2.1c-5.9,4.4-1,8.6-1.1,8.5
			C38.8,27.8,41,25,41,25c0.4-0.7,0.9-0.1,0.9-0.1c0.4,0.5-0.1,0.9,0,0.9c0,0.1-0.1,0.1-0.1,0.2c-4.3,5.1,3,14.7,3,14.6
			c1.5,0,2.6,1.1,2.6,1.1c0.5-3.3,2.3-3.1,2.3-3.1c1.8,0,2.3,3.1,2.3,3.1c0.7-1.1,2.7-1.3,2.6-1.4c7.3-9.7,2.6-14.7,2.6-14.8
			c-0.3-1,0.6-0.7,0.6-0.8c2.6,2.4,2,6.8,2,6.8C62.8,27.9,60.5,25,58.7,23.5z"/>
	</g>
</g>
<g>
	<path style="fill:#E31D39;" d="M40.9,21.7c0,0-2.1-0.9-3.5,0.4c0,0-39.2-13.4-33.5,2.2c0,0.1,4.6-9.6,35.1-0.4
		C39.4,24.2,40.9,21.7,40.9,21.7z"/>
	<path d="M3.9,24.7H3.5l0-0.3c-0.8-2.3-0.7-4.1,0.2-5.4c1.2-1.7,3.9-2.6,8-2.6c9.4,0,23.3,4.5,25.7,5.3c0.5-0.4,1.2-0.6,1.9-0.6
		c0.9,0,1.7,0.3,1.8,0.3l0.4,0.2l-0.2,0.4c-1.5,2.4-1.9,2.4-2.1,2.4c-0.1,0-0.2,0-0.2-0.1c-8.7-2.6-16-3.9-21.9-3.9
		c-9.2,0-12,3.2-12.7,4.1C4.2,24.5,4.1,24.7,3.9,24.7z M16.9,19.5c6,0,13.4,1.3,22.2,3.9c0.2-0.2,0.7-0.9,1.2-1.5
		c-0.3-0.1-0.6-0.1-1-0.1c-0.6,0-1.2,0.2-1.6,0.6l-0.1,0.1h-0.2l-0.1,0c-1.6-0.5-16.1-5.4-25.6-5.4c-3.8,0-6.3,0.8-7.3,2.3
		c-0.7,1-0.8,2.4-0.3,4.1C5.3,22,8.7,19.5,16.9,19.5z"/>
</g>
<g>
	<g>
		<path d="M78.6,26.7v6.3c-0.5,0.2-1,0.3-1.6,0.4c-0.6,0.1-1.2,0.1-1.9,0.1c-1.5,0-2.8-0.3-4.1-0.8c-1.3-0.5-2.3-1.3-3.3-2.2
			c-0.9-1-1.7-2.1-2.2-3.4c-0.5-1.3-0.8-2.7-0.8-4.3c0-1.5,0.3-2.9,0.8-4.2c0.6-1.3,1.3-2.4,2.3-3.4c1-1,2.2-1.7,3.5-2.3
			c1.3-0.6,2.8-0.9,4.4-0.9c1.1,0,2.1,0.2,2.8,0.5v6.2c-0.5-0.2-1-0.4-1.5-0.5c-0.5-0.1-1-0.2-1.5-0.2c-1.3,0-2.4,0.4-3.2,1.3
			c-0.8,0.9-1.2,2-1.2,3.4s0.4,2.5,1.2,3.3c0.8,0.9,1.8,1.3,3,1.3c0.4,0,0.9-0.1,1.4-0.2C77.4,27.3,78,27.1,78.6,26.7z"/>
	</g>
	<g>
		<path d="M87.1,28.5v4.6h-1.4c-1.1,0-2.1-0.1-2.8-0.3c-0.8-0.2-1.4-0.5-1.8-1c-0.5-0.5-0.8-1.1-1-1.9c-0.2-0.8-0.3-1.8-0.3-2.9
			v-9.8h5v9.4c0,0.9,0.1,1.5,0.4,1.7c0.2,0.2,0.7,0.4,1.5,0.4H87.1z"/>
	</g>
	<g>
		<path d="M98.2,23.4v2.8h-4.2c-0.4,0-0.8,0.1-1.1,0.3c-0.3,0.2-0.4,0.5-0.4,0.8c0,0.8,0.7,1.2,2,1.2h3.6v4.6h-4.4
			c-2.1,0-3.6-0.4-4.7-1.3C88,31,87.5,29.8,87.5,28c0-0.6,0.1-1.2,0.2-1.7c0.1-0.5,0.4-1,0.9-1.6c-0.4-0.4-0.7-0.9-0.8-1.3
			c-0.2-0.5-0.3-0.9-0.3-1.3c0-0.9,0.2-1.7,0.5-2.3c0.3-0.6,0.8-1.2,1.4-1.6c0.6-0.4,1.2-0.7,2-0.9c0.8-0.2,1.6-0.3,2.5-0.3h4.4v4.6
			H94c-0.6,0-1,0.1-1.2,0.2c-0.2,0.1-0.3,0.3-0.3,0.6c0,0.6,0.5,0.9,1.6,0.9H98.2z"/>
	</g>
	<g>
		<path d="M105.6,28.5c0.3-0.7,0.5-1.4,0.7-2.1c0.2-0.7,0.4-1.5,0.5-2.4c0.1-0.9,0.2-1.9,0.3-3c0.1-1.1,0.1-2.4,0.1-3.8h5
			c0,2-0.1,3.8-0.3,5.3c-0.2,1.6-0.4,3-0.8,4.2c-0.3,1.3-0.7,2.4-1.2,3.4c-0.5,1-1.1,2-1.7,3h-5.3c-0.7-0.9-1.2-1.9-1.7-3
			c-0.5-1-0.9-2.2-1.3-3.4c-0.3-1.3-0.6-2.7-0.7-4.2C99,20.9,99,19.1,99,17.1h5c0,1.4,0,2.7,0.1,3.8c0.1,1.1,0.2,2.1,0.3,3
			c0.1,0.9,0.3,1.7,0.5,2.4C105.1,27.1,105.3,27.8,105.6,28.5z"/>
	</g>
	<g>
		<path d="M123.6,23.4v2.8h-4.2c-0.4,0-0.8,0.1-1.1,0.3c-0.3,0.2-0.4,0.5-0.4,0.8c0,0.8,0.7,1.2,2,1.2h3.6v4.6h-4.4
			c-2.1,0-3.6-0.4-4.7-1.3c-1.1-0.8-1.6-2.1-1.6-3.8c0-0.6,0.1-1.2,0.2-1.7c0.1-0.5,0.4-1,0.9-1.6c-0.4-0.4-0.7-0.9-0.8-1.3
			c-0.2-0.5-0.3-0.9-0.3-1.3c0-0.9,0.2-1.7,0.5-2.3c0.3-0.6,0.8-1.2,1.4-1.6c0.6-0.4,1.2-0.7,2-0.9c0.8-0.2,1.6-0.3,2.5-0.3h4.4v4.6
			h-4.1c-0.6,0-1,0.1-1.2,0.2c-0.2,0.1-0.3,0.3-0.3,0.6c0,0.6,0.5,0.9,1.6,0.9H123.6z"/>
	</g>
	<g>
		<path d="M129.8,33.1h-5v-16h5.8c0.9,0,1.8,0.1,2.6,0.3c0.8,0.2,1.5,0.5,2.1,0.9c0.6,0.4,1.1,0.9,1.5,1.6c0.4,0.7,0.5,1.5,0.5,2.4
			c0,0.6-0.1,1.3-0.3,1.9c-0.2,0.6-0.6,1.2-1.1,1.6c0.6,0.5,1.1,1,1.3,1.6c0.2,0.6,0.3,1.4,0.3,2.3v3.4h-5.1v-3.4
			c0-0.7-0.1-1.2-0.3-1.5c-0.2-0.3-0.6-0.4-1.1-0.4h-0.4v-3.6h0.4c0.9,0,1.3-0.4,1.3-1.3c0-0.5-0.1-0.8-0.3-1
			c-0.2-0.2-0.7-0.3-1.4-0.3h-0.9V33.1z"/>
	</g>
	<g>
		<path d="M146.9,20v5h-7.3v-5H146.9z"/>
	</g>
	<g>
		<path d="M164.8,12.7v6.1c-1-0.2-1.9-0.4-2.7-0.5c-0.8-0.1-1.5-0.2-2.2-0.2c-1.6,0-2.9,0.4-3.9,1.3c-1,0.8-1.5,2-1.5,3.4
			c0,1.5,0.4,2.7,1.1,3.5c0.7,0.8,1.7,1.2,2.9,1.2v-6.4h6.3V33c-0.8,0.2-1.6,0.4-2.6,0.5c-1,0.1-1.8,0.2-2.6,0.2
			c-1.6,0-3-0.3-4.4-0.8c-1.4-0.5-2.6-1.2-3.7-2.1c-1-0.9-1.9-2.1-2.5-3.4c-0.6-1.3-0.9-2.8-0.9-4.5c0-1.6,0.3-3.1,0.9-4.4
			c0.6-1.3,1.4-2.4,2.5-3.4c1-0.9,2.3-1.7,3.7-2.2c1.4-0.5,2.9-0.8,4.5-0.8c0.9,0,1.8,0,2.7,0.1C163.2,12.4,164,12.5,164.8,12.7z"/>
	</g>
	<g>
		<path d="M179.4,33.1h-4.9v-3.5h-3.4v3.5h-4.9V24c0-1,0.2-1.9,0.5-2.8c0.3-0.9,0.7-1.7,1.3-2.3c0.6-0.7,1.3-1.2,2.1-1.6
			c0.8-0.4,1.8-0.6,2.8-0.6c1.1,0,2,0.2,2.8,0.6c0.8,0.4,1.5,0.9,2,1.5c0.6,0.7,1,1.4,1.3,2.3c0.3,0.9,0.4,1.9,0.4,2.9V33.1z
			 M171.1,25.4h3.4V24c0-0.7-0.1-1.3-0.4-1.6c-0.2-0.4-0.7-0.6-1.3-0.6c-0.6,0-1,0.2-1.3,0.6c-0.3,0.4-0.5,0.9-0.5,1.7V25.4z"/>
	</g>
	<g>
		<path d="M180.6,33.1v-8.8c0-1,0.1-1.9,0.4-2.8c0.2-0.9,0.6-1.7,1.2-2.4c0.5-0.7,1.2-1.3,2-1.7c0.8-0.4,1.7-0.6,2.8-0.6
			c0.8,0,1.5,0.1,2.2,0.3c0.7,0.2,1.3,0.6,1.8,1c0.5-0.4,1.1-0.7,1.7-1c0.7-0.2,1.4-0.3,2.2-0.3c1.1,0,2,0.2,2.8,0.6
			c0.8,0.4,1.4,1,2,1.7c0.5,0.7,0.9,1.5,1.2,2.4c0.2,0.9,0.4,1.9,0.4,2.8v8.8h-5v-8.6c0-1.3-0.1-2.1-0.3-2.4
			c-0.2-0.4-0.6-0.6-1.1-0.6c-0.5,0-0.9,0.2-1.1,0.5c-0.2,0.4-0.3,1.1-0.3,2.3v8.8h-5v-8.8c0-1.2-0.1-1.9-0.3-2.3
			c-0.2-0.4-0.6-0.5-1-0.5c-0.5,0-0.9,0.2-1.1,0.6c-0.2,0.4-0.3,1.2-0.3,2.4v8.6H180.6z"/>
	</g>
	<g>
		<path d="M212.8,23.4v2.8h-4.2c-0.4,0-0.8,0.1-1.1,0.3c-0.3,0.2-0.4,0.5-0.4,0.8c0,0.8,0.7,1.2,2,1.2h3.6v4.6h-4.4
			c-2.1,0-3.6-0.4-4.7-1.3c-1.1-0.8-1.6-2.1-1.6-3.8c0-0.6,0.1-1.2,0.2-1.7c0.1-0.5,0.4-1,0.9-1.6c-0.4-0.4-0.7-0.9-0.8-1.3
			c-0.2-0.5-0.3-0.9-0.3-1.3c0-0.9,0.2-1.7,0.5-2.3c0.3-0.6,0.8-1.2,1.4-1.6c0.6-0.4,1.2-0.7,2-0.9c0.8-0.2,1.6-0.3,2.5-0.3h4.4v4.6
			h-4.1c-0.6,0-1,0.1-1.2,0.2c-0.2,0.1-0.3,0.3-0.3,0.6c0,0.6,0.5,0.9,1.6,0.9H212.8z"/>
	</g>
</g>
<g>
	<path style="fill:#E2B782;" d="M54,3.2c0,0,0.6,2.1,4.7,2.6c0,0,0.2,0.5,0.5,0.7c0,0-2.2-0.5-6.2,0.1c0,0-8.2-0.5-8.2-0.5
		S52,5.4,54,3.2z"/>
</g>
<g>
	<path style="fill:#FBD59A;" d="M40.3,5.6c0,0-0.3,0.5-0.4,0.8c0,0,5.1-0.6,9.1,0.8c0,0,5.5-1.1,7.3-1c0,0-1.9-1-2.6-1.8
		C53.9,4.4,47.5,6.3,40.3,5.6z"/>
</g>
<g>
	<g>
		<path style="fill:#E9EAEB;" d="M38.7,8.7c0,0,0.7-1.6,4.9-1.2c0,0,3.5,0,3.4,2.9c0,0-0.1,3.7-2.7,4c0,0-3.2,0.4-4.8-1.7
			C39.6,12.8,38.2,11.1,38.7,8.7z"/>
	</g>
	<g>
		<path style="fill:#FFFFFF;" d="M39.1,8.4c0,0,0.7-1.6,4.9-1.2c0,0,3.5,0,3.4,2.9c0,0-0.1,3.7-2.7,4c0,0-3.2,0.4-4.8-1.7
			C40,12.5,38.6,10.8,39.1,8.4z"/>
	</g>
</g>
<g>
	<g>
		<path style="fill:#E9EAEB;" d="M60.2,8.7c0,0-0.7-1.6-4.9-1.2c0,0-3.5,0-3.4,2.9c0,0,0.1,3.7,2.7,4c0,0,3.2,0.4,4.8-1.7
			C59.4,12.8,60.7,11.1,60.2,8.7z"/>
	</g>
	<g>
		<path style="fill:#FFFFFF;" d="M59.8,8.4c0,0-0.7-1.6-4.9-1.2c0,0-3.5,0-3.4,2.9c0,0,0.1,3.7,2.7,4c0,0,3.2,0.4,4.8-1.7
			C59,12.5,60.3,10.8,59.8,8.4z"/>
	</g>
</g>
<g>
	<g>
		<path d="M56.6,11.6c-0.8,0-1.5-0.6-1.5-1.4c0-0.7,0.5-1.2,1.1-1.4c-0.3-0.2-0.7-0.3-1.1-0.3c-1.4,0-2.5,1.1-2.5,2.5
			c0,1.4,1.1,2.5,2.5,2.5c1.3,0,2.4-1,2.5-2.4C57.4,11.4,57,11.6,56.6,11.6z"/>
	</g>
	<g>
		<ellipse style="fill:#FFFFFF;" cx="53.9" cy="12" rx="0.3" ry="0.5"/>
	</g>
</g>
<g>
	<g>
		<path d="M42.4,11.6c0.8,0,1.5-0.6,1.5-1.4c0-0.7-0.5-1.2-1.1-1.4c0.3-0.2,0.7-0.3,1.1-0.3c1.4,0,2.5,1.1,2.5,2.5
			c0,1.4-1.1,2.5-2.5,2.5c-1.3,0-2.4-1-2.5-2.4C41.6,11.4,42,11.6,42.4,11.6z"/>
	</g>
	<g>
		<ellipse style="fill:#FFFFFF;" cx="45.2" cy="12" rx="0.3" ry="0.5"/>
	</g>
</g>
<g>
	<path style="fill:#FBD59A;" d="M37.3,8.9c0,0-2.5,0.5-2.1,3.2c0,0,0.8,1.6,2.9,1.8c0,0-1.2,5.2,4.4,7.6c0,0,3.9,1.5,6.9,1.6
		c0,0,5.2,0,8.6-2.7c0,0,3.6-2.6,2.7-6.4c0,0,3.3-0.6,3.1-2.7c0,0.1,0.2-1.8-2.3-2.2c0,0,0.2,3.9-3,5.6c0,0-4.6,1.7-7.1-1.3
		c0,0-1-1.3-1.2-3.6c0,0-0.1-1.4-0.9-1.3c0,0-0.8-0.3-0.9,1.4c0,0-0.1,4-3.3,5.1c0,0-4.5,1.3-6.7-1.7C38.6,13.3,37.3,11.3,37.3,8.9z
		"/>
</g>
<g>
	<path style="fill:#FDF5C9;" d="M37.3,8.9c0,0-2.5,0.5-2.1,3.2c0,0,0.6-2,2.2-2.1C37.4,10,37.3,9.1,37.3,8.9z"/>
</g>
<g>
	<path style="fill:#FDF5C9;" d="M38.1,13.9c0,0-0.2,0,0.9,0.2c0,0-1.6,4.6,4.5,7.8C43.6,21.9,37.3,20.6,38.1,13.9z"/>
</g>
<g>
	<path style="fill:#E2B782;" d="M45.3,22.4c0,0,8.3,1.1,12.6-3.1c0,0,2-1.8,2.1-5.2c0,0,0.5-0.4,0.7-1c0,0,2.6,0,2.8-3.1
		c0,0,1,1.4-0.2,2.7c0,0-0.6,0.8-2.6,1.3c0,0,0.8,3.2-2,5.7C58.8,19.7,54.1,24.7,45.3,22.4z"/>
</g>
<g>
	<path style="fill:#BCD631;" d="M41.8,25.7c0,0-3.3,5.4,3.5,14.8c0,0-0.3-0.1-0.6-0.1C44.7,40.5,37.1,30.5,41.8,25.7z"/>
</g>
<g>
	<ellipse style="fill:#FFFFFF;" cx="49.5" cy="30.8" rx="5.2" ry="5"/>
</g>
<g>
	<path style="fill:#6FA132;" d="M51.6,40.7c0,0,1.1-0.7,2.4-1.1c0,0,3.1-5,3.4-6.2c0,0.1-3.5-1.8-11.2-1.9c0,0,3.8-0.9,11.4,0.8
		c0,0,0.7-3.6-0.5-6.8c0,0,2.2,2.7,1,7.6c0,0.1-1.3,4.2-3.7,7.1c0,0-2.2,0.5-2.6,1.4L51.6,40.7z"/>
</g>
<g>
	<g>
		<path style="fill-rule:evenodd;clip-rule:evenodd;fill:#5E8C2A;" d="M51.4,30.5c0.2,0.1,0.4,0.1,0.6,0.2c0.3,0.1,0.6,0.2,0.8,0.4
			c0.1,0.2,0.2,0.5,0.1,0.8c-0.1,0.5-0.6,0.7-1,0.9c-0.2,0.3-0.3,0.6-0.6,0.6c-0.5,0.1-1.1-0.2-1.3-0.6c-0.1-0.2-0.2-0.5-0.2-0.7
			c-0.1,0.9,0.1,1.7,0.4,2.4c-0.2,0-0.5,0.1-0.7,0.1C48.7,34,48.7,33,49,32c-0.2,0.3-0.3,0.5-0.5,0.7c-0.2,0.2-0.5,0.5-0.9,0.4
			c-0.5-0.1-0.6-0.8-0.6-1.3c-0.4-0.2-1-0.3-1-0.8c0-0.3,0.5-0.5,0.8-0.6c0.3-0.1,0.7-0.2,1-0.3c-0.6-0.2-1.4-0.4-1.3-1
			c0-0.3,0.3-0.5,0.5-0.7c0.2-0.2,0.5-0.3,0.7-0.5c0.3-0.3,0.7-1,1.3-0.8c0.3,0.1,0.5,0.5,0.6,0.8c0.1,0.3,0.2,0.7,0.2,1
			c0.2-0.7,0.4-1.4,0.9-1.6c0.6-0.3,1.2,0.4,1.3,0.9c0.5,0.3,1,0.5,1,1.1c0,0.3-0.3,0.6-0.5,0.8C52,30.3,51.7,30.4,51.4,30.5z"/>
	</g>
</g>
<g>
	<g>
		<path style="fill:#6FA132;" d="M55.4,31.8c-6.2-1-9.2-0.3-9.2-0.3c4.3,0.1,7.2,0.6,9,1.1C55.3,32.4,55.4,32.1,55.4,31.8z"/>
	</g>
</g>
<g>
	<path style="fill:#E6E7E8;" d="M52.9,31.5c0,0.2,0,0.2,0,0.3c0,0.1-0.1,0.2-0.1,0.3c0.7,0.1,1.1,0.2,1.6,0.3
		c0.1-0.3,0.2-0.5,0.2-0.7C53.9,31.6,53.5,31.6,52.9,31.5z"/>
</g>
<g>
	<path d="M48.8,16.6c-0.1,0-0.2,0-0.3-0.1c-0.1-0.1-0.9-0.8-0.9-1.7c0-0.5,0.2-1,0.6-1.4c0,0,0,0,0.1-0.1c0.6-0.4,1.8-0.8,2.9,0.5
		c0.2,0.2,0.2,0.6-0.1,0.7c-0.2,0.2-0.6,0.2-0.7-0.1c-0.6-0.7-1.2-0.5-1.4-0.3c-0.2,0.2-0.3,0.3-0.2,0.5c0,0.4,0.4,0.8,0.5,0.9
		c0.2,0.2,0.2,0.5,0.1,0.7C49.1,16.5,49,16.6,48.8,16.6z"/>
</g>
<g>
	<path d="M49.1,19.7c-0.6,0-1.1-0.1-1.1-0.1c-0.3-0.1-0.5-0.3-0.4-0.6c0.1-0.3,0.3-0.5,0.6-0.4c0.1,0,2.4,0.4,4.2-1
		c0.2-0.2,0.6-0.1,0.7,0.1c0.2,0.2,0.1,0.6-0.1,0.7C51.7,19.5,50.1,19.7,49.1,19.7z"/>
</g>
<g>
	<path d="M50.5,21.2c0,0-0.1,0-0.1,0c-0.8-0.2-1.6,0-1.6,0c-0.3,0.1-0.6-0.1-0.6-0.4c-0.1-0.3,0.1-0.6,0.4-0.6c0,0,1-0.3,2.1,0
		c0.3,0.1,0.5,0.4,0.4,0.6C51,21.1,50.8,21.2,50.5,21.2z"/>
</g>
<g>
	<g>
		<path style="fill:#BCD631;" d="M41.3,23.6c-0.4-0.2-0.6-0.3-0.8-0.4c-1.6,1.2-3.8,3.5-2.4,6.7C38.1,29.8,37.7,26.3,41.3,23.6z"/>
	</g>
	<g>
		<path style="fill:#E97742;" d="M42,23c0.2-0.1,0.4-0.2,0.6-0.4c0,0-0.8-0.4-0.8-0.4s-0.2,0.1-0.6,0.3C41.4,22.7,41.7,22.9,42,23z"
			/>
	</g>
</g>
<g>
	<g>
		<path style="fill:#A60F26;" d="M57.9,22.9c-0.3-0.2-0.6-0.4-1-0.6l-0.8,0.4c0,0,0.4,0.2,1,0.5C57.4,23.1,57.7,23,57.9,22.9z"/>
	</g>
	<g>
		<path style="fill:#6FA132;" d="M61,26.6c0,0-0.6-1.5-2.3-3c-0.2,0.1-0.5,0.2-0.7,0.2c1.5,1.1,3.1,3.1,1.7,5.9c0,0.1,0,1.8,0,1.8
			S61.9,29.2,61,26.6z"/>
	</g>
</g>
<polygon points="54.1,1.8 53.8,0.1 54.8,1.6 55,1.8 55.5,0.9 55.6,2.2 57.2,2.3 55.9,2.7 "/>
<g>
	<path d="M94.7,37v3.8l0.5,0l0,2h-0.8l-0.1-1.2h-2.7l-0.1,1.2h-0.8l0-2l0.4,0c0.2-0.3,0.3-0.7,0.4-1c0.1-0.5,0.2-1,0.2-1.5V37H94.7z
		 M92.6,38.5c0,0.5-0.1,1.1-0.2,1.5c-0.1,0.3-0.2,0.6-0.3,0.8h1.5v-2.9h-1V38.5z"/>
	<path d="M98.5,39.7h-1.7v1.1h1.9v0.9h-3V37h2.9v0.9h-1.8v1h1.7V39.7z"/>
	<path d="M100.3,37.9h-1.3V37h3.6v0.9h-1.3v3.8h-1.1V37.9z"/>
	<path d="M106.4,41.5c-0.2,0.1-0.6,0.2-1.2,0.2c-1.6,0-2.4-1-2.4-2.3c0-1.6,1.1-2.5,2.5-2.5c0.5,0,1,0.1,1.1,0.2l-0.2,0.8
		c-0.2-0.1-0.5-0.2-0.9-0.2c-0.8,0-1.5,0.5-1.5,1.5c0,0.9,0.6,1.5,1.5,1.5c0.3,0,0.7-0.1,0.9-0.2L106.4,41.5z"/>
	<path d="M108.1,37v1.9h0.1l1.3-1.9h1.3l-1.6,2.1c0.6,0.1,0.9,0.6,1.1,1.1c0.2,0.5,0.3,1,0.5,1.5h-1.1c-0.2-0.3-0.2-0.7-0.4-1
		c-0.2-0.5-0.4-0.9-0.9-0.9h-0.2v1.9h-1V37H108.1z"/>
	<path d="M112.2,37v1.4c0,0.7,0,1.5-0.1,2.1h0c0.2-0.5,0.6-1.2,0.8-1.7l1-1.8h1.1v4.7h-1v-1.4c0-0.7,0-1.4,0.1-2h0
		c-0.2,0.6-0.5,1.2-0.8,1.7l-0.9,1.7h-1.2V37H112.2z"/>
	<path d="M117,37v1.4c0,0.7,0,1.5-0.1,2.1h0c0.2-0.5,0.6-1.2,0.8-1.7l1-1.8h1.1v4.7h-1v-1.4c0-0.7,0-1.4,0.1-2h0
		c-0.2,0.6-0.5,1.2-0.8,1.7l-0.9,1.7H116V37H117z M117.6,35.9c0,0.3,0.1,0.4,0.3,0.4c0.2,0,0.3-0.2,0.3-0.4h0.7
		c0,0.6-0.4,0.8-1.1,0.8c-0.6,0-0.9-0.3-1-0.8H117.6z"/>
	<path d="M123.2,37v1.4c0,0.7,0,1.5-0.1,2.1h0c0.2-0.5,0.6-1.2,0.8-1.7l1-1.8h1.1v4.7h-1v-1.4c0-0.7,0-1.4,0.1-2h0
		c-0.2,0.6-0.5,1.2-0.8,1.7l-0.9,1.7h-1.2V37H123.2z"/>
	<path d="M128,37v1.8h1.7V37h1v4.7h-1v-1.9H128v1.9H127V37H128z"/>
	<path d="M132.6,37.9h-1.3V37h3.6v0.9h-1.3v3.8h-1V37.9z"/>
	<path d="M138.3,39.7h-1.7v1.1h1.9v0.9h-3V37h2.9v0.9h-1.8v1h1.7V39.7z"/>
	<path d="M139.2,37.1c0.3-0.1,0.8-0.1,1.4-0.1c0.6,0,1.1,0.1,1.4,0.4c0.3,0.2,0.5,0.6,0.5,1.1c0,0.5-0.1,0.9-0.4,1.1
		c-0.4,0.3-0.9,0.5-1.5,0.5c-0.1,0-0.3,0-0.4,0v1.7h-1V37.1z M140.2,39.2c0.1,0,0.2,0,0.4,0c0.6,0,0.9-0.3,0.9-0.8
		c0-0.4-0.3-0.7-0.8-0.7c-0.2,0-0.4,0-0.4,0V39.2z"/>
	<path d="M144.3,37v1.8h1.7V37h1v4.7h-1v-1.9h-1.7v1.9h-1.1V37H144.3z"/>
	<path d="M150.7,39.7H149v1.1h1.9v0.9h-3V37h2.9v0.9H149v1h1.7V39.7z"/>
	<path d="M152.6,37.9h-1.3V37h3.6v0.9h-1.3v3.8h-1V37.9z"/>
	<path d="M156.4,39.5v0.7h-1.8v-0.7H156.4z"/>
	<path d="M161,39.9c0-0.6,0-1.2,0-1.9h0c-0.2,0.6-0.3,1.3-0.5,1.8l-0.6,1.8H159l-0.5-1.8c-0.2-0.6-0.3-1.2-0.4-1.8h0
		c0,0.6,0,1.3-0.1,1.9l-0.1,1.8h-1l0.3-4.7h1.4l0.5,1.6c0.2,0.5,0.3,1.1,0.4,1.7h0c0.1-0.5,0.3-1.2,0.4-1.7l0.5-1.5h1.4l0.2,4.7h-1
		L161,39.9z"/>
	<path d="M164,40.5l-0.3,1.2h-1.1L164,37h1.4l1.5,4.7h-1.1l-0.4-1.2H164z M165.2,39.7l-0.3-1c-0.1-0.3-0.2-0.6-0.2-0.9h0
		c-0.1,0.3-0.1,0.6-0.2,0.9l-0.3,1H165.2z"/>
	<path d="M170.2,37v0.9h-1.8v3.8h-1.1V37H170.2z"/>
	<path d="M171.4,40.5l-0.3,1.2H170l1.4-4.7h1.4l1.5,4.7h-1.1l-0.4-1.2H171.4z M172.6,39.7l-0.3-1c-0.1-0.3-0.2-0.6-0.2-0.9h0
		c-0.1,0.3-0.1,0.6-0.2,0.9l-0.3,1H172.6z"/>
	<path d="M174.7,37.3c0.3-0.2,0.8-0.4,1.5-0.4c1,0,1.6,0.5,1.6,1.2c0,0.6-0.4,1-0.9,1.1v0c0.6,0.1,1.1,0.5,1.1,1.1
		c0,1-1,1.4-1.9,1.4c-0.5,0-1-0.1-1.4-0.3l0.2-0.8c0.2,0.1,0.7,0.3,1.1,0.3c0.5,0,0.9-0.2,0.9-0.6c0-0.5-0.5-0.6-1-0.6h-0.4v-0.8
		h0.4c0.5,0,0.8-0.2,0.8-0.6c0-0.3-0.3-0.5-0.7-0.5c-0.4,0-0.8,0.1-1,0.3L174.7,37.3z"/>
	<path d="M179.6,37v1.4c0,0.7,0,1.5-0.1,2.1h0c0.2-0.5,0.6-1.2,0.8-1.7l1-1.8h1.1v4.7h-1v-1.4c0-0.7,0-1.4,0.1-2h0
		c-0.2,0.6-0.5,1.2-0.8,1.7l-0.9,1.7h-1.2V37H179.6z"/>
	<path d="M184.4,37v1.8h1.7V37h1v4.7h-1v-1.9h-1.7v1.9h-1.1V37H184.4z"/>
</g>
</svg>
