<?xml version="1.0" encoding="utf-8"?>
<!-- Generator: Adobe Illustrator 19.0.0, SVG Export Plug-In . SVG Version: 6.00 Build 0)  -->
<svg version="1.1" id="Layer_1" xmlns="http://www.w3.org/2000/svg" xmlns:xlink="http://www.w3.org/1999/xlink" x="0px" y="0px"
	 viewBox="0 0 480 153" style="enable-background:new 0 0 480 153;" xml:space="preserve">
<g>
	<path style="fill:#A60F26;" d="M28,70.2c0,0,11.3,13.1,24.4,27.5c0,0,17.1,19.7,28.5,4.4c0,0,3.3-6,16.5-4.4
		c0-0.1-7.8-22.7-7.8-22.7l-15.1-3.1l-33-6.1L28,70.2z"/>
	<path d="M70.5,108.7C70.5,108.7,70.5,108.7,70.5,108.7c-9.5,0-18.4-10.1-18.7-10.5C38.8,84,27.4,70.9,27.3,70.7l-0.8-1l14.9-4.9
		L74.7,71l15.6,3.2l0.2,0.5c0.8,2.3,7.8,22.5,7.8,22.7l0.4,1.3l-1.3-0.2c-1.5-0.2-2.9-0.3-4.2-0.3c-9,0-11.4,4.2-11.4,4.2l-0.1,0.1
		C78.5,106.6,74.8,108.7,70.5,108.7z M29.5,70.6c2.9,3.3,12.6,14.5,23.6,26.5c0.1,0.1,8.7,9.9,17.4,9.9c0,0,0,0,0,0
		c3.7,0,7-1.8,9.7-5.4c0.4-0.6,3.4-5,12.9-5c1,0,2,0,3.1,0.1c-1.5-4.3-6.3-18.2-7.2-20.9l-14.6-3l-32.8-6.1L29.5,70.6z"/>
</g>
<g>
	<path d="M140.1,43.3c1.1-0.8,0.2-3.1,0.2-3.1l-5.2-0.6c-4.6-9.3-10.6-9.7-10.6-9.7c-0.1-0.2-0.2-0.4-0.3-0.5
		c-3.6,0-6.3-2.2-10.5-3.1c-3.7-0.8-10.5-1.2-14.6,1.1c-0.8,0.7-1.5,1.3-2.1,1.7c-0.5,0.6-1.1,1-1.7,1.3c-4.1,3.2-5.8,6.8-6.5,9.4
		l-5.6,0.4c-0.3,1,0.6,3,0.6,3c-5.6,2.3-5.3,6.8-5.3,6.8c-0.3,6.4,6.5,7.3,6.5,7.4c-1.2,10.9,8.3,15.4,8.3,15.4
		c-10.3,6.8-9.1,13.8-9.1,13.9c0.2,6.3,7.3,11.7,7.3,11.7c1.5,6.4,7.7,15.5,7.7,15.5c-1.2,0.2-2.2,1.2-2.2,1.2c-2.8,2.8,0,4.6,0,4.6
		c2.1,2.1,7.2,0.9,7.2,0.9c5.1-2.1,5.7-5.9,5.7-5.9c1.1-3.1,1.6-3.2,1.7-3.3c1.3-0.7,1.8,1.4,1.8,1.4c0.2,3.4,4.2,6.7,4.2,6.7
		c8,3.9,10.3-1.3,10.3-1.3c0.9-3.1-2.9-4.5-2.9-4.5c6-8.8,7.5-15.4,7.5-15.4c8.3-6.5,7.4-13.1,7.4-13.1c-2-8.8-9.1-12.4-9.3-12.4
		c10.8-7,8.3-15.5,8.3-15.5c5.7-2.3,6.5-5.9,6.6-6C146.2,46.5,140.3,43.3,140.1,43.3z"/>
</g>
<g>
	<g>
		<path style="fill:#E31D39;" d="M130.4,75.5c-1.2-0.9-2.1-1.3-2.1-1.3c-17.2,8.3-33,0-33,0c-0.4,0.3-0.8,0.5-1.2,0.8
			C97.6,76.8,110.1,82.4,130.4,75.5z"/>
	</g>
	<g>
		<path style="fill:#8DC63F;" d="M132,76.8c-8.1,2.9-15,3.9-20.7,3.9c-10.8,0-17.2-3.6-18.8-4.6c-12.7,9.5-2.2,18.6-2.3,18.5
			c-1.6-8.4,3.3-14.6,3.3-14.6c1-1.5,1.9-0.3,1.9-0.3c0.9,1.2-0.2,1.9-0.1,1.9c-0.1,0.1-0.2,0.2-0.3,0.4c-9.4,11,6.5,31.9,6.5,31.8
			c3.3,0,5.6,2.5,5.6,2.4c1.2-7.2,4.9-6.7,4.9-6.7c3.9,0,5,6.8,5,6.7c1.5-2.3,5.8-2.8,5.7-3c15.9-21.1,5.7-32.1,5.6-32.2
			c-0.6-2.2,1.4-1.6,1.4-1.7c5.8,5.2,4.3,14.7,4.4,14.7C140.9,86.4,136,80.1,132,76.8z"/>
	</g>
</g>
<g>
	<path style="fill:#E31D39;" d="M93.3,72.9c0,0-4.7-2-7.5,0.8c0,0-85.2-29.3-73,4.8c0,0.3,10-20.8,76.4-0.9
		C90,78.2,93.3,72.9,93.3,72.9z"/>
	<path d="M12.8,79.3h-0.9l0-0.7c-1.7-4.9-1.6-8.9,0.5-11.8c2.6-3.8,8.5-5.7,17.3-5.7c20.4,0,50.7,9.9,55.8,11.6
		c1.1-0.9,2.5-1.4,4.2-1.4c2.1,0,3.8,0.7,3.9,0.8l0.9,0.4L94,73.3c-3.2,5.1-4.2,5.2-4.6,5.1c-0.2,0-0.4,0-0.5-0.1
		C70,72.7,54,69.8,41.1,69.8c-20,0-26.1,6.9-27.5,9C13.5,78.9,13.2,79.3,12.8,79.3z M41.1,68.1c13,0,29.2,2.9,48.2,8.6
		c0.5-0.4,1.6-1.9,2.6-3.3c-0.6-0.2-1.4-0.3-2.2-0.3c-1.4,0-2.6,0.4-3.4,1.2l-0.2,0.2h-0.5l-0.2-0.1c-3.5-1.2-34.9-11.6-55.7-11.6
		c-8.3,0-13.6,1.7-15.9,5c-1.5,2.2-1.7,5.1-0.7,8.9C15.8,73.6,23.2,68.1,41.1,68.1z"/>
</g>
<g>
	<g>
		<path d="M175.4,83.8v13.7c-1,0.4-2.2,0.7-3.5,0.9c-1.3,0.2-2.6,0.2-4.1,0.2c-3.2,0-6.1-0.6-8.9-1.8c-2.7-1.2-5.1-2.8-7.1-4.9
			c-2-2.1-3.6-4.5-4.8-7.4c-1.2-2.8-1.7-5.9-1.7-9.3c0-3.2,0.6-6.2,1.8-9.1c1.2-2.8,2.9-5.3,5-7.4c2.1-2.1,4.7-3.8,7.6-5
			c2.9-1.2,6.1-1.9,9.5-1.9c2.4,0,4.5,0.4,6.1,1.1v13.6c-1.1-0.5-2.2-0.9-3.3-1.1c-1.1-0.2-2.1-0.3-3.2-0.3c-2.9,0-5.3,1-7,2.9
			c-1.7,1.9-2.6,4.4-2.6,7.3s0.8,5.4,2.5,7.3c1.7,1.9,3.9,2.9,6.6,2.9c0.9,0,1.9-0.1,3.1-0.4C172.8,85,174.1,84.5,175.4,83.8z"/>
	</g>
	<g>
		<path d="M193.8,87.7v10h-3c-2.4,0-4.5-0.2-6.1-0.7c-1.6-0.5-3-1.2-4-2.2c-1-1-1.7-2.4-2.2-4.1c-0.4-1.7-0.6-3.8-0.6-6.3V62.9h10.8
			v20.4c0,1.9,0.3,3.2,0.8,3.7c0.5,0.5,1.6,0.8,3.3,0.8H193.8z"/>
	</g>
	<g>
		<path d="M217.9,76.5v6.2h-9.2c-0.9,0-1.7,0.2-2.3,0.6c-0.6,0.4-0.9,1-0.9,1.8c0,1.7,1.5,2.5,4.5,2.5h7.9v10.1h-9.5
			c-4.5,0-7.9-0.9-10.2-2.7c-2.3-1.8-3.5-4.6-3.5-8.4c0-1.4,0.1-2.6,0.4-3.6c0.3-1.1,0.9-2.2,2-3.4c-0.8-0.9-1.4-1.9-1.8-2.9
			c-0.4-1-0.6-2-0.6-2.9c0-2,0.4-3.7,1.1-5.1c0.7-1.4,1.7-2.5,2.9-3.4c1.2-0.9,2.7-1.5,4.4-1.9c1.7-0.4,3.5-0.6,5.4-0.6h9.5v10h-9
			c-1.3,0-2.2,0.1-2.7,0.4c-0.5,0.2-0.7,0.7-0.7,1.4c0,1.2,1.1,1.9,3.4,1.9H217.9z"/>
	</g>
	<g>
		<path d="M234.1,87.6c0.6-1.4,1.1-3,1.6-4.5c0.4-1.6,0.8-3.4,1.1-5.3c0.3-1.9,0.5-4.1,0.7-6.5c0.1-2.4,0.2-5.2,0.2-8.3h10.9
			c0,4.3-0.2,8.2-0.6,11.6c-0.4,3.4-0.9,6.5-1.6,9.2c-0.7,2.7-1.6,5.2-2.7,7.5c-1.1,2.2-2.3,4.4-3.8,6.5h-11.6
			c-1.4-2.1-2.7-4.2-3.8-6.5c-1.1-2.2-2-4.7-2.7-7.5c-0.7-2.7-1.3-5.8-1.6-9.2c-0.4-3.4-0.5-7.3-0.5-11.6h11c0,3.1,0.1,5.9,0.2,8.3
			c0.1,2.4,0.4,4.6,0.6,6.5c0.3,1.9,0.6,3.7,1.1,5.3C233,84.7,233.5,86.2,234.1,87.6z"/>
	</g>
	<g>
		<path d="M273.2,76.5v6.2h-9.2c-0.9,0-1.7,0.2-2.3,0.6c-0.6,0.4-0.9,1-0.9,1.8c0,1.7,1.5,2.5,4.5,2.5h7.9v10.1h-9.5
			c-4.5,0-7.9-0.9-10.2-2.7c-2.3-1.8-3.5-4.6-3.5-8.4c0-1.4,0.1-2.6,0.4-3.6c0.3-1.1,0.9-2.2,2-3.4c-0.8-0.9-1.4-1.9-1.8-2.9
			c-0.4-1-0.6-2-0.6-2.9c0-2,0.4-3.7,1.1-5.1c0.7-1.4,1.7-2.5,2.9-3.4c1.2-0.9,2.7-1.5,4.4-1.9c1.7-0.4,3.5-0.6,5.4-0.6h9.5v10h-9
			c-1.3,0-2.2,0.1-2.7,0.4c-0.5,0.2-0.7,0.7-0.7,1.4c0,1.2,1.1,1.9,3.4,1.9H273.2z"/>
	</g>
	<g>
		<path d="M286.8,97.7H276V62.9h12.7c2,0,3.9,0.2,5.7,0.6c1.8,0.4,3.4,1.1,4.7,2c1.3,0.9,2.4,2.1,3.2,3.5c0.8,1.4,1.2,3.2,1.2,5.3
			c0,1.4-0.2,2.7-0.7,4.1c-0.5,1.4-1.3,2.5-2.5,3.4c1.4,1.1,2.3,2.3,2.8,3.6c0.4,1.3,0.7,3,0.7,5v7.3h-11v-7.3
			c0-1.5-0.2-2.6-0.7-3.2c-0.5-0.6-1.3-0.9-2.4-0.9h-0.8v-7.7h0.8c1.9,0,2.9-0.9,2.9-2.8c0-1-0.2-1.7-0.7-2.1
			c-0.5-0.4-1.5-0.6-3-0.6h-1.9V97.7z"/>
	</g>
	<g>
		<path d="M323.9,69.1v11h-15.8v-11H323.9z"/>
	</g>
	<g>
		<path d="M362.9,53.3v13.3c-2.2-0.5-4.1-0.8-5.9-1c-1.8-0.2-3.3-0.3-4.7-0.3c-3.4,0-6.2,0.9-8.4,2.8c-2.2,1.8-3.3,4.3-3.3,7.5
			c0,3.3,0.8,5.9,2.3,7.6c1.6,1.7,3.6,2.6,6.3,2.6V71.8h13.7v25.6c-1.7,0.5-3.6,0.8-5.7,1c-2.1,0.2-4,0.3-5.6,0.3
			c-3.4,0-6.6-0.5-9.6-1.6c-3-1.1-5.7-2.7-8-4.7c-2.3-2-4.1-4.5-5.4-7.3c-1.3-2.9-2-6.1-2-9.7c0-3.5,0.7-6.7,2-9.6
			c1.3-2.9,3.1-5.3,5.4-7.4c2.3-2,4.9-3.6,8-4.7c3.1-1.1,6.3-1.7,9.8-1.7c2.1,0,4,0.1,5.9,0.3C359.4,52.5,361.2,52.8,362.9,53.3z"/>
	</g>
	<g>
		<path d="M394.7,97.7h-10.6V90h-7.5v7.7h-10.7V77.9c0-2.1,0.3-4.2,1-6.1c0.7-1.9,1.6-3.6,2.9-5c1.3-1.4,2.8-2.6,4.6-3.4
			c1.8-0.8,3.8-1.2,6.2-1.2c2.3,0,4.3,0.4,6.1,1.2c1.8,0.8,3.2,1.9,4.4,3.3c1.2,1.4,2.1,3.1,2.7,5.1c0.6,2,0.9,4.1,0.9,6.3V97.7z
			 M376.6,80.9h7.5v-3.1c0-1.6-0.3-2.8-0.8-3.6c-0.5-0.8-1.4-1.2-2.8-1.2c-1.2,0-2.2,0.4-2.9,1.2c-0.7,0.8-1.1,2-1.1,3.6V80.9z"/>
	</g>
	<g>
		<path d="M397.3,97.7V78.6c0-2.1,0.3-4.2,0.8-6.2c0.5-2,1.4-3.7,2.5-5.3c1.1-1.5,2.6-2.7,4.3-3.7c1.7-0.9,3.7-1.4,6.1-1.4
			c1.7,0,3.3,0.2,4.8,0.7c1.4,0.5,2.7,1.2,3.8,2.1c1.1-0.9,2.3-1.6,3.8-2.1c1.5-0.5,3.1-0.7,4.8-0.7c2.4,0,4.4,0.5,6.1,1.4
			c1.7,0.9,3.1,2.1,4.3,3.7c1.1,1.5,2,3.3,2.5,5.3c0.5,2,0.8,4,0.8,6.2v19.1h-10.8V78.9c0-2.7-0.2-4.5-0.6-5.3
			c-0.4-0.8-1.2-1.2-2.4-1.2c-1.2,0-1.9,0.4-2.4,1.2c-0.4,0.8-0.6,2.5-0.6,5v19.2h-10.9V78.5c0-2.6-0.2-4.2-0.7-5
			c-0.5-0.8-1.2-1.2-2.3-1.2c-1.2,0-1.9,0.4-2.4,1.2c-0.4,0.8-0.7,2.6-0.7,5.3v18.8H397.3z"/>
	</g>
	<g>
		<path d="M467.3,76.5v6.2h-9.2c-0.9,0-1.7,0.2-2.3,0.6c-0.6,0.4-0.9,1-0.9,1.8c0,1.7,1.5,2.5,4.5,2.5h7.9v10.1h-9.5
			c-4.5,0-7.9-0.9-10.2-2.7c-2.3-1.8-3.5-4.6-3.5-8.4c0-1.4,0.1-2.6,0.4-3.6c0.3-1.1,1-2.2,2-3.4c-0.8-0.9-1.4-1.9-1.8-2.9
			c-0.4-1-0.6-2-0.6-2.9c0-2,0.4-3.7,1.1-5.1c0.7-1.4,1.7-2.5,2.9-3.4c1.2-0.9,2.7-1.5,4.4-1.9c1.7-0.4,3.5-0.6,5.4-0.6h9.5v10h-9
			c-1.3,0-2.2,0.1-2.7,0.4c-0.5,0.2-0.7,0.7-0.7,1.4c0,1.2,1.1,1.9,3.4,1.9H467.3z"/>
	</g>
</g>
<g>
	<path style="fill:#E2B782;" d="M121.9,32.5c0,0,1.3,4.5,10.2,5.6c0,0,0.4,1.1,1.1,1.5c0,0-4.9-1.2-13.6,0.2c0.1,0-17.9-1-17.9-1
		S117.6,37.4,121.9,32.5z"/>
</g>
<g>
	<path style="fill:#FBD59A;" d="M92.1,37.8c0,0-0.7,1.1-0.8,1.8c0,0,11.2-1.2,19.9,1.7c0,0,12-2.4,16-2.1c0,0-4.1-2.1-5.6-3.8
		C121.5,35.3,107.6,39.4,92.1,37.8z"/>
</g>
<g>
	<g>
		<path style="fill:#E9EAEB;" d="M88.5,44.6c0,0,1.5-3.6,10.8-2.6c0,0.1,7.7,0,7.4,6.2c0,0-0.3,8-5.8,8.8c0,0.1-7,0.9-10.5-3.6
			C90.4,53.4,87.4,49.8,88.5,44.6z"/>
	</g>
	<g>
		<path style="fill:#FFFFFF;" d="M89.4,43.9c0,0,1.5-3.6,10.8-2.6c0,0.1,7.7,0,7.4,6.2c0,0-0.3,8-5.8,8.8c0,0.1-7,0.9-10.5-3.6
			C91.3,52.7,88.3,49.1,89.4,43.9z"/>
	</g>
</g>
<g>
	<g>
		<path style="fill:#E9EAEB;" d="M135.4,44.6c0,0-1.5-3.6-10.8-2.6c0,0.1-7.7,0-7.4,6.2c0,0,0.3,8,5.8,8.8c0,0.1,7,0.9,10.5-3.6
			C133.5,53.4,136.5,49.8,135.4,44.6z"/>
	</g>
	<g>
		<path style="fill:#FFFFFF;" d="M134.5,43.9c0,0-1.5-3.6-10.8-2.6c0,0.1-7.7,0-7.4,6.2c0,0,0.3,8,5.8,8.8c0,0.1,7,0.9,10.5-3.6
			C132.6,52.7,135.6,49.1,134.5,43.9z"/>
	</g>
</g>
<g>
	<g>
		<path d="M127.5,50.8c-1.8,0-3.2-1.4-3.2-3.1c0-1.5,1.1-2.7,2.5-3c-0.8-0.4-1.6-0.6-2.5-0.6c-3.1,0-5.5,2.5-5.5,5.5
			c0,3,2.5,5.5,5.5,5.5c2.9,0,5.3-2.3,5.5-5.1C129.2,50.5,128.4,50.8,127.5,50.8z"/>
	</g>
	<g>
		<ellipse style="fill:#FFFFFF;" cx="121.5" cy="51.6" rx="0.6" ry="1"/>
	</g>
</g>
<g>
	<g>
		<path d="M96.6,50.8c1.8,0,3.2-1.4,3.2-3.1c0-1.5-1.1-2.7-2.5-3c0.8-0.4,1.6-0.6,2.5-0.6c3.1,0,5.5,2.5,5.5,5.5
			c0,3-2.5,5.5-5.5,5.5c-2.9,0-5.3-2.3-5.5-5.1C94.9,50.5,95.7,50.8,96.6,50.8z"/>
	</g>
	<g>
		<ellipse style="fill:#FFFFFF;" cx="102.6" cy="51.6" rx="0.6" ry="1"/>
	</g>
</g>
<g>
	<path style="fill:#FBD59A;" d="M85.5,45c0,0-5.5,1.2-4.5,7c0,0.1,1.8,3.4,6.2,3.9c0,0-2.6,11.4,9.6,16.5c0,0.1,8.4,3.2,15.1,3.4
		c0,0,11.2,0,18.7-5.9c0,0,7.9-5.6,5.9-13.8c0,0,7.2-1.3,6.8-5.9c0,0.2,0.4-3.8-4.9-4.8c0,0,0.3,8.6-6.5,12.2c0,0-9.9,3.8-15.5-2.8
		c0,0-2.2-2.9-2.5-7.8c0,0.1-0.2-3-2-2.9c0,0-1.8-0.6-2,3c-0.1,0-0.2,8.7-7.1,11c0,0-9.8,2.7-14.6-3.7C88.3,54.5,85.6,50.2,85.5,45z
		"/>
</g>
<g>
	<path style="fill:#FDF5C9;" d="M85.5,45c0,0-5.5,1.1-4.5,7c0,0,1.4-4.4,4.7-4.6C85.7,47.4,85.6,45.4,85.5,45z"/>
</g>
<g>
	<path style="fill:#FDF5C9;" d="M87.3,55.9c0,0-0.4,0,1.9,0.4c-0.1,0-3.6,10.1,9.9,17C99.1,73.3,85.4,70.4,87.3,55.9z"/>
</g>
<g>
	<path style="fill:#E2B782;" d="M102.9,74.4c0,0,18.1,2.3,27.5-6.7c0.1,0,4.3-3.9,4.5-11.2c0,0.1,1.1-0.8,1.5-2.1c0,0,5.6,0,6.2-6.7
		c0,0,2.2,3-0.4,5.8c0,0-1.2,1.7-5.6,2.8c0,0,1.8,6.9-4.4,12.3C132.2,68.5,122.1,79.4,102.9,74.4z"/>
</g>
<g>
	<path style="fill:#BCD631;" d="M95.4,81.5c0,0-7.1,11.9,7.5,32.3c0,0-0.8-0.2-1.3-0.1C101.5,113.7,85,92,95.4,81.5z"/>
</g>
<g>
	<ellipse style="fill:#FFFFFF;" cx="111.9" cy="92.6" rx="11.4" ry="10.9"/>
</g>
<g>
	<path style="fill:#6FA132;" d="M116.5,114.2c0,0,2.5-1.5,5.2-2.5c-0.1,0.1,6.7-10.8,7.3-13.4c0,0.1-7.5-3.9-24.3-4.1
		c0.1,0.1,8.2-1.9,24.9,1.7c0.1,0.1,1.5-7.9-1.1-14.7c0,0.1,4.8,6,2.3,16.5c-0.1,0.2-2.9,9.1-8.1,15.5c0,0-4.7,1-5.7,3L116.5,114.2z
		"/>
</g>
<g>
	<g>
		<path style="fill-rule:evenodd;clip-rule:evenodd;fill:#5E8C2A;" d="M116.2,91.9c0.4,0.2,0.9,0.2,1.4,0.3c0.6,0.2,1.4,0.5,1.7,0.9
			c0.3,0.4,0.4,1.2,0.2,1.7c-0.3,1.2-1.4,1.6-2.3,1.9c-0.3,0.7-0.7,1.3-1.4,1.4c-1.1,0.2-2.5-0.4-2.9-1.2c-0.3-0.5-0.4-1.1-0.5-1.6
			c-0.3,2,0.3,3.6,0.8,5.2c-0.5,0.1-1.1,0.1-1.6,0.2c-1.3-1.1-1.2-3.2-0.7-5.4c-0.4,0.6-0.7,1.1-1.2,1.6c-0.4,0.4-1.2,1-1.9,0.9
			c-1.2-0.3-1.3-1.8-1.4-2.9c-0.8-0.3-2.3-0.7-2.1-1.7c0.1-0.7,1.1-1.1,1.6-1.4c0.7-0.3,1.5-0.5,2.1-0.6c-1.4-0.5-3-0.9-2.8-2.2
			c0.1-0.6,0.6-1.2,1.1-1.6c0.4-0.4,1-0.6,1.5-1c0.7-0.6,1.4-2.2,2.8-1.7c0.7,0.2,1.1,1,1.4,1.7c0.3,0.7,0.4,1.4,0.4,2.2
			c0.4-1.5,0.8-3,1.9-3.5c1.3-0.6,2.5,0.9,2.9,1.9c1,0.5,2.2,1.1,2.1,2.3c-0.1,0.7-0.6,1.4-1.1,1.8
			C117.5,91.5,116.8,91.8,116.2,91.9z"/>
	</g>
</g>
<g>
	<g>
		<path style="fill:#6FA132;" d="M124.9,94.9c-13.5-2.3-20-0.7-20.1-0.7c9.3,0.1,15.7,1.4,19.6,2.5
			C124.6,96.1,124.8,95.5,124.9,94.9z"/>
	</g>
</g>
<g>
	<path style="fill:#E6E7E8;" d="M119.5,94.2c0,0.3,0,0.5-0.1,0.7c0,0.2-0.2,0.4-0.3,0.6c1.5,0.3,2.4,0.4,3.5,0.7
		c0.2-0.6,0.4-1,0.5-1.6C121.6,94.4,120.8,94.3,119.5,94.2z"/>
</g>
<g>
	<path d="M110.5,61.7c-0.3,0-0.5-0.1-0.7-0.3c-0.2-0.2-1.9-1.7-2-3.7c0-1.1,0.4-2.1,1.3-2.9c0,0,0.1-0.1,0.1-0.1
		c1.3-0.9,4-1.7,6.3,1c0.4,0.5,0.3,1.2-0.1,1.6c-0.5,0.4-1.2,0.3-1.6-0.1c-1.3-1.6-2.6-1-3.1-0.7c-0.4,0.4-0.5,0.8-0.5,1.2
		c0,0.9,0.9,1.8,1.2,2.1c0.5,0.4,0.5,1.1,0.1,1.6C111.2,61.6,110.9,61.7,110.5,61.7z"/>
</g>
<g>
	<path d="M111.2,68.5c-1.4,0-2.3-0.2-2.4-0.2c-0.6-0.1-1-0.7-0.9-1.3c0.1-0.6,0.7-1,1.3-0.9c0.1,0,5.2,0.9,9.2-2.1
		c0.5-0.4,1.2-0.3,1.6,0.2c0.4,0.5,0.3,1.2-0.2,1.6C116.8,68.1,113.4,68.5,111.2,68.5z"/>
</g>
<g>
	<path d="M114.3,71.8c-0.1,0-0.2,0-0.3,0c-1.7-0.4-3.4,0-3.4,0c-0.6,0.2-1.2-0.2-1.4-0.8c-0.2-0.6,0.2-1.2,0.8-1.4
		c0.1,0,2.3-0.6,4.6,0c0.6,0.2,1,0.8,0.8,1.4C115.3,71.5,114.8,71.8,114.3,71.8z"/>
</g>
<g>
	<g>
		<path style="fill:#BCD631;" d="M94.2,76.9c-0.8-0.4-1.3-0.7-1.6-0.9c-3.4,2.5-8.2,7.6-5.2,14.5C87.3,90.5,86.3,82.9,94.2,76.9z"/>
	</g>
	<g>
		<path style="fill:#E97742;" d="M95.8,75.8c0.4-0.3,0.9-0.5,1.4-0.8c0,0-1.8-0.8-1.8-0.8s-0.5,0.3-1.3,0.7
			C94.5,75.1,95.1,75.4,95.8,75.8z"/>
	</g>
</g>
<g>
	<g>
		<path style="fill:#A60F26;" d="M130.4,75.5c-0.6-0.5-1.3-0.9-2.1-1.4l-1.8,0.8c0,0,0.9,0.4,2.1,1.1
			C129.3,75.9,129.8,75.7,130.4,75.5z"/>
	</g>
	<g>
		<path style="fill:#6FA132;" d="M137,83.4c0,0-1.3-3.4-5-6.6c-0.5,0.2-1,0.4-1.5,0.5c3.2,2.4,6.8,6.7,3.7,12.7
			c0,0.1-0.1,3.9-0.1,3.9S139.1,89.2,137,83.4z"/>
	</g>
</g>
<polygon points="122.1,29.5 121.5,25.8 123.7,29.2 123.9,29.5 125.1,27.7 125.3,30.4 128.7,30.6 125.9,31.4 "/>
<g>
	<path d="M210.3,106.1v8.3l1,0.1l-0.1,4.3h-1.7l-0.1-2.6h-5.9l-0.1,2.6h-1.7l-0.1-4.3l0.9-0.1c0.4-0.7,0.7-1.5,1-2.3
		c0.3-1,0.4-2.1,0.4-3.4v-2.7H210.3z M205.8,109.3c0,1.2-0.2,2.3-0.5,3.3c-0.2,0.6-0.4,1.2-0.7,1.7h3.4V108h-2.2V109.3z"/>
	<path d="M218.6,112h-3.7v2.4h4.2v1.9h-6.4v-10.1h6.2v1.9h-4v2.1h3.7V112z"/>
	<path d="M222.6,108h-2.7v-1.9h7.8v1.9h-2.8v8.2h-2.3V108z"/>
	<path d="M235.8,116c-0.4,0.2-1.4,0.4-2.6,0.4c-3.5,0-5.3-2.2-5.3-5.1c0-3.5,2.5-5.4,5.5-5.4c1.2,0,2.1,0.2,2.5,0.5l-0.5,1.8
		c-0.5-0.2-1.1-0.4-1.9-0.4c-1.8,0-3.2,1.1-3.2,3.4c0,2,1.2,3.3,3.2,3.3c0.7,0,1.5-0.1,1.9-0.3L235.8,116z"/>
	<path d="M239.6,106.1v4.2h0.2l2.8-4.2h2.8l-3.5,4.5c1.3,0.3,1.9,1.2,2.3,2.4c0.4,1.1,0.7,2.2,1.2,3.2h-2.5
		c-0.3-0.7-0.5-1.5-0.8-2.2c-0.3-1.1-0.8-2-2-2h-0.4v4.2h-2.3v-10.1H239.6z"/>
	<path d="M248.5,106.1v3c0,1.6,0,3.2-0.1,4.6h0c0.5-1.2,1.2-2.5,1.8-3.6l2.2-4h2.3v10.1h-2.1v-3c0-1.6,0-2.9,0.2-4.3h0
		c-0.5,1.2-1.1,2.5-1.7,3.6l-2.1,3.7h-2.6v-10.1H248.5z"/>
	<path d="M258.9,106.1v3c0,1.6,0,3.2-0.1,4.6h0c0.5-1.2,1.2-2.5,1.8-3.6l2.2-4h2.3v10.1h-2.1v-3c0-1.6,0-2.9,0.2-4.3h0
		c-0.5,1.2-1.1,2.5-1.7,3.6l-2.1,3.7h-2.6v-10.1H258.9z M260.3,103.8c0,0.6,0.2,0.9,0.7,0.9c0.5,0,0.6-0.3,0.7-0.9h1.5
		c-0.1,1.3-0.9,1.8-2.3,1.8c-1.3,0-2.1-0.6-2.2-1.8H260.3z"/>
	<path d="M272.3,106.1v3c0,1.6,0,3.2-0.1,4.6h0c0.5-1.2,1.2-2.5,1.8-3.6l2.2-4h2.3v10.1h-2.1v-3c0-1.6,0-2.9,0.2-4.3h0
		c-0.5,1.2-1.1,2.5-1.7,3.6l-2.1,3.7h-2.6v-10.1H272.3z"/>
	<path d="M282.9,106.1v3.9h3.8v-3.9h2.3v10.1h-2.3V112h-3.8v4.2h-2.3v-10.1H282.9z"/>
	<path d="M292.9,108h-2.7v-1.9h7.8v1.9h-2.8v8.2h-2.3V108z"/>
	<path d="M305.2,112h-3.7v2.4h4.2v1.9h-6.4v-10.1h6.2v1.9h-4v2.1h3.7V112z"/>
	<path d="M307.2,106.3c0.7-0.1,1.7-0.2,3.1-0.2c1.4,0,2.4,0.3,3.1,0.8c0.7,0.5,1.1,1.4,1.1,2.3c0,1-0.3,1.8-0.9,2.4
		c-0.8,0.7-1.9,1.1-3.3,1.1c-0.3,0-0.6,0-0.8-0.1v3.6h-2.3V106.3z M309.5,110.9c0.2,0,0.4,0.1,0.8,0.1c1.2,0,2-0.6,2-1.6
		c0-0.9-0.6-1.5-1.8-1.5c-0.5,0-0.8,0-0.9,0.1V110.9z"/>
	<path d="M318.2,106.1v3.9h3.8v-3.9h2.3v10.1H322V112h-3.8v4.2h-2.3v-10.1H318.2z"/>
	<path d="M332.3,112h-3.7v2.4h4.2v1.9h-6.4v-10.1h6.2v1.9h-4v2.1h3.7V112z"/>
	<path d="M336.3,108h-2.7v-1.9h7.8v1.9h-2.8v8.2h-2.3V108z"/>
	<path d="M344.6,111.5v1.5h-3.9v-1.5H344.6z"/>
	<path d="M354.6,112.4c0-1.2-0.1-2.7-0.1-4.2h0c-0.3,1.3-0.8,2.7-1.1,3.9l-1.2,4h-1.8l-1.1-3.9c-0.3-1.2-0.7-2.6-0.9-4h0
		c0,1.4-0.1,2.9-0.2,4.2l-0.2,3.8h-2.1l0.6-10.1h3.1l1,3.4c0.3,1.2,0.6,2.4,0.9,3.6h0.1c0.3-1.2,0.6-2.5,1-3.6l1.1-3.4h3l0.5,10.1
		h-2.2L354.6,112.4z"/>
	<path d="M361.1,113.6l-0.7,2.6H358l3.1-10.1h3l3.2,10.1h-2.5l-0.8-2.6H361.1z M363.7,111.9l-0.6-2.1c-0.2-0.6-0.4-1.4-0.5-2h0
		c-0.1,0.6-0.3,1.4-0.5,2l-0.6,2.1H363.7z"/>
	<path d="M374.8,106.1v1.9h-3.8v8.3h-2.3v-10.1H374.8z"/>
	<path d="M377.2,113.6l-0.7,2.6h-2.4l3.1-10.1h3l3.2,10.1h-2.5l-0.8-2.6H377.2z M379.8,111.9l-0.6-2.1c-0.2-0.6-0.4-1.4-0.5-2h0
		c-0.1,0.6-0.3,1.4-0.5,2l-0.6,2.1H379.8z"/>
	<path d="M384.4,106.7c0.7-0.4,1.7-0.8,3.2-0.8c2.2,0,3.5,1.1,3.5,2.6c0,1.3-0.9,2.1-2,2.4v0c1.3,0.2,2.4,1.1,2.4,2.4
		c0,2.3-2.3,3.1-4.2,3.1c-1.1,0-2.2-0.2-3-0.7l0.5-1.8c0.5,0.2,1.5,0.6,2.4,0.6c1.2,0,1.9-0.5,1.9-1.3c0-1.1-1.2-1.3-2.1-1.3h-1
		v-1.7h1c1,0,1.8-0.5,1.8-1.3c0-0.7-0.6-1.1-1.5-1.1c-0.8,0-1.7,0.3-2.2,0.6L384.4,106.7z"/>
	<path d="M395,106.1v3c0,1.6,0,3.2-0.1,4.6h0c0.5-1.2,1.2-2.5,1.8-3.6l2.2-4h2.3v10.1h-2.1v-3c0-1.6,0-2.9,0.2-4.3h0
		c-0.5,1.2-1.1,2.5-1.7,3.6l-2.1,3.7h-2.6v-10.1H395z"/>
	<path d="M405.6,106.1v3.9h3.8v-3.9h2.3v10.1h-2.3V112h-3.8v4.2h-2.3v-10.1H405.6z"/>
</g>
</svg>
