<?xml version="1.0" encoding="utf-8"?>
<!-- Generator: Adobe Illustrator 19.0.0, SVG Export Plug-In . SVG Version: 6.00 Build 0)  -->
<svg version="1.1" id="Layer_1" xmlns="http://www.w3.org/2000/svg" xmlns:xlink="http://www.w3.org/1999/xlink" x="0px" y="0px"
	 width="105.9px" height="38.8px" viewBox="-252 377.2 105.9 38.8" style="enable-background:new -252 377.2 105.9 38.8;"
	 xml:space="preserve">
<path style="fill:#D8D8D8;" d="M-146.7,395.6c-0.5,6-0.5,13-6.4,12.1c-1.4-2.5-0.2-6.4,0-9.2c-2.6-1.6-8.9,0.5-10.8-1.9
	c-1-2.3,0.6-4.3,1.3-6.7c1.3-4.5,1.2-9.3,4.1-12.1c0.1-0.3,0.6-0.2,0.6-0.6c0.5,0.3,1.2,0.1,1.6,0.3c4.6,2.7-1.5,9.7,0,13.7
	c3.1,0.7,3-2.2,3.5-4.1c1-4.1,1.6-8,6-8.9C-145.8,382.2-146.1,388.6-146.7,395.6z M-162.6,395.6c0.2,0,0.4,0,0.6,0
	c0-0.2,0-0.4,0-0.6c-0.2,0-0.4,0-0.6,0C-162.6,395.2-162.6,395.4-162.6,395.6z M-159.1,389c-0.5,1.6-2.5,1.8-2.9,3.5
	C-161,392.1-157.8,389.4-159.1,389z M-161,395.3c2.1-0.3,2.6-2.3,3.8-3.5C-159,391.3-160.1,394-161,395.3z M-154,396
	C-155.7,396.7-152.9,396.8-154,396z M-155.9,396.3c-0.3,0-0.6,0-1,0c0,0.2,0,0.4,0,0.6c0.3,0,0.6,0,1,0
	C-155.9,396.7-155.9,396.5-155.9,396.3z M-153.4,391.5c-1,0.7-3.9,2.7-1.6,3.8C-155.3,393.4-152.4,393-153.4,391.5z M-148.9,401
	c-0.2,1.7-1.4,2.4-1.9,3.8C-149.8,404.2-147.8,402.8-148.9,401z M-148.9,398.2c-0.2,0.4-1.6,2.3-1,1.6
	C-149.5,399.5-148.1,398.7-148.9,398.2z M-148.6,395c-0.6,1.5-2.3,2-2.5,3.8C-150.2,399.2-147,396.2-148.6,395z M-152.1,401
	c0,0.4,0,2.3,0.3,1.3C-151.8,401.9-151.7,400-152.1,401z M-151.8,390.9c1.1,0.4,2.1-1.8,1-1.6C-150.6,390.4-152.1,389.7-151.8,390.9
	z M-151.8,389c1.4-0.3,2-1.4,2.5-2.5C-150.5,386.9-151.3,387.7-151.8,389z M-150.2,392.1c1.2-0.2,1.7-1.1,1.9-2.2
	C-149.5,390.1-150.1,390.8-150.2,392.1z M-148.3,392.1c-1,1.5-2.4,2.5-2.9,4.5C-149.9,396.2-147.1,392.8-148.3,392.1z M-177.9,400.7
	c-1.8,0.2-4.3,0.9-6-0.3c0.1-3.6,5.2-4.9,8.9-5.4c2.2-0.3,5.2-0.4,6.4,1.3C-168.4,400.3-174,400.3-177.9,400.7z M-170.2,396.9
	c-0.8,1.2-2.6,1.4-3.5,2.5C-172.1,399.3-169.4,398.5-170.2,396.9z M-175.6,392.1c-0.4,0.1-0.7,0.5-1.3,0.6c-0.6,0.1-0.9-0.4-1.3-0.3
	c-0.8,0.2-1.5,0.9-2.2,1c-1.6,0-3.3-0.6-3.8-1c0.6-5.1,9.4-6.8,14.9-5.4C-167.3,390.5-171.1,391.4-175.6,392.1z M-177.6,390.5
	c-0.8-0.1-1,0.5-1.3,1C-178,391.6-177.5,391.4-177.6,390.5z M-179.1,390.9c0.9-0.7,2.1-1.1,2.5-2.2
	C-177.7,389-179.8,389.9-179.1,390.9z M-175.3,390.2c-0.2,0-0.4,0-0.6,0c0,0.4-0.4,0.4-0.3,1c0.2,0,0.4,0,0.6,0
	C-175.6,390.8-175.2,390.7-175.3,390.2z M-172.8,390.9c0.6,0.4,2.3-0.1,2.2-1.3C-171.5,389.8-172.5,390-172.8,390.9z M-192.5,409.3
	c-3.3,0.7-7.3,2.4-10.2,1c-1.7-3.7,0.9-7.3,3.2-11.8c1.4-2.7,5.8-9.5,2.5-11.1c-3.4-1.7-2.6,3.6-7,2.5c-3-4.4,2.6-9.5,7-9.5
	c5.2-0.1,8.6,4.6,7,9.9c-0.8,2.5-2.5,5.2-4.1,7.3c-1.5,2-4.4,4.1-2.2,7c3.3-0.5,9.2-3.4,11.5,0
	C-185.1,407.9-189.4,408.6-192.5,409.3z M-201.4,383.9c0,0.8-1.6,1.5-0.6,2.2C-201.9,385.5-200.9,384.1-201.4,383.9z M-191.9,390.2
	c1.7-0.3,1.9-5.2,0-5.4C-191.5,386.3-191.3,388.8-191.9,390.2z M-193.8,394.7c0.2,0,0.4,0,0.6,0c0-0.4,0.4-0.4,0.3-1
	c-0.2,0-0.4,0-0.6,0C-193.5,394.1-193.9,394.2-193.8,394.7z M-193.8,393.7c0.1-0.5,0.5-0.5,0.6-1
	C-193.8,392.5-194.6,393.6-193.8,393.7z M-195.4,383.5c-0.8,0-1.2,0.5-1.3,1.3C-195.9,384.7-195.1,384.6-195.4,383.5z M-201.4,404.5
	c-0.6,0.6-1.1,2.9-0.3,3.8C-201.5,407.4-200.6,405.5-201.4,404.5z M-200.8,409.6c0.3,0,0.6,0,1,0c0-0.2,0-0.4,0-0.6
	c-0.3,0-0.6,0-1,0C-200.8,409.2-200.8,409.4-200.8,409.6z M-198.9,402.3c0,0.6-0.9,0.4-0.6,1.3
	C-198.8,403.8-198.2,402.4-198.9,402.3z M-199.8,408c1.2-0.6,2.3-1.3,2.9-2.5C-198.7,405.5-199.6,406.5-199.8,408z M-198.5,409
	c1-0.2,1.6-0.7,1.6-1.9C-197.9,407.3-198.6,407.8-198.5,409z M-195.7,407.1c0.7,0.1,1-0.3,1-1C-195.6,405.9-195.3,406.8-195.7,407.1
	z M-217,403.6c0.1,3.1-0.8,7-5.1,6.7c-1.8-1.1-1.2-4-1-6.4c-2-1-6.1,1.2-7-1.3c0.4-2.5,2.9-3.7,5.4-4.1c1.4-0.3,3.2,0.6,4.1-0.6
	c-0.7-0.7-1.3,0.4-1.9-0.6c-0.8-4.8,2.2-8.7,5.1-7.3c2.2,1.1,1.5,4.7,1.3,8c1.8,0.5,6-0.8,6.7,1.6C-209.8,403-214.9,401.7-217,403.6
	z M-227.5,402.3c-0.9-0.4,0.8-0.8,0.6-1.6C-228.2,400.2-228.6,403.4-227.5,402.3z M-225.3,403c0.5-0.5,1.3-0.8,1.3-1.9
	C-224.9,401.2-226.6,402.5-225.3,403z M-222.1,407.7c1,0.5,1-2.1,0-1.6C-222.1,406.7-222.1,407.2-222.1,407.7z M-223.4,401.7
	c1.6-0.2,2.7-0.9,2.9-2.5C-221.6,398.6-222.8,400.7-223.4,401.7z M-221.1,403.6c0.1-0.8,0.9-1,1-1.9
	C-221.2,401.6-222.3,403.3-221.1,403.6z M-220.2,393.1c0.1-0.6,0.9-0.6,1-1.3C-219.9,391.7-221,392.8-220.2,393.1z M-221.4,405.2
	c1.3-0.3,2.2-1,2.5-2.2C-220,403.4-221.4,403.6-221.4,405.2z M-216,402c0.8-0.6,2.6-0.3,3.5-1C-213.8,400.1-216.4,401.4-216,402z
	 M-211,399.8c-1-0.1-0.9,0.8-1.3,1.3C-211.5,400.9-210.7,400.8-211,399.8z M-243.1,410.3c1.1,0.8,2.6-0.8,4.5-0.6
	c1.2,0.1,3.5,1.3,3.5,1.9c0,0.6-2.5,2.3-3.2,2.5c-2.8,1-7.9,0.3-9.9,1.9c-1.1-0.8-2.9-0.9-3.8-1.9c-0.3-7.1,7.5-10.5,10.5-15
	c0.3-0.5,0.2-1.4,0.6-2.2c0.6-1.2,2.3-3.5,1.6-6.4c-0.8-3.1-5.3-1.9-7.3,0.3c-0.6,0.7-1.5,4.1-2.9,4.1c-1,0.1-2.1-1.6-2.2-2.9
	c-1.1-8.4,14.1-9.2,17.8-3.8c1.4,2,1.4,4.9,1.3,6.4C-233.4,402.2-241.8,404-243.1,410.3z M-237.7,412.2c0.2,0,0.4,0,0.6,0
	c0-0.2,0-0.4,0-0.6c-0.2,0-0.4,0-0.6,0C-237.7,411.8-237.7,412-237.7,412.2z M-235.8,398.2c0.4-0.5,2.3-1.1,1.3-1.9
	C-234.6,397-236.4,397.7-235.8,398.2z M-237.7,399.5c-0.2-0.6,1.8-0.7,0.6-1.3C-237.1,398.6-238.7,399-237.7,399.5z M-238.6,399.8
	C-240.9,400.9-237.7,399.3-238.6,399.8z M-249.8,413.4c0,0.9,1.9,1.3,1.9,0.3C-248.6,413.8-248.8,413.2-249.8,413.4z M-243.4,407.1
	c-1.5,1.9-5.7,2.8-5.4,5.4C-247.2,410.7-243.6,409.2-243.4,407.1z M-243.4,403.6c-1.7,1.7-3.8,3-4.8,5.4c2.6-0.8,3.6-3.2,5.4-4.8
	C-242.8,403.8-242.9,403.5-243.4,403.6z M-243.1,402.3c1.1,0.1,1.7-0.5,1.6-1.6C-242.4,400.9-242.9,401.4-243.1,402.3z
	 M-241.8,404.5c0.8,0,2-1.1,1.3-1.6C-240.9,403.6-241.9,403.5-241.8,404.5z M-238.6,386.7c0,0.5-0.8,0.2-0.6,1
	C-238.6,388-237.8,386.9-238.6,386.7z M-236.1,388c-0.5,0.7-1.6,0.7-1.6,1.9C-236.6,390.1-235.3,388.7-236.1,388z M-233.9,391.5
	c-0.3,0-0.6,0-1,0c2.1,4.6-4.2,5-6,8.3c2.5,0,4.4-4.4,7.3-4.1C-233.9,394.1-233.2,393.1-233.9,391.5z"/>
</svg>
