<?xml version="1.0" encoding="utf-8"?>
<!-- Generator: Adobe Illustrator 19.0.0, SVG Export Plug-In . SVG Version: 6.00 Build 0)  -->
<svg version="1.1" id="Layer_1" xmlns="http://www.w3.org/2000/svg" xmlns:xlink="http://www.w3.org/1999/xlink" x="0px" y="0px"
	 width="40.7px" height="41px" viewBox="-285 376 40.7 41" style="enable-background:new -285 376 40.7 41;" xml:space="preserve">
<path style="fill:#FB890E;" d="M-264.7,417c-11.2,0-20.3-9.2-20.3-20.5c0-11.3,9.1-20.5,20.3-20.5c11.2,0,20.3,9.2,20.3,20.5
	C-244.3,407.8-253.4,417-264.7,417z M-264.6,382.2c-4,0-7.2,3.2-7.2,7.2c0,4,3.2,7.2,7.1,7.2c4,0,7.2-3.2,7.2-7.1
	C-257.5,385.5-260.7,382.2-264.6,382.2z M-256.5,397.4c-0.4-0.7-1.1-0.9-1.9-0.8c-0.4,0.1-0.7,0.3-1,0.5c-3.2,2.1-7.5,2.1-10.7-0.1
	c-0.2-0.1-0.3-0.2-0.5-0.3c-0.9-0.4-1.7-0.2-2.2,0.5c-0.6,0.8-0.5,1.7,0.2,2.4c0.2,0.2,0.4,0.3,0.6,0.5c1.7,1.3,3.7,1.9,5.9,2.1
	c-0.2,0.2-0.3,0.3-0.4,0.4c-1.6,1.6-3.2,3.3-4.8,4.9c-0.3,0.3-0.6,0.7-0.6,1.2c0,0.7,0.4,1.4,1.1,1.8c0.7,0.3,1.3,0.2,1.9-0.3
	c1.3-1.3,2.5-2.5,3.8-3.8c0.3-0.3,0.5-0.4,0.8,0c1.2,1.3,2.5,2.5,3.7,3.7c0.3,0.3,0.7,0.6,1.1,0.6c0.7,0.1,1.5-0.4,1.8-1.1
	c0.3-0.7,0.2-1.4-0.4-1.9c-1.6-1.7-3.3-3.3-4.9-5c-0.1-0.1-0.2-0.2-0.4-0.4c1.2-0.1,2.4-0.4,3.5-0.8c1.2-0.5,2.2-1.1,3.1-2
	C-256.1,398.9-256,398.2-256.5,397.4z M-264.7,393c-1.9,0-3.5-1.5-3.5-3.5c0-2,1.5-3.6,3.5-3.6c1.9,0,3.5,1.6,3.5,3.5
	C-261.2,391.4-262.7,393-264.7,393z"/>
</svg>
