<?xml version="1.0" encoding="utf-8"?>
<!-- Generator: Adobe Illustrator 19.0.0, SVG Export Plug-In . SVG Version: 6.00 Build 0)  -->
<svg version="1.1" id="Layer_1" xmlns="http://www.w3.org/2000/svg" xmlns:xlink="http://www.w3.org/1999/xlink" x="0px" y="0px"
	 width="19px" height="19px" viewBox="-296 387 19 19" style="enable-background:new -296 387 19 19;" xml:space="preserve">
<path style="fill:#FB890E;" d="M-286.5,406c-5.2,0-9.5-4.3-9.5-9.5c0-5.2,4.3-9.5,9.5-9.5c5.2,0,9.5,4.3,9.5,9.5
	C-277,401.7-281.3,406-286.5,406z M-286.5,389.9c-1.8,0-3.3,1.5-3.4,3.3c0,1.8,1.5,3.3,3.3,3.4c1.8,0,3.4-1.5,3.4-3.3
	C-283.2,391.4-284.6,389.9-286.5,389.9z M-282.7,396.9c-0.2-0.3-0.5-0.4-0.9-0.3c-0.2,0-0.3,0.1-0.5,0.2c-1.5,1-3.5,1-5,0
	c-0.1,0-0.1-0.1-0.2-0.1c-0.4-0.2-0.8-0.1-1,0.2c-0.3,0.4-0.2,0.8,0.1,1.1c0.1,0.1,0.2,0.2,0.3,0.2c0.8,0.6,1.7,0.9,2.7,1
	c-0.1,0.1-0.1,0.1-0.2,0.2c-0.8,0.8-1.5,1.5-2.3,2.3c-0.2,0.2-0.3,0.3-0.3,0.6c0,0.3,0.2,0.7,0.5,0.8c0.3,0.2,0.6,0.1,0.9-0.2
	c0.6-0.6,1.2-1.2,1.8-1.8c0.1-0.1,0.2-0.2,0.4,0c0.6,0.6,1.1,1.2,1.7,1.7c0.1,0.2,0.3,0.3,0.5,0.3c0.3,0,0.7-0.2,0.8-0.5
	c0.1-0.3,0.1-0.6-0.2-0.9c-0.8-0.8-1.5-1.5-2.3-2.3c-0.1-0.1-0.1-0.1-0.2-0.2c0.6-0.1,1.1-0.2,1.6-0.4c0.5-0.2,1-0.5,1.4-0.9
	C-282.5,397.6-282.5,397.3-282.7,396.9z M-286.5,394.9c-0.9,0-1.6-0.7-1.6-1.6c0-0.9,0.7-1.7,1.6-1.7c0.9,0,1.6,0.7,1.6,1.6
	C-284.9,394.1-285.6,394.9-286.5,394.9z"/>
</svg>
