<?xml version="1.0" encoding="utf-8"?>
<!-- Generator: Adobe Illustrator 19.0.0, SVG Export Plug-In . SVG Version: 6.00 Build 0)  -->
<svg version="1.1" id="Layer_1" xmlns="http://www.w3.org/2000/svg" xmlns:xlink="http://www.w3.org/1999/xlink" x="0px" y="0px"
	 width="32px" height="29.1px" viewBox="-289 382.9 32 29.1" style="enable-background:new -289 382.9 32 29.1;"
	 xml:space="preserve">
<path style="fill:#8BC53E;" d="M-258,390.4c-0.7,1.1-1.8,2.5-3.2,4.1c-0.8,1-1.7,2-2.6,3.1c0,3.8-1.5,7.4-4.2,10.1
	c-2.7,2.7-6.4,4.3-10.3,4.3c0,0,0,0,0,0c-2.1,0-4.7-0.8-6.8-2c-2.5-1.5-3.9-3.5-3.9-5.6c0-2.6,1.4-3.6,2.6-4.5
	c0.9-0.7,1.7-1.3,1.7-2.5c0-1.2-0.7-1.8-1.7-2.5c-1.1-0.9-2.6-1.9-2.6-4.5c0-2.1,1.4-4.1,3.9-5.6c2-1.2,4.6-2,6.8-2c0,0,0,0,0,0
	c3.2,0,6.2,1,8.7,2.9c2.2,1.7,3.9,3.9,4.9,6.5c0.1-0.1,0.2-0.2,0.3-0.3c5.4-4.7,6.3-4.7,6.7-4.7c0.3,0,0.5,0.1,0.6,0.2
	C-256.7,388.1-257.1,389-258,390.4z M-270.4,386.8c-2.3-1.7-5.1-2.7-8-2.7c0,0,0,0,0,0c-1.9,0-4.3,0.7-6.2,1.8
	c-1.2,0.7-3.3,2.3-3.3,4.6c0,2,1,2.7,2.1,3.5c1,0.8,2.2,1.6,2.2,3.4c0,1.8-1.1,2.7-2.2,3.4c-1.1,0.8-2.1,1.6-2.1,3.5
	c0,3.7,5.7,6.4,9.5,6.4c0,0,0,0,0,0c3.6,0,6.9-1.4,9.4-3.9c2.1-2.1,3.5-4.9,3.8-7.8c-1.5,1.7-3.1,3.4-4.4,4.8
	c-0.4,1.7-1.2,3-2.4,3.9c-1,0.7-2.1,1-3.5,1c0,0,0,0,0,0c-2,0-3.7-0.7-3.7-0.7c-0.3-0.1-0.4-0.4-0.4-0.6c0-0.3,0.3-0.5,0.5-0.5
	c1.1-0.1,1.3-0.8,1.6-2.2c0.3-1.7,0.8-4,4.2-4.5c2.1-2.1,4.8-4.7,7.4-7C-266.6,390.6-268.2,388.4-270.4,386.8z M-270.7,403.7
	l-2.4-2.4c-2.5,0.4-2.8,1.9-3.1,3.5c-0.2,0.8-0.4,1.8-1,2.5c0.5,0.1,1.2,0.2,1.8,0.2l0,0C-272.9,407.5-271.4,406.2-270.7,403.7z
	 M-263.8,393c-0.3,0.2-0.6,0.5-0.9,0.8c-2.5,2.2-5.2,4.8-7.4,6.9l1.6,1.6l0.4,0.4c2.3-2.4,5.2-5.6,7.5-8.4c2.5-3,3.6-4.6,4-5.4
	C-259.3,389.4-260.8,390.5-263.8,393z M-269.1,395.9c-0.4,0.2-0.7,0.3-1.1,0.3c-1,0-1.9-0.6-2.3-1.5c-0.3-0.6-0.3-1.3-0.1-2
	c0.2-0.7,0.7-1.2,1.3-1.5c0.4-0.2,0.7-0.3,1.1-0.3c1,0,1.9,0.6,2.3,1.5c0.3,0.6,0.3,1.3,0.1,2C-268,395.1-268.5,395.6-269.1,395.9z
	 M-269,392.9c-0.2-0.5-0.7-0.8-1.3-0.8c-0.2,0-0.4,0-0.6,0.1c-0.3,0.2-0.6,0.5-0.7,0.8c-0.1,0.4-0.1,0.7,0.1,1.1
	c0.2,0.5,0.7,0.8,1.3,0.8c0.2,0,0.4,0,0.6-0.1c0.3-0.2,0.6-0.5,0.7-0.8C-268.8,393.6-268.8,393.3-269,392.9z M-276.1,392
	c-0.2,0-0.4,0-0.6-0.1c-0.7-0.2-1.3-0.6-1.6-1.2c-0.4-0.6-0.5-1.3-0.3-2c0.3-1.2,1.3-2,2.5-2c0.2,0,0.4,0,0.6,0.1
	c0.7,0.2,1.3,0.6,1.6,1.2c0.4,0.6,0.5,1.3,0.3,2C-273.8,391.2-274.9,392-276.1,392z M-274.9,388.6c-0.2-0.3-0.5-0.5-0.9-0.6
	c-0.1,0-0.2,0-0.3,0c-0.7,0-1.2,0.5-1.4,1.1c-0.1,0.4,0,0.7,0.2,1.1c0.2,0.3,0.5,0.5,0.9,0.6c0.1,0,0.2,0,0.3,0
	c0.7,0,1.2-0.5,1.4-1.1C-274.6,389.3-274.7,389-274.9,388.6z M-282.3,406.9c-0.6,0-1.2-0.2-1.6-0.6c-0.5-0.4-0.9-1.1-1-1.7
	c-0.1-0.7,0.1-1.4,0.6-1.9c0.5-0.6,1.2-1,2-1c0.6,0,1.2,0.2,1.6,0.6c0.5,0.4,0.9,1.1,1,1.8c0.1,0.7-0.1,1.4-0.6,1.9
	C-280.7,406.6-281.5,406.9-282.3,406.9z M-281.4,403.2c-0.3-0.2-0.6-0.3-0.9-0.3c-0.4,0-0.8,0.2-1.1,0.5c-0.2,0.3-0.3,0.7-0.3,1
	c0,0.4,0.2,0.7,0.5,0.9c0.3,0.2,0.6,0.3,0.9,0.3c0.4,0,0.8-0.2,1.1-0.5c0.2-0.3,0.3-0.7,0.3-1C-280.9,403.8-281.1,403.4-281.4,403.2
	z M-281.4,393.4c-0.5,0.4-1,0.6-1.6,0.6c-0.8,0-1.5-0.4-2-1c-0.4-0.5-0.6-1.2-0.6-1.9c0.1-0.7,0.4-1.3,1-1.7c0.5-0.4,1-0.6,1.6-0.6
	c0.8,0,1.5,0.4,2,1c0.4,0.5,0.6,1.2,0.6,1.9C-280.5,392.4-280.8,393-281.4,393.4z M-281.9,390.5c-0.3-0.3-0.7-0.5-1.1-0.5
	c-0.3,0-0.6,0.1-0.9,0.3c-0.3,0.2-0.5,0.6-0.5,0.9c0,0.4,0.1,0.7,0.3,1c0.3,0.3,0.7,0.5,1.1,0.5c0.3,0,0.6-0.1,0.9-0.3
	c0.3-0.2,0.5-0.6,0.5-0.9C-281.5,391.2-281.7,390.8-281.9,390.5z"/>
</svg>
