<?xml version="1.0" encoding="utf-8"?>
<!-- Generator: Adobe Illustrator 19.0.0, SVG Export Plug-In . SVG Version: 6.00 Build 0)  -->
<svg version="1.1" id="Layer_1" xmlns="http://www.w3.org/2000/svg" xmlns:xlink="http://www.w3.org/1999/xlink" x="0px" y="0px"
	 width="58px" height="58px" viewBox="-276 368 58 58" style="enable-background:new -276 368 58 58;" xml:space="preserve">
<path style="fill:#FFFFFF;" d="M-220.6,375.4C-220.6,375.5-220.6,375.5-220.6,375.4l-3.6,8.7c0,0.1-0.1,0.2-0.2,0.3c0,0,0,0,0,0
	c0,0,0,0,0,0l-41.3,41.3c-0.2,0.2-0.4,0.3-0.7,0.3s-0.5-0.1-0.7-0.3l-8.7-8.7c-0.2-0.2-0.3-0.4-0.3-0.7c0-0.2,0.1-0.5,0.3-0.7
	l41.3-41.3c0,0,0,0,0,0c0,0,0,0,0,0c0.1-0.1,0.2-0.1,0.3-0.2l8.7-3.6c0,0,0,0,0,0l6.2-2.5c0.3-0.1,0.7-0.1,1,0.2
	c0.3,0.3,0.3,0.7,0.2,1L-220.6,375.4z M-234.1,376.7l-39.7,39.7l3.1,3.1l12.4-12.4c0.4-0.4,0.9-0.4,1.3,0c0.4,0.4,0.4,0.9,0,1.3
	l-12.4,12.4l3.1,3.1l39.7-39.7c-0.4-0.2-0.8-0.6-1.2-0.9c-0.7-0.7-1.2-1.6-1.5-2.5l-24.2,24.2c-0.2,0.2-0.4,0.3-0.7,0.3
	c-0.2,0-0.5-0.1-0.7-0.3c-0.4-0.4-0.4-0.9,0-1.3l24.2-24.2c-0.9-0.3-1.8-0.8-2.5-1.5C-233.5,377.5-233.8,377.1-234.1,376.7z
	 M-232.6,375.5c0.2,0.4,0.4,0.7,0.7,1c0.9,0.9,2.1,1.3,3.2,1.1c0.3-0.1,0.6,0,0.8,0.3c0.2,0.2,0.3,0.5,0.3,0.8
	c-0.2,1.1,0.2,2.3,1.1,3.2c0.3,0.3,0.6,0.5,1,0.7l3-7.3l-2.8-2.8L-232.6,375.5z M-223.5,371.8l1.7,1.7l1.2-2.8L-223.5,371.8z
	 M-250.3,386.3l-9.6-9.6c-0.2,0.4-0.6,0.8-0.9,1.2c-0.7,0.7-1.6,1.2-2.5,1.5l10,10c0.4,0.4,0.4,0.9,0,1.3c-0.2,0.2-0.4,0.3-0.7,0.3
	s-0.5-0.1-0.7-0.3l-10-10c-0.3,0.9-0.8,1.8-1.5,2.5c-0.4,0.4-0.8,0.7-1.2,0.9l9.6,9.6c0.4,0.4,0.4,0.9,0,1.3
	c-0.2,0.2-0.4,0.3-0.7,0.3s-0.5-0.1-0.7-0.3l-10.6-10.6c0,0,0,0,0,0c0,0,0,0,0,0c-0.1-0.1-0.1-0.2-0.2-0.3l-3.6-8.7c0,0,0,0,0,0
	l-2.5-6.2c-0.1-0.3-0.1-0.7,0.2-1c0.3-0.3,0.7-0.3,1-0.2l6.2,2.5c0,0,0,0,0,0l8.7,3.6c0.1,0,0.2,0.1,0.3,0.2c0,0,0,0,0,0
	c0,0,0,0,0,0L-249,385c0.4,0.4,0.4,0.9,0,1.3C-249.3,386.7-249.9,386.7-250.3,386.3z M-273.4,370.6l1.2,2.8l1.7-1.7L-273.4,370.6z
	 M-268.7,372.6l-2.8,2.8l3,7.3c0.4-0.2,0.7-0.4,1-0.7c0.9-0.9,1.3-2.1,1.1-3.2c-0.1-0.3,0-0.6,0.3-0.8c0.2-0.2,0.5-0.3,0.8-0.3
	c1.1,0.2,2.3-0.2,3.2-1.1c0.3-0.3,0.5-0.6,0.7-1L-268.7,372.6z M-235,409c-0.2,0.2-0.4,0.3-0.7,0.3s-0.5-0.1-0.7-0.3l-4.4-4.4
	c-0.4-0.4-0.4-0.9,0-1.3c0.4-0.4,0.9-0.4,1.3,0l4.4,4.4C-234.6,408.1-234.6,408.6-235,409z M-243.7,407.7l16.1,16.1l3.1-3.1
	l-7.4-7.4c-0.4-0.4-0.4-0.9,0-1.3c0.4-0.4,0.9-0.4,1.3,0l7.4,7.4l3.1-3.1l-16.1-16.1c-0.4-0.4-0.4-0.9,0-1.3c0.4-0.4,0.9-0.4,1.3,0
	l16.7,16.7c0.4,0.4,0.4,0.9,0,1.3l-8.7,8.7c-0.2,0.2-0.4,0.3-0.7,0.3s-0.5-0.1-0.7-0.3L-245,409c-0.4-0.4-0.4-0.9,0-1.3
	C-244.7,407.3-244.1,407.3-243.7,407.7z"/>
</svg>
