<?xml version="1.0" encoding="utf-8"?>
<!-- Generator: Adobe Illustrator 19.0.0, SVG Export Plug-In . SVG Version: 6.00 Build 0)  -->
<svg version="1.1" id="Layer_1" xmlns="http://www.w3.org/2000/svg" xmlns:xlink="http://www.w3.org/1999/xlink" x="0px" y="0px"
	 width="68.4px" height="65.8px" viewBox="-271 364.2 68.4 65.8" style="enable-background:new -271 364.2 68.4 65.8;"
	 xml:space="preserve">
<path style="fill:#D8D8D8;" d="M-202.7,364.2c0.2,2.2-0.8,4.6-1.5,6.6c-4.3,12.8-7.2,27.5-10.7,42.3c-1,4-2,7.7-2.2,12.9
	c-6-1.8-10.5-5.1-15.8-7.7c-2,1.3-2.8,3.7-4,5.9c-1.1,2-1.8,4.6-3.7,5.9c-3.2-2.6-3.7-7.9-5.1-12.5c-0.4-1.3-1.3-2.6-1.8-4
	c-0.6-1.4-0.7-2.9-1.5-4c-2.7-4-7.9-4.8-12.5-6.6c-1.6-0.7-3.1-1.9-4.8-2.6c-1.6-0.7-3.7-0.6-4.8-2.2c9-8,21.8-10.8,33.1-16.5
	c5.6-2.9,11.3-5.5,16.9-8.1c6.3-2.9,12.5-5.1,17.6-9.2C-203.1,364.2-202.9,364.2-202.7,364.2L-202.7,364.2z M-242.3,416.8
	L-242.3,416.8c1.3-1.4,1.5-3.9,4-4c0.8-1.4-0.5-1-0.4-2.6c0.3-2.4,1.9-5.5,1.5-7.3c-2.3,2.1-1.2,9.6-4.4,9.5c0.4-0.8,1.3-3,0.4-4
	c-0.4,3-2.6,4.2-2.9,7.4c1.6,0.1,1-2,2.2-2.2C-242.1,414.3-244.1,416.5-242.3,416.8L-242.3,416.8z M-220.7,374.9L-220.7,374.9
	c-4.2,2-8.7,3.8-12.9,5.9c-12.1,6.1-24.8,9.8-34.5,17.3c6.5,3.1,14.2,4.9,19.1,9.6c15.1-11.7,29.2-24.5,41.9-38.6
	c0-0.2-0.1-0.4-0.4-0.4C-211.8,370.4-216,372.7-220.7,374.9L-220.7,374.9z M-237.6,413.8L-237.6,413.8c5.1,3.4,11.3,5.6,16.9,8.5
	c3-17.3,9.3-31.4,12.9-48.1c0.4,0,0.3-0.5-0.4-0.4C-217.5,387.6-229,399.3-237.6,413.8L-237.6,413.8z M-215.9,380.4L-215.9,380.4
	c1.4-1.4,4.6-3,4.4-4.8C-213,376.7-215.9,380.2-215.9,380.4L-215.9,380.4z M-222.5,390L-222.5,390c-0.1-1.2,1-1.2,0.7-2.6
	C-223,387.2-223.8,389.8-222.5,390L-222.5,390z M-225.8,392.5L-225.8,392.5c0-0.2,0.1-0.4,0.4-0.4c0-0.4-0.1-0.9-0.7-0.7
	C-226.1,391.9-226.2,392.5-225.8,392.5L-225.8,392.5z M-229.8,394.4L-229.8,394.4c1,0.1,1.2-0.5,1.1-1.5
	C-229.7,392.9-230.5,393.7-229.8,394.4L-229.8,394.4z M-227.6,395.8L-227.6,395.8c0.8,0.9,3.3-1.9,1.5-2.6
	C-226.6,394.2-227.6,394.5-227.6,395.8L-227.6,395.8z M-235.7,398.4L-235.7,398.4c1.5-0.8,3-1.7,4-2.9
	C-233.4,396-234.5,397.3-235.7,398.4L-235.7,398.4z M-232.4,402.4L-232.4,402.4c2.3-0.3,2.9-5.7,2.2-6.6
	C-231.6,397.4-232.4,399.5-232.4,402.4L-232.4,402.4z M-233.5,401.7L-233.5,401.7c0-0.9,2-3.1,0.4-3.3
	C-232.8,399.7-234.7,400.7-233.5,401.7L-233.5,401.7z M-237.9,410.5L-237.9,410.5c2.5-0.8,2.4-4.6,2.9-7.3c0.3-1.6,1.6-3.5,0.4-4
	C-236.6,402-236.9,406.6-237.9,410.5L-237.9,410.5z M-245.3,412L-245.3,412c0.6-2.9,3.6-5.1,2.9-8.1c0.9-0.1,3.3-2.1,1.8-2.2
	C-243.1,403.9-245.9,407.8-245.3,412L-245.3,412z M-234.6,405.8L-234.6,405.8c1.1-0.1,1.1-3.3,0.7-3.7
	C-234.4,403.1-234.8,404.1-234.6,405.8L-234.6,405.8z M-241.6,407.6L-241.6,407.6c1.8-0.3,2.7-3.4,2.2-4.8
	C-240.9,403.7-241.5,405.3-241.6,407.6L-241.6,407.6z M-246.7,409.8L-246.7,409.8c0.2-0.2,0.9-1.7,0-1.8
	C-247,408.2-247.6,409.7-246.7,409.8L-246.7,409.8z M-244.5,414.2L-244.5,414.2c0.3-1.8,2.5-3.7,1.5-5.5
	C-243.9,409.9-245.3,412.5-244.5,414.2L-244.5,414.2z M-237.9,417.5L-237.9,417.5c0.1-0.2,0.9-1.4,0-1.5
	C-237.6,416.7-239,417.3-237.9,417.5L-237.9,417.5z M-243.1,420.8L-243.1,420.8c0.7-1.2,0-4.2-1.5-4.4
	C-245,417.5-244.3,420.2-243.1,420.8L-243.1,420.8z M-238.3,422.7L-238.3,422.7c0.7-2.1,2.8-2.8,2.6-5.9
	C-238.8,416.9-238.8,420.8-238.3,422.7z"/>
</svg>
