<?xml version="1.0" encoding="utf-8"?>
<!-- Generator: Adobe Illustrator 19.0.0, SVG Export Plug-In . SVG Version: 6.00 Build 0)  -->
<svg version="1.1" id="Layer_1" xmlns="http://www.w3.org/2000/svg" xmlns:xlink="http://www.w3.org/1999/xlink" x="0px" y="0px"
	 width="25px" height="34.1px" viewBox="-292 379.9 25 34.1" style="enable-background:new -292 379.9 25 34.1;"
	 xml:space="preserve">
<path style="fill:#8BC53E;" d="M-272.2,397.5c0.9,0,1.7,0.4,2.3,1.2c0.1,0.1,0.2,0.2,0.4,0.2h2c0.3,0,0.5-0.2,0.5-0.5v-9.6
	c0-0.3-0.2-0.5-0.5-0.5h-9.5v-1.3c0.9-0.8,1.3-1.8,1.3-3c0-2.2-1.7-4-3.8-4c-2.1,0-3.8,1.8-3.8,4c0,1.2,0.5,2.3,1.3,3v1.3h-9.5
	c-0.3,0-0.5,0.2-0.5,0.5v9.6c0,0.3,0.2,0.5,0.5,0.5h2c0.2,0,0.3-0.1,0.4-0.2c0.5-0.7,1.4-1.2,2.3-1.2c1.6,0,2.8,1.3,2.8,2.9
	c0,1.6-1.3,2.9-2.8,2.9c-0.9,0-1.7-0.4-2.3-1.2c-0.1-0.1-0.2-0.2-0.4-0.2h-2c-0.3,0-0.5,0.2-0.5,0.5v11c0,0.3,0.2,0.5,0.5,0.5h10
	c0.3,0,0.5-0.2,0.5-0.5v-1.4c0-0.2-0.1-0.3-0.2-0.4c-0.7-0.6-1.1-1.4-1.1-2.3c0-1.6,1.3-2.9,2.8-2.9s2.8,1.3,2.8,2.9
	c0,0.9-0.4,1.8-1.1,2.3c-0.1,0.1-0.2,0.3-0.2,0.4v1.4c0,0.3,0.2,0.5,0.5,0.5h10c0.3,0,0.5-0.2,0.5-0.5v-11c0-0.3-0.2-0.5-0.5-0.5h-2
	c-0.2,0-0.3,0.1-0.4,0.2c-0.5,0.7-1.4,1.2-2.3,1.2c-1.6,0-2.8-1.3-2.8-2.9C-275,398.8-273.7,397.5-272.2,397.5z M-276,400.4
	c0,2.2,1.7,4,3.8,4c1.1,0,2.2-0.5,2.9-1.4h1.2v9.9h-9v-0.6c0.9-0.8,1.3-1.8,1.3-3c0-2.2-1.7-4-3.8-4c-2.1,0-3.8,1.8-3.8,4
	c0,1.2,0.5,2.3,1.3,3v0.6h-9V403h1.2c0.7,0.9,1.8,1.4,2.9,1.4c2.1,0,3.8-1.8,3.8-4s-1.7-4-3.8-4c-1.1,0-2.2,0.5-2.9,1.4h-1.2v-8.6
	h9.5c0.3,0,0.5-0.2,0.5-0.5v-2.1c0-0.2-0.1-0.3-0.2-0.4c-0.7-0.6-1.1-1.4-1.1-2.3c0-1.6,1.3-2.9,2.8-2.9s2.8,1.3,2.8,2.9
	c0,0.9-0.4,1.8-1.1,2.3c-0.1,0.1-0.2,0.3-0.2,0.4v2.1c0,0.3,0.2,0.5,0.5,0.5h9.5v8.6h-1.2c-0.7-0.9-1.8-1.4-2.9-1.4
	C-274.3,396.4-276,398.2-276,400.4z"/>
</svg>
