<?xml version="1.0" encoding="utf-8"?>
<!-- Generator: Adobe Illustrator 19.0.0, SVG Export Plug-In . SVG Version: 6.00 Build 0)  -->
<svg version="1.1" id="Layer_1" xmlns="http://www.w3.org/2000/svg" xmlns:xlink="http://www.w3.org/1999/xlink" x="0px" y="0px"
	 width="72.1px" height="77.9px" viewBox="-269 358.1 72.1 77.9" style="enable-background:new -269 358.1 72.1 77.9;"
	 xml:space="preserve">
<path style="fill:#D8D8D8;" d="M-205.2,385c-3.1,4.1-7.7,9.7-11.6,14.9c-2.9,3.8-5.7,7.9-8.8,11.8c-6.8,8.7-17,16.3-23.2,24.2
	c-1.1,0.2-2.2-0.8-3.2,0.1c-3.2-3.7-9.7-6.4-13-11.4c0.8-2.3,4.7-4.8,5.5-7.2c-0.5-2.8-2.8-4.2-4-6.2c-0.7-1.2-1.2-2.8-1.8-4.2
	c-3.2-6.9-4.9-12.6-3-20.1c2-7.9,3.5-14.9,13.4-21.9c10.9-7.6,22.8-10.4,34.6-1c1,0.8,2.4,1.4,2.3,3.1c1.8-1.1,4.4-4.7,6.9-5.9
	c5.8,5.6,9.5,8.1,14.1,11.9C-199.1,377.4-202.2,381-205.2,385z M-216.9,397.2c0.9-0.9,1.9-1.9,1.5-2.7
	C-215.8,395.4-218.1,396.4-216.9,397.2z M-225.8,406.9c-1.7,1.3-3.6,3.1-3.5,4.9C-227.7,410.2-226.1,408.5-225.8,406.9z M-234.3,419
	c0.5-0.5,2.6-1.1,2-2.7c-1.3,1.5-2.7,2.8-3.3,3.6C-237.1,421.9-235.3,420-234.3,419z M-243,426.8
	C-245.6,429.5-241.8,425.5-243,426.8z M-240.3,359.9c-0.5,0.3-1.1,0.3-1.6,0.6C-241.5,361.4-239.8,360.7-240.3,359.9z M-213,364.5
	c-2.7,0.9-3.9,5-5.8,6.4c-1.1-1-2.2-2-3.3-3.1c-1.9,1.7,0.8,3.2-0.9,4.8c-1.8-1.3-0.3-4.3-1.6-6.1c-1.3-1.7-3.5-2.3-5.7-2.7
	c-0.4,1.6,1,3.2,0.2,4.8c-2.1-1.8-0.5-3.7-2.1-5.5c-2.4-0.7-4.9-1.6-7.2-0.5c0.2,1.3,2,2.6,1.5,3.9c-2.5,0.5-2-3.1-3.1-4.4
	c-1.6,0.8-3.4-0.2-5,1.5c-0.4,1.3,2,2.4,0.7,3.7c-1.9-0.2-0.6-2.5-2.3-3.6c-2.2,1.4-4.3,2.4-6.4,4.8c0.1,1.3,2.3,1.8,2.2,2.6
	c-1.6,1.8-2.1-0.7-3.5-1.7c-1.1,1.2-2.2,2.4-3.3,3.6c1,1.2,3.6,2.3,1.8,3.7c-0.9-0.8-1.9-1.7-2.8-2.5c-2,2.4-4.1,5.4-5.5,8.8
	c1.3,0.9,3.9,0.2,3,2.3c-1.1,1.1-2.3-0.2-3.5-0.6c-1.4,2.3-1.5,4.5-1.6,6.7c1.1,0.6,3.5-0.1,3.8,1.4c-1.3,1.4-2.7,0.2-4,1
	c-0.1,1.7,0,3.4,1,5c1.3,0.5,2.5-0.8,3.8,0.9c-1.1,1.6-2.3,0.4-3.4,1.5c0.7,1.2,0.5,2.5,1.8,3.7c1.4,0.6,2.6-1.5,4,0.1
	c-1.1,1.8-2.3,1-3.4,2.5c1.2,1.3,0.8,2.6,2.6,3.9c1.3-0.1,2.6-1.3,3.9-1.5c0.3,1.9-2.5,2.6-2.8,3.6c1.8,1.5,2.3,3.1,2.3,4.7
	c-1.7,2.2-4.9,4.5-5,6.6c3.8,3.7,7.6,6.6,11.3,8.3c1.7-0.9,3.1-3.3,4-5c-1.6-1.4-5-2.4-5-4.6c2-0.8,4.2,2.9,6.3,3.7
	c1.9-1.4,5-4.7,6.9-7.5c-1.7-2.4-6.6-2.8-5-5.6c2.1,0.8,4.3,3.9,6.3,4.3c3.1-3.1,4.7-6.1,7.9-9.1c0-1.4-5.8-3.3-4.8-5.9
	c2.4-0.5,3.7,4.7,6.3,4.3c4-4.2,6.5-7.8,9.9-11.4c-1.4-2.4-6.9-3.2-4.3-5.9c1.8,1.8,3.7,3.4,5.5,4.6c3.1-3.9,6.6-7.7,9.1-11.6
	c-1.6-2.3-6.2-2.4-4-5.2c1.7,1.2,3.3,2.3,5,3.5c2.3-2.9,3.8-5.7,5.2-8.5C-205.6,370.1-209.3,367.2-213,364.5z M-251.2,409.1
	c-9.7-8-8.9-23.9,0.5-32.2c7.9-7,18.7-7.4,27.2,1.5C-232.1,388.3-243.1,399.5-251.2,409.1z M-238.7,373.1
	c-5.8,0.5-13.6,6.2-15.4,12.4c-0.4,1.2-0.3,3.9-0.3,5.9c0,4.7,0.8,10.7,4.9,14.2c7.7-9.6,15.8-18.6,24.2-26.4
	C-229.3,375.8-234.5,372.8-238.7,373.1z"/>
</svg>
