<?xml version="1.0" encoding="utf-8"?>
<!-- Generator: Adobe Illustrator 19.0.0, SVG Export Plug-In . SVG Version: 6.00 Build 0)  -->
<svg version="1.1" id="Layer_1" xmlns="http://www.w3.org/2000/svg" xmlns:xlink="http://www.w3.org/1999/xlink" x="0px" y="0px"
	 width="53px" height="62px" viewBox="-279 366 53 62" style="enable-background:new -279 366 53 62;" xml:space="preserve">
<path style="fill:#FFFFFF;" d="M-226.1,398.2C-226.1,398.3-226.1,398.3-226.1,398.2c0,1,0,1.9-0.1,2.8c-0.2,4.2-1.7,8.2-4.6,12.2
	c-3.3,4.5-7.7,8.2-13.7,11.4c-1.8,1-3.6,1.8-5.4,2.5c-0.4,0.2-0.9,0.4-1.3,0.6c-0.4,0.2-0.9,0.3-1.4,0.3c-0.4,0-0.8-0.1-1.1-0.2
	c-7.3-2.8-13.2-6.5-17.8-11.2c-3.6-3.7-5.9-7.6-6.9-12c-0.4-1.9-0.6-3.7-0.7-5.5c-0.1-5-0.1-10.2,0-15.1c0-1.8,0-3.6,0-5.4
	c0-2.2,0.9-3.2,3.1-3.4c7-0.4,13.8-3.1,21.2-8.3c0.7-0.5,1.3-0.9,2.2-0.9s1.4,0.4,2.2,1c5.6,3.9,10.6,6.3,15.9,7.5
	c1.3,0.3,2.7,0.5,4.2,0.6c0.5,0.1,1,0.1,1.4,0.2c2.3,0.3,2.8,1.9,2.8,3.1c0,2.8,0,5.5,0,8.3l0,3v0.2c0,0,0,0.1,0,0.1L-226.1,398.2z
	 M-229.4,389.7v-0.2v0v-2.9c0-2.6,0-5.2,0-7.8c-0.4-0.1-0.8-0.1-1.2-0.1c-1.5-0.2-3-0.4-4.5-0.7c-5.6-1.3-11.2-3.9-17.1-8
	c-0.1-0.1-0.2-0.1-0.2-0.2c-0.1,0.1-0.2,0.1-0.2,0.2c-7.9,5.6-15.2,8.4-22.8,8.9c0,1.8,0,3.5,0,5.3c0,5,0,10.1,0,15.1
	c0,1.5,0.2,3.1,0.6,4.7c0.8,3.7,2.8,7.1,6,10.3c4.3,4.4,9.7,7.8,16.5,10.4c0,0,0,0,0,0c0.4-0.2,0.9-0.4,1.3-0.6
	c1.7-0.8,3.5-1.5,5.2-2.4c5.5-2.9,9.6-6.3,12.5-10.4c2.5-3.4,3.7-6.7,3.9-10.2c0-0.8,0.1-1.7,0.1-2.7c0,0,0,0,0,0v-0.3L-229.4,389.7
	C-229.4,389.7-229.4,389.7-229.4,389.7z M-254.6,405.6c-0.3,0.3-0.8,0.5-1.2,0.5c-0.4,0-0.9-0.2-1.2-0.5l-4.9-4.9
	c-0.7-0.7-0.7-1.8,0-2.5c0.7-0.7,1.8-0.7,2.4,0l3.7,3.7l10.3-10.5c0.7-0.7,1.8-0.7,2.4,0c0.7,0.7,0.7,1.8,0,2.5L-254.6,405.6z"/>
</svg>
