<?xml version="1.0" encoding="utf-8"?>
<!-- Generator: Adobe Illustrator 19.0.0, SVG Export Plug-In . SVG Version: 6.00 Build 0)  -->
<svg version="1.1" id="Layer_1" xmlns="http://www.w3.org/2000/svg" xmlns:xlink="http://www.w3.org/1999/xlink" x="0px" y="0px"
	 width="39.2px" height="39.4px" viewBox="-285 377.6 39.2 39.4" style="enable-background:new -285 377.6 39.2 39.4;"
	 xml:space="preserve">
<path style="fill:#49769C;" d="M-265.4,377.6c-10.8,0-19.6,8.8-19.6,19.7c0,10.9,8.8,19.7,19.6,19.7c10.8,0,19.6-8.8,19.6-19.7
	C-245.8,386.4-254.6,377.6-265.4,377.6L-265.4,377.6z M-255.5,399.4c0.9,0.9,1.9,1.7,2.7,2.7c0.4,0.4,0.7,0.9,1,1.4
	c0.4,0.7,0,1.5-0.6,1.6l-4,0c-1,0.1-1.9-0.3-2.6-1c-0.6-0.6-1.1-1.2-1.6-1.8c-0.2-0.2-0.4-0.5-0.7-0.6c-0.5-0.4-1-0.2-1.3,0.3
	c-0.3,0.6-0.4,1.2-0.4,1.9c0,1-0.3,1.2-1.3,1.2c-2,0.1-4-0.2-5.7-1.2c-1.6-0.9-2.8-2.2-3.9-3.6c-2.1-2.8-3.7-5.9-5.1-9.1
	c-0.3-0.7-0.1-1.1,0.7-1.1c1.3,0,2.6,0,3.9,0c0.5,0,0.9,0.3,1.1,0.8c0.7,1.8,1.6,3.4,2.7,5c0.3,0.4,0.6,0.8,1,1.1
	c0.5,0.3,0.8,0.2,1-0.3c0.1-0.3,0.2-0.7,0.2-1c0.1-1.2,0.1-2.4-0.1-3.7c-0.1-0.8-0.5-1.2-1.3-1.4c-0.4-0.1-0.3-0.2-0.1-0.4
	c0.3-0.4,0.6-0.6,1.2-0.6h4.5c0.7,0.1,0.9,0.5,1,1.2l0,5.1c0,0.3,0.1,1.1,0.6,1.3c0.4,0.1,0.7-0.2,0.9-0.4c1.1-1.2,1.9-2.5,2.6-4
	c0.3-0.6,0.6-1.3,0.8-1.9c0.2-0.5,0.5-0.7,1-0.7l4.4,0c0.1,0,0.3,0,0.4,0c0.7,0.1,0.9,0.4,0.7,1.2c-0.4,1.1-1.1,2.1-1.7,3
	c-0.7,1-1.5,2-2.2,3C-256.3,398.1-256.3,398.6-255.5,399.4L-255.5,399.4z"/>
</svg>
