<svg xmlns="http://www.w3.org/2000/svg" height="342" viewBox="0 0 482 342" width="482"><svg height="153" viewBox="0 0 480 153" width="480" x="1" y="1"><path d="M28 70.2s11.3 13.1 24.4 27.5c0 0 17.1 19.7 28.5 4.4 0 0 3.3-6 16.5-4.4 0-.1-7.8-22.7-7.8-22.7l-15.1-3.1-33-6.1L28 70.2z" fill="#A60F26"/><path d="M70.5 108.7c-9.5 0-18.4-10.1-18.7-10.5-13-14.2-24.4-27.3-24.5-27.5l-.8-1 14.9-4.9L74.7 71l15.6 3.2.2.5c.8 2.3 7.8 22.5 7.8 22.7l.4 1.3-1.3-.2c-1.5-.2-2.9-.3-4.2-.3-9 0-11.4 4.2-11.4 4.2l-.1.1c-3.2 4.1-6.9 6.2-11.2 6.2zm-41-38.1c2.9 3.3 12.6 14.5 23.6 26.5.1.1 8.7 9.9 17.4 9.9 3.7 0 7-1.8 9.7-5.4.4-.6 3.4-5 12.9-5 1 0 2 0 3.1.1-1.5-4.3-6.3-18.2-7.2-20.9l-14.6-3-32.8-6.1-12.1 3.9z"/><path d="M140.1 43.3c1.1-.8.2-3.1.2-3.1l-5.2-.6c-4.6-9.3-10.6-9.7-10.6-9.7-.1-.2-.2-.4-.3-.5-3.6 0-6.3-2.2-10.5-3.1-3.7-.8-10.5-1.2-14.6 1.1-.8.7-1.5 1.3-2.1 1.7-.5.6-1.1 1-1.7 1.3-4.1 3.2-5.8 6.8-6.5 9.4l-5.6.4c-.3 1 .6 3 .6 3-5.6 2.3-5.3 6.8-5.3 6.8-.3 6.4 6.5 7.3 6.5 7.4-1.2 10.9 8.3 15.4 8.3 15.4-10.3 6.8-9.1 13.8-9.1 13.9.2 6.3 7.3 11.7 7.3 11.7 1.5 6.4 7.7 15.5 7.7 15.5-1.2.2-2.2 1.2-2.2 1.2-2.8 2.8 0 4.6 0 4.6 2.1 2.1 7.2.9 7.2.9 5.1-2.1 5.7-5.9 5.7-5.9 1.1-3.1 1.6-3.2 1.7-3.3 1.3-.7 1.8 1.4 1.8 1.4.2 3.4 4.2 6.7 4.2 6.7 8 3.9 10.3-1.3 10.3-1.3.9-3.1-2.9-4.5-2.9-4.5 6-8.8 7.5-15.4 7.5-15.4 8.3-6.5 7.4-13.1 7.4-13.1-2-8.8-9.1-12.4-9.3-12.4 10.8-7 8.3-15.5 8.3-15.5 5.7-2.3 6.5-5.9 6.6-6 .7-4.8-5.2-8-5.4-8z"/><path d="M130.4 75.5c-1.2-.9-2.1-1.3-2.1-1.3-17.2 8.3-33 0-33 0-.4.3-.8.5-1.2.8 3.5 1.8 16 7.4 36.3.5z" fill="#E31D39"/><path d="M132 76.8c-8.1 2.9-15 3.9-20.7 3.9-10.8 0-17.2-3.6-18.8-4.6-12.7 9.5-2.2 18.6-2.3 18.5-1.6-8.4 3.3-14.6 3.3-14.6 1-1.5 1.9-.3 1.9-.3.9 1.2-.2 1.9-.1 1.9-.1.1-.2.2-.3.4-9.4 11 6.5 31.9 6.5 31.8 3.3 0 5.6 2.5 5.6 2.4 1.2-7.2 4.9-6.7 4.9-6.7 3.9 0 5 6.8 5 6.7 1.5-2.3 5.8-2.8 5.7-3 15.9-21.1 5.7-32.1 5.6-32.2-.6-2.2 1.4-1.6 1.4-1.7 5.8 5.2 4.3 14.7 4.4 14.7 6.8-7.6 1.9-13.9-2.1-17.2z" fill="#8DC63F"/><path d="M93.3 72.9s-4.7-2-7.5.8c0 0-85.2-29.3-73 4.8 0 .3 10-20.8 76.4-.9.8.6 4.1-4.7 4.1-4.7z" fill="#E31D39"/><path d="M12.8 79.3h-.9v-.7c-1.7-4.9-1.6-8.9.5-11.8 2.6-3.8 8.5-5.7 17.3-5.7 20.4 0 50.7 9.9 55.8 11.6 1.1-.9 2.5-1.4 4.2-1.4 2.1 0 3.8.7 3.9.8l.9.4-.5.8c-3.2 5.1-4.2 5.2-4.6 5.1-.2 0-.4 0-.5-.1C70 72.7 54 69.8 41.1 69.8c-20 0-26.1 6.9-27.5 9-.1.1-.4.5-.8.5zm28.3-11.2c13 0 29.2 2.9 48.2 8.6.5-.4 1.6-1.9 2.6-3.3-.6-.2-1.4-.3-2.2-.3-1.4 0-2.6.4-3.4 1.2l-.2.2h-.5l-.2-.1c-3.5-1.2-34.9-11.6-55.7-11.6-8.3 0-13.6 1.7-15.9 5-1.5 2.2-1.7 5.1-.7 8.9 2.7-3.1 10.1-8.6 28-8.6zM175.4 83.8v13.7c-1 .4-2.2.7-3.5.9-1.3.2-2.6.2-4.1.2-3.2 0-6.1-.6-8.9-1.8-2.7-1.2-5.1-2.8-7.1-4.9-2-2.1-3.6-4.5-4.8-7.4-1.2-2.8-1.7-5.9-1.7-9.3 0-3.2.6-6.2 1.8-9.1 1.2-2.8 2.9-5.3 5-7.4 2.1-2.1 4.7-3.8 7.6-5 2.9-1.2 6.1-1.9 9.5-1.9 2.4 0 4.5.4 6.1 1.1v13.6c-1.1-.5-2.2-.9-3.3-1.1-1.1-.2-2.1-.3-3.2-.3-2.9 0-5.3 1-7 2.9-1.7 1.9-2.6 4.4-2.6 7.3s.8 5.4 2.5 7.3c1.7 1.9 3.9 2.9 6.6 2.9.9 0 1.9-.1 3.1-.4 1.4-.1 2.7-.6 4-1.3zM193.8 87.7v10h-3c-2.4 0-4.5-.2-6.1-.7-1.6-.5-3-1.2-4-2.2-1-1-1.7-2.4-2.2-4.1-.4-1.7-.6-3.8-.6-6.3V62.9h10.8v20.4c0 1.9.3 3.2.8 3.7s1.6.8 3.3.8h1zM217.9 76.5v6.2h-9.2c-.9 0-1.7.2-2.3.6-.6.4-.9 1-.9 1.8 0 1.7 1.5 2.5 4.5 2.5h7.9v10.1h-9.5c-4.5 0-7.9-.9-10.2-2.7-2.3-1.8-3.5-4.6-3.5-8.4 0-1.4.1-2.6.4-3.6.3-1.1.9-2.2 2-3.4-.8-.9-1.4-1.9-1.8-2.9-.4-1-.6-2-.6-2.9 0-2 .4-3.7 1.1-5.1.7-1.4 1.7-2.5 2.9-3.4 1.2-.9 2.7-1.5 4.4-1.9 1.7-.4 3.5-.6 5.4-.6h9.5v10h-9c-1.3 0-2.2.1-2.7.4-.5.2-.7.7-.7 1.4 0 1.2 1.1 1.9 3.4 1.9h8.9zM234.1 87.6c.6-1.4 1.1-3 1.6-4.5.4-1.6.8-3.4 1.1-5.3.3-1.9.5-4.1.7-6.5.1-2.4.2-5.2.2-8.3h10.9c0 4.3-.2 8.2-.6 11.6-.4 3.4-.9 6.5-1.6 9.2-.7 2.7-1.6 5.2-2.7 7.5-1.1 2.2-2.3 4.4-3.8 6.5h-11.6c-1.4-2.1-2.7-4.2-3.8-6.5-1.1-2.2-2-4.7-2.7-7.5-.7-2.7-1.3-5.8-1.6-9.2-.4-3.4-.5-7.3-.5-11.6h11c0 3.1.1 5.9.2 8.3.1 2.4.4 4.6.6 6.5.3 1.9.6 3.7 1.1 5.3.4 1.6.9 3.1 1.5 4.5zM273.2 76.5v6.2H264c-.9 0-1.7.2-2.3.6-.6.4-.9 1-.9 1.8 0 1.7 1.5 2.5 4.5 2.5h7.9v10.1h-9.5c-4.5 0-7.9-.9-10.2-2.7-2.3-1.8-3.5-4.6-3.5-8.4 0-1.4.1-2.6.4-3.6.3-1.1.9-2.2 2-3.4-.8-.9-1.4-1.9-1.8-2.9-.4-1-.6-2-.6-2.9 0-2 .4-3.7 1.1-5.1.7-1.4 1.7-2.5 2.9-3.4 1.2-.9 2.7-1.5 4.4-1.9 1.7-.4 3.5-.6 5.4-.6h9.5v10h-9c-1.3 0-2.2.1-2.7.4-.5.2-.7.7-.7 1.4 0 1.2 1.1 1.9 3.4 1.9h8.9zM286.8 97.7H276V62.9h12.7c2 0 3.9.2 5.7.6 1.8.4 3.4 1.1 4.7 2 1.3.9 2.4 2.1 3.2 3.5.8 1.4 1.2 3.2 1.2 5.3 0 1.4-.2 2.7-.7 4.1-.5 1.4-1.3 2.5-2.5 3.4 1.4 1.1 2.3 2.3 2.8 3.6.4 1.3.7 3 .7 5v7.3h-11v-7.3c0-1.5-.2-2.6-.7-3.2-.5-.6-1.3-.9-2.4-.9h-.8v-7.7h.8c1.9 0 2.9-.9 2.9-2.8 0-1-.2-1.7-.7-2.1-.5-.4-1.5-.6-3-.6H287v24.6zM323.9 69.1v11h-15.8v-11h15.8zM362.9 53.3v13.3c-2.2-.5-4.1-.8-5.9-1-1.8-.2-3.3-.3-4.7-.3-3.4 0-6.2.9-8.4 2.8-2.2 1.8-3.3 4.3-3.3 7.5 0 3.3.8 5.9 2.3 7.6 1.6 1.7 3.6 2.6 6.3 2.6v-14h13.7v25.6c-1.7.5-3.6.8-5.7 1-2.1.2-4 .3-5.6.3-3.4 0-6.6-.5-9.6-1.6s-5.7-2.7-8-4.7-4.1-4.5-5.4-7.3c-1.3-2.9-2-6.1-2-9.7 0-3.5.7-6.7 2-9.6 1.3-2.9 3.1-5.3 5.4-7.4 2.3-2 4.9-3.6 8-4.7 3.1-1.1 6.3-1.7 9.8-1.7 2.1 0 4 .1 5.9.3 1.7.2 3.5.5 5.2 1zM394.7 97.7h-10.6V90h-7.5v7.7h-10.7V77.9c0-2.1.3-4.2 1-6.1.7-1.9 1.6-3.6 2.9-5 1.3-1.4 2.8-2.6 4.6-3.4 1.8-.8 3.8-1.2 6.2-1.2 2.3 0 4.3.4 6.1 1.2 1.8.8 3.2 1.9 4.4 3.3 1.2 1.4 2.1 3.1 2.7 5.1.6 2 .9 4.1.9 6.3v19.6zm-18.1-16.8h7.5v-3.1c0-1.6-.3-2.8-.8-3.6-.5-.8-1.4-1.2-2.8-1.2-1.2 0-2.2.4-2.9 1.2-.7.8-1.1 2-1.1 3.6v3.1zM397.3 97.7V78.6c0-2.1.3-4.2.8-6.2s1.4-3.7 2.5-5.3c1.1-1.5 2.6-2.7 4.3-3.7 1.7-.9 3.7-1.4 6.1-1.4 1.7 0 3.3.2 4.8.7 1.4.5 2.7 1.2 3.8 2.1 1.1-.9 2.3-1.6 3.8-2.1s3.1-.7 4.8-.7c2.4 0 4.4.5 6.1 1.4 1.7.9 3.1 2.1 4.3 3.7 1.1 1.5 2 3.3 2.5 5.3s.8 4 .8 6.2v19.1h-10.8V78.9c0-2.7-.2-4.5-.6-5.3-.4-.8-1.2-1.2-2.4-1.2s-1.9.4-2.4 1.2c-.4.8-.6 2.5-.6 5v19.2h-10.9V78.5c0-2.6-.2-4.2-.7-5-.5-.8-1.2-1.2-2.3-1.2-1.2 0-1.9.4-2.4 1.2-.4.8-.7 2.6-.7 5.3v18.8h-10.8zM467.3 76.5v6.2h-9.2c-.9 0-1.7.2-2.3.6-.6.4-.9 1-.9 1.8 0 1.7 1.5 2.5 4.5 2.5h7.9v10.1h-9.5c-4.5 0-7.9-.9-10.2-2.7-2.3-1.8-3.5-4.6-3.5-8.4 0-1.4.1-2.6.4-3.6.3-1.1 1-2.2 2-3.4-.8-.9-1.4-1.9-1.8-2.9-.4-1-.6-2-.6-2.9 0-2 .4-3.7 1.1-5.1.7-1.4 1.7-2.5 2.9-3.4 1.2-.9 2.7-1.5 4.4-1.9 1.7-.4 3.5-.6 5.4-.6h9.5v10h-9c-1.3 0-2.2.1-2.7.4-.5.2-.7.7-.7 1.4 0 1.2 1.1 1.9 3.4 1.9h8.9z"/><path d="M121.9 32.5s1.3 4.5 10.2 5.6c0 0 .4 1.1 1.1 1.5 0 0-4.9-1.2-13.6.2.1 0-17.9-1-17.9-1s15.9-1.4 20.2-6.3z" fill="#E2B782"/><path d="M92.1 37.8s-.7 1.1-.8 1.8c0 0 11.2-1.2 19.9 1.7 0 0 12-2.4 16-2.1 0 0-4.1-2.1-5.6-3.8-.1-.1-14 4-29.5 2.4z" fill="#FBD59A"/><path d="M88.5 44.6S90 41 99.3 42c0 .1 7.7 0 7.4 6.2 0 0-.3 8-5.8 8.8 0 .1-7 .9-10.5-3.6 0 0-3-3.6-1.9-8.8z" fill="#E9EAEB"/><path d="M89.4 43.9s1.5-3.6 10.8-2.6c0 .1 7.7 0 7.4 6.2 0 0-.3 8-5.8 8.8 0 .1-7 .9-10.5-3.6 0 0-3-3.6-1.9-8.8z" fill="#FFF"/><path d="M135.4 44.6s-1.5-3.6-10.8-2.6c0 .1-7.7 0-7.4 6.2 0 0 .3 8 5.8 8.8 0 .1 7 .9 10.5-3.6 0 0 3-3.6 1.9-8.8z" fill="#E9EAEB"/><path d="M134.5 43.9s-1.5-3.6-10.8-2.6c0 .1-7.7 0-7.4 6.2 0 0 .3 8 5.8 8.8 0 .1 7 .9 10.5-3.6 0 0 3-3.6 1.9-8.8z" fill="#FFF"/><path d="M127.5 50.8c-1.8 0-3.2-1.4-3.2-3.1 0-1.5 1.1-2.7 2.5-3-.8-.4-1.6-.6-2.5-.6-3.1 0-5.5 2.5-5.5 5.5s2.5 5.5 5.5 5.5c2.9 0 5.3-2.3 5.5-5.1-.6.5-1.4.8-2.3.8z"/><ellipse cx="121.5" cy="51.6" rx=".6" ry="1" fill="#FFF"/><path d="M96.6 50.8c1.8 0 3.2-1.4 3.2-3.1 0-1.5-1.1-2.7-2.5-3 .8-.4 1.6-.6 2.5-.6 3.1 0 5.5 2.5 5.5 5.5s-2.5 5.5-5.5 5.5c-2.9 0-5.3-2.3-5.5-5.1.6.5 1.4.8 2.3.8z"/><ellipse cx="102.6" cy="51.6" rx=".6" ry="1" fill="#FFF"/><g><path d="M85.5 45S80 46.2 81 52c0 .1 1.8 3.4 6.2 3.9 0 0-2.6 11.4 9.6 16.5 0 .1 8.4 3.2 15.1 3.4 0 0 11.2 0 18.7-5.9 0 0 7.9-5.6 5.9-13.8 0 0 7.2-1.3 6.8-5.9 0 .2.4-3.8-4.9-4.8 0 0 .3 8.6-6.5 12.2 0 0-9.9 3.8-15.5-2.8 0 0-2.2-2.9-2.5-7.8 0 .1-.2-3-2-2.9 0 0-1.8-.6-2 3-.1 0-.2 8.7-7.1 11 0 0-9.8 2.7-14.6-3.7.1.1-2.6-4.2-2.7-9.4z" fill="#FBD59A"/></g><g><path d="M85.5 45S80 46.1 81 52c0 0 1.4-4.4 4.7-4.6 0 0-.1-2-.2-2.4z" fill="#FDF5C9"/></g><g><path d="M87.3 55.9s-.4 0 1.9.4c-.1 0-3.6 10.1 9.9 17 0 0-13.7-2.9-11.8-17.4z" fill="#FDF5C9"/></g><g><path d="M102.9 74.4s18.1 2.3 27.5-6.7c.1 0 4.3-3.9 4.5-11.2 0 .1 1.1-.8 1.5-2.1 0 0 5.6 0 6.2-6.7 0 0 2.2 3-.4 5.8 0 0-1.2 1.7-5.6 2.8 0 0 1.8 6.9-4.4 12.3 0-.1-10.1 10.8-29.3 5.8z" fill="#E2B782"/></g><g><path d="M95.4 81.5s-7.1 11.9 7.5 32.3c0 0-.8-.2-1.3-.1-.1 0-16.6-21.7-6.2-32.2z" fill="#BCD631"/></g><g><ellipse cx="111.9" cy="92.6" rx="11.4" ry="10.9" fill="#FFF"/></g><g><path d="M116.5 114.2s2.5-1.5 5.2-2.5c-.1.1 6.7-10.8 7.3-13.4 0 .1-7.5-3.9-24.3-4.1.1.1 8.2-1.9 24.9 1.7.1.1 1.5-7.9-1.1-14.7 0 .1 4.8 6 2.3 16.5-.1.2-2.9 9.1-8.1 15.5 0 0-4.7 1-5.7 3l-.5-2z" fill="#6FA132"/></g><g><path d="M116.2 91.9c.4.2.9.2 1.4.3.6.2 1.4.5 1.7.9.3.4.4 1.2.2 1.7-.3 1.2-1.4 1.6-2.3 1.9-.3.7-.7 1.3-1.4 1.4-1.1.2-2.5-.4-2.9-1.2-.3-.5-.4-1.1-.5-1.6-.3 2 .3 3.6.8 5.2-.5.1-1.1.1-1.6.2-1.3-1.1-1.2-3.2-.7-5.4-.4.6-.7 1.1-1.2 1.6-.4.4-1.2 1-1.9.9-1.2-.3-1.3-1.8-1.4-2.9-.8-.3-2.3-.7-2.1-1.7.1-.7 1.1-1.1 1.6-1.4.7-.3 1.5-.5 2.1-.6-1.4-.5-3-.9-2.8-2.2.1-.6.6-1.2 1.1-1.6.4-.4 1-.6 1.5-1 .7-.6 1.4-2.2 2.8-1.7.7.2 1.1 1 1.4 1.7.3.7.4 1.4.4 2.2.4-1.5.8-3 1.9-3.5 1.3-.6 2.5.9 2.9 1.9 1 .5 2.2 1.1 2.1 2.3-.1.7-.6 1.4-1.1 1.8-.7.4-1.4.7-2 .8z" fill-rule="evenodd" clip-rule="evenodd" fill="#5E8C2A"/></g><g><path d="M124.9 94.9c-13.5-2.3-20-.7-20.1-.7 9.3.1 15.7 1.4 19.6 2.5.2-.6.4-1.2.5-1.8z" fill="#6FA132"/></g><g><path d="M119.5 94.2c0 .3 0 .5-.1.7 0 .2-.2.4-.3.6 1.5.3 2.4.4 3.5.7.2-.6.4-1 .5-1.6-1.5-.2-2.3-.3-3.6-.4z" fill="#E6E7E8"/></g><g><path d="M110.5 61.7c-.3 0-.5-.1-.7-.3-.2-.2-1.9-1.7-2-3.7 0-1.1.4-2.1 1.3-2.9l.1-.1c1.3-.9 4-1.7 6.3 1 .4.5.3 1.2-.1 1.6-.5.4-1.2.3-1.6-.1-1.3-1.6-2.6-1-3.1-.7-.4.4-.5.8-.5 1.2 0 .9.9 1.8 1.2 2.1.5.4.5 1.1.1 1.6-.3.2-.6.3-1 .3z"/></g><g><path d="M111.2 68.5c-1.4 0-2.3-.2-2.4-.2-.6-.1-1-.7-.9-1.3.1-.6.7-1 1.3-.9.1 0 5.2.9 9.2-2.1.5-.4 1.2-.3 1.6.2.4.5.3 1.2-.2 1.6-3 2.3-6.4 2.7-8.6 2.7z"/></g><g><path d="M114.3 71.8h-.3c-1.7-.4-3.4 0-3.4 0-.6.2-1.2-.2-1.4-.8-.2-.6.2-1.2.8-1.4.1 0 2.3-.6 4.6 0 .6.2 1 .8.8 1.4-.1.5-.6.8-1.1.8z"/></g><g><path d="M94.2 76.9c-.8-.4-1.3-.7-1.6-.9-3.4 2.5-8.2 7.6-5.2 14.5-.1 0-1.1-7.6 6.8-13.6z" fill="#BCD631"/><path d="M95.8 75.8c.4-.3.9-.5 1.4-.8l-1.8-.8s-.5.3-1.3.7c.4.2 1 .5 1.7.9z" fill="#E97742"/></g><g><path d="M130.4 75.5c-.6-.5-1.3-.9-2.1-1.4l-1.8.8s.9.4 2.1 1.1c.7-.1 1.2-.3 1.8-.5z" fill="#A60F26"/><path d="M137 83.4s-1.3-3.4-5-6.6c-.5.2-1 .4-1.5.5 3.2 2.4 6.8 6.7 3.7 12.7 0 .1-.1 3.9-.1 3.9s5-4.7 2.9-10.5z" fill="#6FA132"/></g><path d="M122.1 29.5l-.6-3.7 2.2 3.4.2.3 1.2-1.8.2 2.7 3.4.2-2.8.8"/><g><path d="M210.3 106.1v8.3l1 .1-.1 4.3h-1.7l-.1-2.6h-5.9l-.1 2.6h-1.7l-.1-4.3.9-.1c.4-.7.7-1.5 1-2.3.3-1 .4-2.1.4-3.4V106h6.4zm-4.5 3.2c0 1.2-.2 2.3-.5 3.3-.2.6-.4 1.2-.7 1.7h3.4V108h-2.2v1.3zM218.6 112h-3.7v2.4h4.2v1.9h-6.4v-10.1h6.2v1.9h-4v2.1h3.7v1.8zM222.6 108h-2.7v-1.9h7.8v1.9h-2.8v8.2h-2.3V108zM235.8 116c-.4.2-1.4.4-2.6.4-3.5 0-5.3-2.2-5.3-5.1 0-3.5 2.5-5.4 5.5-5.4 1.2 0 2.1.2 2.5.5l-.5 1.8c-.5-.2-1.1-.4-1.9-.4-1.8 0-3.2 1.1-3.2 3.4 0 2 1.2 3.3 3.2 3.3.7 0 1.5-.1 1.9-.3l.4 1.8zM239.6 106.1v4.2h.2l2.8-4.2h2.8l-3.5 4.5c1.3.3 1.9 1.2 2.3 2.4.4 1.1.7 2.2 1.2 3.2h-2.5c-.3-.7-.5-1.5-.8-2.2-.3-1.1-.8-2-2-2h-.4v4.2h-2.3v-10.1h2.2zM248.5 106.1v3c0 1.6 0 3.2-.1 4.6.5-1.2 1.2-2.5 1.8-3.6l2.2-4h2.3v10.1h-2.1v-3c0-1.6 0-2.9.2-4.3-.5 1.2-1.1 2.5-1.7 3.6l-2.1 3.7h-2.6v-10.1h2.1zM258.9 106.1v3c0 1.6 0 3.2-.1 4.6.5-1.2 1.2-2.5 1.8-3.6l2.2-4h2.3v10.1H263v-3c0-1.6 0-2.9.2-4.3-.5 1.2-1.1 2.5-1.7 3.6l-2.1 3.7h-2.6v-10.1h2.1zm1.4-2.3c0 .6.2.9.7.9.5 0 .6-.3.7-.9h1.5c-.1 1.3-.9 1.8-2.3 1.8-1.3 0-2.1-.6-2.2-1.8h1.6zM272.3 106.1v3c0 1.6 0 3.2-.1 4.6.5-1.2 1.2-2.5 1.8-3.6l2.2-4h2.3v10.1h-2.1v-3c0-1.6 0-2.9.2-4.3-.5 1.2-1.1 2.5-1.7 3.6l-2.1 3.7h-2.6v-10.1h2.1zM282.9 106.1v3.9h3.8v-3.9h2.3v10.1h-2.3V112h-3.8v4.2h-2.3v-10.1h2.3zM292.9 108h-2.7v-1.9h7.8v1.9h-2.8v8.2h-2.3V108zM305.2 112h-3.7v2.4h4.2v1.9h-6.4v-10.1h6.2v1.9h-4v2.1h3.7v1.8zM307.2 106.3c.7-.1 1.7-.2 3.1-.2 1.4 0 2.4.3 3.1.8.7.5 1.1 1.4 1.1 2.3 0 1-.3 1.8-.9 2.4-.8.7-1.9 1.1-3.3 1.1-.3 0-.6 0-.8-.1v3.6h-2.3v-9.9zm2.3 4.6c.2 0 .4.1.8.1 1.2 0 2-.6 2-1.6 0-.9-.6-1.5-1.8-1.5-.5 0-.8 0-.9.1v2.9zM318.2 106.1v3.9h3.8v-3.9h2.3v10.1H322V112h-3.8v4.2h-2.3v-10.1h2.3zM332.3 112h-3.7v2.4h4.2v1.9h-6.4v-10.1h6.2v1.9h-4v2.1h3.7v1.8zM336.3 108h-2.7v-1.9h7.8v1.9h-2.8v8.2h-2.3V108zM344.6 111.5v1.5h-3.9v-1.5h3.9zM354.6 112.4c0-1.2-.1-2.7-.1-4.2-.3 1.3-.8 2.7-1.1 3.9l-1.2 4h-1.8l-1.1-3.9c-.3-1.2-.7-2.6-.9-4 0 1.4-.1 2.9-.2 4.2l-.2 3.8h-2.1l.6-10.1h3.1l1 3.4.9 3.6h.1c.3-1.2.6-2.5 1-3.6l1.1-3.4h3l.5 10.1H355l-.4-3.8zM361.1 113.6l-.7 2.6H358l3.1-10.1h3l3.2 10.1h-2.5l-.8-2.6h-2.9zm2.6-1.7l-.6-2.1c-.2-.6-.4-1.4-.5-2-.1.6-.3 1.4-.5 2l-.6 2.1h2.2zM374.8 106.1v1.9H371v8.3h-2.3v-10.1h6.1zM377.2 113.6l-.7 2.6h-2.4l3.1-10.1h3l3.2 10.1h-2.5l-.8-2.6h-2.9zm2.6-1.7l-.6-2.1c-.2-.6-.4-1.4-.5-2-.1.6-.3 1.4-.5 2l-.6 2.1h2.2zM384.4 106.7c.7-.4 1.7-.8 3.2-.8 2.2 0 3.5 1.1 3.5 2.6 0 1.3-.9 2.1-2 2.4 1.3.2 2.4 1.1 2.4 2.4 0 2.3-2.3 3.1-4.2 3.1-1.1 0-2.2-.2-3-.7l.5-1.8c.5.2 1.5.6 2.4.6 1.2 0 1.9-.5 1.9-1.3 0-1.1-1.2-1.3-2.1-1.3h-1v-1.7h1c1 0 1.8-.5 1.8-1.3 0-.7-.6-1.1-1.5-1.1-.8 0-1.7.3-2.2.6l-.7-1.7zM395 106.1v3c0 1.6 0 3.2-.1 4.6.5-1.2 1.2-2.5 1.8-3.6l2.2-4h2.3v10.1h-2.1v-3c0-1.6 0-2.9.2-4.3-.5 1.2-1.1 2.5-1.7 3.6l-2.1 3.7h-2.6v-10.1h2.1zM405.6 106.1v3.9h3.8v-3.9h2.3v10.1h-2.3V112h-3.8v4.2h-2.3v-10.1h2.3z"/></g></svg><svg height="44" viewBox="0 0 216 44" width="216" x="1" y="155"><path d="M10.9 20.5s5.2 6 11.2 12.6c0 0 7.9 9 13.1 2 0 0 1.5-2.8 7.6-2 0-.1-3.6-10.4-3.6-10.4l-7-1.4L17 18.5l-6.1 2z" fill="#A60F26"/><path d="M30.4 38.2c-4.4 0-8.4-4.6-8.6-4.8-6-6.5-11.2-12.6-11.2-12.6l-.4-.4L17 18l15.3 2.8 7.2 1.5.1.2c.4 1.1 3.6 10.4 3.6 10.4l.2.6-.6-.1c-.7-.1-1.3-.1-1.9-.1-4.2 0-5.2 1.9-5.3 1.9-1.5 2-3.2 3-5.2 3zM11.6 20.7c1.3 1.5 5.8 6.7 10.8 12.2 0 .1 4 4.6 8 4.6 1.7 0 3.2-.8 4.4-2.5.2-.3 1.5-2.3 5.9-2.3.5 0 .9 0 1.4.1-.7-2-2.9-8.4-3.3-9.6l-6.7-1.4L17 19l-5.4 1.7z"/><path d="M62.4 8.1c.5-.4.1-1.4.1-1.4l-2.4-.3C58 2.2 55.3 2 55.3 2c0-.1-.1-.2-.1-.2-1.6 0-2.9-1-4.8-1.4-1.7-.4-4.8-.5-6.7.5-.4.3-.7.6-1 .8-.2.3-.5.5-.8.6-1.9 1.5-2.7 3.1-3 4.3l-2.6.2c-.1.5.3 1.4.3 1.4-2.6 1.1-2.4 3.1-2.4 3.1-.1 2.9 3 3.3 3 3.4-.5 5 3.8 7.1 3.8 7.1-4.7 3.1-4.2 6.3-4.2 6.4.1 2.9 3.4 5.4 3.4 5.4.7 2.9 3.5 7.1 3.5 7.1-.6.1-1 .6-1 .6-1.3 1.3 0 2.1 0 2.1.9 1 3.3.4 3.3.4 2.3-1 2.6-2.7 2.6-2.7.5-1.4.8-1.5.8-1.5.6-.3.8.6.8.6.1 1.6 1.9 3.1 1.9 3.1 3.7 1.8 4.7-.6 4.7-.6.4-1.4-1.3-2.1-1.3-2.1 2.8-4 3.4-7.1 3.4-7.1 3.8-3 3.4-6 3.4-6-.9-4-4.2-5.7-4.3-5.7 5-3.2 3.8-7.1 3.8-7.1 2.6-1.1 3-2.7 3-2.7.4-2.4-2.3-3.9-2.4-3.9z"/><path d="M58 22.9c-.6-.4-1-.6-1-.6-7.9 3.8-15.1 0-15.1 0-.2.1-.4.2-.6.4 1.6.8 7.3 3.4 16.7.2z" fill="#E31D39"/><path d="M58.7 23.5c-3.7 1.3-6.9 1.8-9.5 1.8-5 0-7.9-1.7-8.6-2.1-5.9 4.4-1 8.6-1.1 8.5C38.8 27.8 41 25 41 25c.4-.7.9-.1.9-.1.4.5-.1.9 0 .9 0 .1-.1.1-.1.2-4.3 5.1 3 14.7 3 14.6 1.5 0 2.6 1.1 2.6 1.1.5-3.3 2.3-3.1 2.3-3.1 1.8 0 2.3 3.1 2.3 3.1.7-1.1 2.7-1.3 2.6-1.4 7.3-9.7 2.6-14.7 2.6-14.8-.3-1 .6-.7.6-.8 2.6 2.4 2 6.8 2 6.8 3-3.6.7-6.5-1.1-8z" fill="#8DC63F"/><path d="M40.9 21.7s-2.1-.9-3.5.4c0 0-39.2-13.4-33.5 2.2 0 .1 4.6-9.6 35.1-.4.4.3 1.9-2.2 1.9-2.2z" fill="#E31D39"/><path d="M3.9 24.7h-.4v-.3c-.8-2.3-.7-4.1.2-5.4 1.2-1.7 3.9-2.6 8-2.6 9.4 0 23.3 4.5 25.7 5.3.5-.4 1.2-.6 1.9-.6.9 0 1.7.3 1.8.3l.4.2-.2.4c-1.5 2.4-1.9 2.4-2.1 2.4-.1 0-.2 0-.2-.1-8.7-2.6-16-3.9-21.9-3.9-9.2 0-12 3.2-12.7 4.1-.2 0-.3.2-.5.2zm13-5.2c6 0 13.4 1.3 22.2 3.9.2-.2.7-.9 1.2-1.5-.3-.1-.6-.1-1-.1-.6 0-1.2.2-1.6.6l-.1.1H37.3c-1.6-.5-16.1-5.4-25.6-5.4-3.8 0-6.3.8-7.3 2.3-.7 1-.8 2.4-.3 4.1 1.2-1.5 4.6-4 12.8-4zM78.6 26.7V33c-.5.2-1 .3-1.6.4-.6.1-1.2.1-1.9.1-1.5 0-2.8-.3-4.1-.8-1.3-.5-2.3-1.3-3.3-2.2-.9-1-1.7-2.1-2.2-3.4-.5-1.3-.8-2.7-.8-4.3 0-1.5.3-2.9.8-4.2.6-1.3 1.3-2.4 2.3-3.4 1-1 2.2-1.7 3.5-2.3 1.3-.6 2.8-.9 4.4-.9 1.1 0 2.1.2 2.8.5v6.2c-.5-.2-1-.4-1.5-.5-.5-.1-1-.2-1.5-.2-1.3 0-2.4.4-3.2 1.3-.8.9-1.2 2-1.2 3.4s.4 2.5 1.2 3.3c.8.9 1.8 1.3 3 1.3.4 0 .9-.1 1.4-.2.7.2 1.3 0 1.9-.4zM87.1 28.5v4.6h-1.4c-1.1 0-2.1-.1-2.8-.3-.8-.2-1.4-.5-1.8-1-.5-.5-.8-1.1-1-1.9-.2-.8-.3-1.8-.3-2.9v-9.8h5v9.4c0 .9.1 1.5.4 1.7.2.2.7.4 1.5.4h.4zM98.2 23.4v2.8H94c-.4 0-.8.1-1.1.3-.3.2-.4.5-.4.8 0 .8.7 1.2 2 1.2h3.6v4.6h-4.4c-2.1 0-3.6-.4-4.7-1.3-1-.8-1.5-2-1.5-3.8 0-.6.1-1.2.2-1.7s.4-1 .9-1.6c-.4-.4-.7-.9-.8-1.3-.2-.5-.3-.9-.3-1.3 0-.9.2-1.7.5-2.3.3-.6.8-1.2 1.4-1.6.6-.4 1.2-.7 2-.9.8-.2 1.6-.3 2.5-.3h4.4v4.6H94c-.6 0-1 .1-1.2.2-.2.1-.3.3-.3.6 0 .6.5.9 1.6.9h4.1zM105.6 28.5c.3-.7.5-1.4.7-2.1.2-.7.4-1.5.5-2.4.1-.9.2-1.9.3-3 .1-1.1.1-2.4.1-3.8h5c0 2-.1 3.8-.3 5.3-.2 1.6-.4 3-.8 4.2-.3 1.3-.7 2.4-1.2 3.4s-1.1 2-1.7 3h-5.3c-.7-.9-1.2-1.9-1.7-3-.5-1-.9-2.2-1.3-3.4-.3-1.3-.6-2.7-.7-4.2-.2-1.6-.2-3.4-.2-5.4h5c0 1.4 0 2.7.1 3.8.1 1.1.2 2.1.3 3 .1.9.3 1.7.5 2.4.2.8.4 1.5.7 2.2zM123.6 23.4v2.8h-4.2c-.4 0-.8.1-1.1.3-.3.2-.4.5-.4.8 0 .8.7 1.2 2 1.2h3.6v4.6h-4.4c-2.1 0-3.6-.4-4.7-1.3-1.1-.8-1.6-2.1-1.6-3.8 0-.6.1-1.2.2-1.7s.4-1 .9-1.6c-.4-.4-.7-.9-.8-1.3-.2-.5-.3-.9-.3-1.3 0-.9.2-1.7.5-2.3.3-.6.8-1.2 1.4-1.6.6-.4 1.2-.7 2-.9.8-.2 1.6-.3 2.5-.3h4.4v4.6h-4.1c-.6 0-1 .1-1.2.2-.2.1-.3.3-.3.6 0 .6.5.9 1.6.9h4zM129.8 33.1h-5v-16h5.8c.9 0 1.8.1 2.6.3.8.2 1.5.5 2.1.9.6.4 1.1.9 1.5 1.6.4.7.5 1.5.5 2.4 0 .6-.1 1.3-.3 1.9-.2.6-.6 1.2-1.1 1.6.6.5 1.1 1 1.3 1.6.2.6.3 1.4.3 2.3v3.4h-5.1v-3.4c0-.7-.1-1.2-.3-1.5-.2-.3-.6-.4-1.1-.4h-.4v-3.6h.4c.9 0 1.3-.4 1.3-1.3 0-.5-.1-.8-.3-1-.2-.2-.7-.3-1.4-.3h-.9v11.5zM146.9 20v5h-7.3v-5h7.3zM164.8 12.7v6.1c-1-.2-1.9-.4-2.7-.5-.8-.1-1.5-.2-2.2-.2-1.6 0-2.9.4-3.9 1.3-1 .8-1.5 2-1.5 3.4 0 1.5.4 2.7 1.1 3.5.7.8 1.7 1.2 2.9 1.2v-6.4h6.3V33c-.8.2-1.6.4-2.6.5-1 .1-1.8.2-2.6.2-1.6 0-3-.3-4.4-.8-1.4-.5-2.6-1.2-3.7-2.1-1-.9-1.9-2.1-2.5-3.4-.6-1.3-.9-2.8-.9-4.5 0-1.6.3-3.1.9-4.4.6-1.3 1.4-2.4 2.5-3.4 1-.9 2.3-1.7 3.7-2.2 1.4-.5 2.9-.8 4.5-.8.9 0 1.8 0 2.7.1.8.2 1.6.3 2.4.5zM179.4 33.1h-4.9v-3.5h-3.4v3.5h-4.9V24c0-1 .2-1.9.5-2.8.3-.9.7-1.7 1.3-2.3.6-.7 1.3-1.2 2.1-1.6.8-.4 1.8-.6 2.8-.6 1.1 0 2 .2 2.8.6.8.4 1.5.9 2 1.5.6.7 1 1.4 1.3 2.3.3.9.4 1.9.4 2.9v9.1zm-8.3-7.7h3.4V24c0-.7-.1-1.3-.4-1.6-.2-.4-.7-.6-1.3-.6-.6 0-1 .2-1.3.6-.3.4-.5.9-.5 1.7v1.3zM180.6 33.1v-8.8c0-1 .1-1.9.4-2.8.2-.9.6-1.7 1.2-2.4.5-.7 1.2-1.3 2-1.7.8-.4 1.7-.6 2.8-.6.8 0 1.5.1 2.2.3.7.2 1.3.6 1.8 1 .5-.4 1.1-.7 1.7-1 .7-.2 1.4-.3 2.2-.3 1.1 0 2 .2 2.8.6.8.4 1.4 1 2 1.7.5.7.9 1.5 1.2 2.4.2.9.4 1.9.4 2.8v8.8h-5v-8.6c0-1.3-.1-2.1-.3-2.4-.2-.4-.6-.6-1.1-.6-.5 0-.9.2-1.1.5-.2.4-.3 1.1-.3 2.3v8.8h-5v-8.8c0-1.2-.1-1.9-.3-2.3-.2-.4-.6-.5-1-.5-.5 0-.9.2-1.1.6-.2.4-.3 1.2-.3 2.4v8.6h-5.2zM212.8 23.4v2.8h-4.2c-.4 0-.8.1-1.1.3-.3.2-.4.5-.4.8 0 .8.7 1.2 2 1.2h3.6v4.6h-4.4c-2.1 0-3.6-.4-4.7-1.3-1.1-.8-1.6-2.1-1.6-3.8 0-.6.1-1.2.2-1.7s.4-1 .9-1.6c-.4-.4-.7-.9-.8-1.3-.2-.5-.3-.9-.3-1.3 0-.9.2-1.7.5-2.3.3-.6.8-1.2 1.4-1.6.6-.4 1.2-.7 2-.9.8-.2 1.6-.3 2.5-.3h4.4v4.6h-4.1c-.6 0-1 .1-1.2.2-.2.1-.3.3-.3.6 0 .6.5.9 1.6.9h4z"/><path d="M54 3.2s.6 2.1 4.7 2.6c0 0 .2.5.5.7 0 0-2.2-.5-6.2.1l-8.2-.5S52 5.4 54 3.2z" fill="#E2B782"/><path d="M40.3 5.6s-.3.5-.4.8c0 0 5.1-.6 9.1.8 0 0 5.5-1.1 7.3-1 0 0-1.9-1-2.6-1.8.2 0-6.2 1.9-13.4 1.2z" fill="#FBD59A"/><path d="M38.7 8.7s.7-1.6 4.9-1.2c0 0 3.5 0 3.4 2.9 0 0-.1 3.7-2.7 4 0 0-3.2.4-4.8-1.7.1.1-1.3-1.6-.8-4z" fill="#E9EAEB"/><path d="M39.1 8.4s.7-1.6 4.9-1.2c0 0 3.5 0 3.4 2.9 0 0-.1 3.7-2.7 4 0 0-3.2.4-4.8-1.7.1.1-1.3-1.6-.8-4z" fill="#FFF"/><path d="M60.2 8.7s-.7-1.6-4.9-1.2c0 0-3.5 0-3.4 2.9 0 0 .1 3.7 2.7 4 0 0 3.2.4 4.8-1.7 0 .1 1.3-1.6.8-4z" fill="#E9EAEB"/><path d="M59.8 8.4s-.7-1.6-4.9-1.2c0 0-3.5 0-3.4 2.9 0 0 .1 3.7 2.7 4 0 0 3.2.4 4.8-1.7 0 .1 1.3-1.6.8-4z" fill="#FFF"/><path d="M56.6 11.6c-.8 0-1.5-.6-1.5-1.4 0-.7.5-1.2 1.1-1.4-.3-.2-.7-.3-1.1-.3-1.4 0-2.5 1.1-2.5 2.5s1.1 2.5 2.5 2.5c1.3 0 2.4-1 2.5-2.4-.2.3-.6.5-1 .5z"/><ellipse cx="53.9" cy="12" rx=".3" ry=".5" fill="#FFF"/><path d="M42.4 11.6c.8 0 1.5-.6 1.5-1.4 0-.7-.5-1.2-1.1-1.4.3-.2.7-.3 1.1-.3 1.4 0 2.5 1.1 2.5 2.5s-1.1 2.5-2.5 2.5c-1.3 0-2.4-1-2.5-2.4.2.3.6.5 1 .5z"/><ellipse cx="45.2" cy="12" rx=".3" ry=".5" fill="#FFF"/><g><path d="M37.3 8.9s-2.5.5-2.1 3.2c0 0 .8 1.6 2.9 1.8 0 0-1.2 5.2 4.4 7.6 0 0 3.9 1.5 6.9 1.6 0 0 5.2 0 8.6-2.7 0 0 3.6-2.6 2.7-6.4 0 0 3.3-.6 3.1-2.7 0 .1.2-1.8-2.3-2.2 0 0 .2 3.9-3 5.6 0 0-4.6 1.7-7.1-1.3 0 0-1-1.3-1.2-3.6 0 0-.1-1.4-.9-1.3 0 0-.8-.3-.9 1.4 0 0-.1 4-3.3 5.1 0 0-4.5 1.3-6.7-1.7.2 0-1.1-2-1.1-4.4z" fill="#FBD59A"/></g><g><path d="M37.3 8.9s-2.5.5-2.1 3.2c0 0 .6-2 2.2-2.1 0 0-.1-.9-.1-1.1z" fill="#FDF5C9"/></g><g><path d="M38.1 13.9s-.2 0 .9.2c0 0-1.6 4.6 4.5 7.8.1 0-6.2-1.3-5.4-8z" fill="#FDF5C9"/></g><g><path d="M45.3 22.4s8.3 1.1 12.6-3.1c0 0 2-1.8 2.1-5.2 0 0 .5-.4.7-1 0 0 2.6 0 2.8-3.1 0 0 1 1.4-.2 2.7 0 0-.6.8-2.6 1.3 0 0 .8 3.2-2 5.7.1 0-4.6 5-13.4 2.7z" fill="#E2B782"/></g><g><path d="M41.8 25.7s-3.3 5.4 3.5 14.8c0 0-.3-.1-.6-.1 0 .1-7.6-9.9-2.9-14.7z" fill="#BCD631"/></g><g><ellipse cx="49.5" cy="30.8" rx="5.2" ry="5" fill="#FFF"/></g><g><path d="M51.6 40.7s1.1-.7 2.4-1.1c0 0 3.1-5 3.4-6.2 0 .1-3.5-1.8-11.2-1.9 0 0 3.8-.9 11.4.8 0 0 .7-3.6-.5-6.8 0 0 2.2 2.7 1 7.6 0 .1-1.3 4.2-3.7 7.1 0 0-2.2.5-2.6 1.4l-.2-.9z" fill="#6FA132"/></g><g><path d="M51.4 30.5c.2.1.4.1.6.2.3.1.6.2.8.4.1.2.2.5.1.8-.1.5-.6.7-1 .9-.2.3-.3.6-.6.6-.5.1-1.1-.2-1.3-.6-.1-.2-.2-.5-.2-.7-.1.9.1 1.7.4 2.4-.2 0-.5.1-.7.1-.8-.6-.8-1.6-.5-2.6-.2.3-.3.5-.5.7-.2.2-.5.5-.9.4-.5-.1-.6-.8-.6-1.3-.4-.2-1-.3-1-.8 0-.3.5-.5.8-.6.3-.1.7-.2 1-.3-.6-.2-1.4-.4-1.3-1 0-.3.3-.5.5-.7.2-.2.5-.3.7-.5.3-.3.7-1 1.3-.8.3.1.5.5.6.8.1.3.2.7.2 1 .2-.7.4-1.4.9-1.6.6-.3 1.2.4 1.3.9.5.3 1 .5 1 1.1 0 .3-.3.6-.5.8-.5.2-.8.3-1.1.4z" fill-rule="evenodd" clip-rule="evenodd" fill="#5E8C2A"/></g><g><path d="M55.4 31.8c-6.2-1-9.2-.3-9.2-.3 4.3.1 7.2.6 9 1.1.1-.2.2-.5.2-.8z" fill="#6FA132"/></g><g><path d="M52.9 31.5v.3c0 .1-.1.2-.1.3.7.1 1.1.2 1.6.3.1-.3.2-.5.2-.7-.7-.1-1.1-.1-1.7-.2z" fill="#E6E7E8"/></g><g><path d="M48.8 16.6c-.1 0-.2 0-.3-.1-.1-.1-.9-.8-.9-1.7 0-.5.2-1 .6-1.4l.1-.1c.6-.4 1.8-.8 2.9.5.2.2.2.6-.1.7-.2.2-.6.2-.7-.1-.6-.7-1.2-.5-1.4-.3-.2.2-.3.3-.2.5 0 .4.4.8.5.9.2.2.2.5.1.7-.3.3-.4.4-.6.4z"/></g><g><path d="M49.1 19.7c-.6 0-1.1-.1-1.1-.1-.3-.1-.5-.3-.4-.6.1-.3.3-.5.6-.4.1 0 2.4.4 4.2-1 .2-.2.6-.1.7.1.2.2.1.6-.1.7-1.3 1.1-2.9 1.3-3.9 1.3z"/></g><g><path d="M50.5 21.2h-.1c-.8-.2-1.6 0-1.6 0-.3.1-.6-.1-.6-.4-.1-.3.1-.6.4-.6 0 0 1-.3 2.1 0 .3.1.5.4.4.6-.1.3-.3.4-.6.4z"/></g><g><path d="M41.3 23.6l-.8-.4c-1.6 1.2-3.8 3.5-2.4 6.7 0-.1-.4-3.6 3.2-6.3z" fill="#BCD631"/><path d="M42 23c.2-.1.4-.2.6-.4l-.8-.4-.6.3c.2.2.5.4.8.5z" fill="#E97742"/></g><g><path d="M57.9 22.9c-.3-.2-.6-.4-1-.6l-.8.4 1 .5c.3-.1.6-.2.8-.3z" fill="#A60F26"/><path d="M61 26.6s-.6-1.5-2.3-3c-.2.1-.5.2-.7.2 1.5 1.1 3.1 3.1 1.7 5.9v1.8s2.2-2.3 1.3-4.9z" fill="#6FA132"/></g><path d="M54.1 1.8L53.8.1l1 1.5.2.2.5-.9.1 1.3 1.6.1-1.3.4"/><g><path d="M94.7 37v3.8h.5v2h-.8l-.1-1.2h-2.7l-.1 1.2h-.8v-2h.4c.2-.3.3-.7.4-1 .1-.5.2-1 .2-1.5V37h3zm-2.1 1.5c0 .5-.1 1.1-.2 1.5-.1.3-.2.6-.3.8h1.5v-2.9h-1v.6zM98.5 39.7h-1.7v1.1h1.9v.9h-3V37h2.9v.9h-1.8v1h1.7v.8zM100.3 37.9H99V37h3.6v.9h-1.3v3.8h-1.1v-3.8zM106.4 41.5c-.2.1-.6.2-1.2.2-1.6 0-2.4-1-2.4-2.3 0-1.6 1.1-2.5 2.5-2.5.5 0 1 .1 1.1.2l-.2.8c-.2-.1-.5-.2-.9-.2-.8 0-1.5.5-1.5 1.5 0 .9.6 1.5 1.5 1.5.3 0 .7-.1.9-.2l.2 1zM108.1 37v1.9h.1l1.3-1.9h1.3l-1.6 2.1c.6.1.9.6 1.1 1.1.2.5.3 1 .5 1.5h-1.1c-.2-.3-.2-.7-.4-1-.2-.5-.4-.9-.9-.9h-.2v1.9h-1V37h.9zM112.2 37v1.4c0 .7 0 1.5-.1 2.1.2-.5.6-1.2.8-1.7l1-1.8h1.1v4.7h-1v-1.4c0-.7 0-1.4.1-2-.2.6-.5 1.2-.8 1.7l-.9 1.7h-1.2V37h1zM117 37v1.4c0 .7 0 1.5-.1 2.1.2-.5.6-1.2.8-1.7l1-1.8h1.1v4.7h-1v-1.4c0-.7 0-1.4.1-2-.2.6-.5 1.2-.8 1.7l-.9 1.7H116V37h1zm.6-1.1c0 .3.1.4.3.4.2 0 .3-.2.3-.4h.7c0 .6-.4.8-1.1.8-.6 0-.9-.3-1-.8h.8zM123.2 37v1.4c0 .7 0 1.5-.1 2.1.2-.5.6-1.2.8-1.7l1-1.8h1.1v4.7h-1v-1.4c0-.7 0-1.4.1-2-.2.6-.5 1.2-.8 1.7l-.9 1.7h-1.2V37h1zM128 37v1.8h1.7V37h1v4.7h-1v-1.9H128v1.9h-1V37h1zM132.6 37.9h-1.3V37h3.6v.9h-1.3v3.8h-1v-3.8zM138.3 39.7h-1.7v1.1h1.9v.9h-3V37h2.9v.9h-1.8v1h1.7v.8zM139.2 37.1c.3-.1.8-.1 1.4-.1.6 0 1.1.1 1.4.4.3.2.5.6.5 1.1 0 .5-.1.9-.4 1.1-.4.3-.9.5-1.5.5h-.4v1.7h-1v-4.7zm1 2.1h.4c.6 0 .9-.3.9-.8 0-.4-.3-.7-.8-.7h-.4v1.5zM144.3 37v1.8h1.7V37h1v4.7h-1v-1.9h-1.7v1.9h-1.1V37h1.1zM150.7 39.7H149v1.1h1.9v.9h-3V37h2.9v.9H149v1h1.7v.8zM152.6 37.9h-1.3V37h3.6v.9h-1.3v3.8h-1v-3.8zM156.4 39.5v.7h-1.8v-.7h1.8zM161 39.9V38c-.2.6-.3 1.3-.5 1.8l-.6 1.8h-.9l-.5-1.8c-.2-.6-.3-1.2-.4-1.8 0 .6 0 1.3-.1 1.9l-.1 1.8h-1l.3-4.7h1.4l.5 1.6c.2.5.3 1.1.4 1.7.1-.5.3-1.2.4-1.7l.5-1.5h1.4l.2 4.7h-1v-1.9zM164 40.5l-.3 1.2h-1.1L164 37h1.4l1.5 4.7h-1.1l-.4-1.2H164zm1.2-.8l-.3-1c-.1-.3-.2-.6-.2-.9-.1.3-.1.6-.2.9l-.3 1h1zM170.2 37v.9h-1.8v3.8h-1.1V37h2.9zM171.4 40.5l-.3 1.2H170l1.4-4.7h1.4l1.5 4.7h-1.1l-.4-1.2h-1.4zm1.2-.8l-.3-1c-.1-.3-.2-.6-.2-.9-.1.3-.1.6-.2.9l-.3 1h1zM174.7 37.3c.3-.2.8-.4 1.5-.4 1 0 1.6.5 1.6 1.2 0 .6-.4 1-.9 1.1.6.1 1.1.5 1.1 1.1 0 1-1 1.4-1.9 1.4-.5 0-1-.1-1.4-.3l.2-.8c.2.1.7.3 1.1.3.5 0 .9-.2.9-.6 0-.5-.5-.6-1-.6h-.4v-.8h.4c.5 0 .8-.2.8-.6 0-.3-.3-.5-.7-.5-.4 0-.8.1-1 .3l-.3-.8zM179.6 37v1.4c0 .7 0 1.5-.1 2.1.2-.5.6-1.2.8-1.7l1-1.8h1.1v4.7h-1v-1.4c0-.7 0-1.4.1-2-.2.6-.5 1.2-.8 1.7l-.9 1.7h-1.2V37h1zM184.4 37v1.8h1.7V37h1v4.7h-1v-1.9h-1.7v1.9h-1.1V37h1.1z"/></g></svg><svg height="38.8" viewBox="-252 378 106 39" width="105.9" x="218" y="155"><path d="M-146.7 395.6c-.5 6-.5 13-6.4 12.1-1.4-2.5-.2-6.4 0-9.2-2.6-1.6-8.9.5-10.8-1.9-1-2.3.6-4.3 1.3-6.7 1.3-4.5 1.2-9.3 4.1-12.1.1-.3.6-.2.6-.6.5.3 1.2.1 1.6.3 4.6 2.7-1.5 9.7 0 13.7 3.1.7 3-2.2 3.5-4.1 1-4.1 1.6-8 6-8.9 1 4 .7 10.4.1 17.4zm-15.9 0h.6v-.6h-.6v.6zm3.5-6.6c-.5 1.6-2.5 1.8-2.9 3.5 1-.4 4.2-3.1 2.9-3.5zm-1.9 6.3c2.1-.3 2.6-2.3 3.8-3.5-1.8-.5-2.9 2.2-3.8 3.5zm7 .7c-1.7.7 1.1.8 0 0zm-1.9.3h-1v.6h1v-.6zm2.5-4.8c-1 .7-3.9 2.7-1.6 3.8-.3-1.9 2.6-2.3 1.6-3.8zm4.5 9.5c-.2 1.7-1.4 2.4-1.9 3.8 1-.6 3-2 1.9-3.8zm0-2.8c-.2.4-1.6 2.3-1 1.6.4-.3 1.8-1.1 1-1.6zm.3-3.2c-.6 1.5-2.3 2-2.5 3.8.9.4 4.1-2.6 2.5-3.8zm-3.5 6c0 .4 0 2.3.3 1.3 0-.4.1-2.3-.3-1.3zm.3-10.1c1.1.4 2.1-1.8 1-1.6.2 1.1-1.3.4-1 1.6zm0-1.9c1.4-.3 2-1.4 2.5-2.5-1.2.4-2 1.2-2.5 2.5zm1.6 3.1c1.2-.2 1.7-1.1 1.9-2.2-1.2.2-1.8.9-1.9 2.2zm1.9 0c-1 1.5-2.4 2.5-2.9 4.5 1.3-.4 4.1-3.8 2.9-4.5zm-29.6 8.6c-1.8.2-4.3.9-6-.3.1-3.6 5.2-4.9 8.9-5.4 2.2-.3 5.2-.4 6.4 1.3.2 4-5.4 4-9.3 4.4zm7.7-3.8c-.8 1.2-2.6 1.4-3.5 2.5 1.6-.1 4.3-.9 3.5-2.5zm-5.4-4.8c-.4.1-.7.5-1.3.6-.6.1-.9-.4-1.3-.3-.8.2-1.5.9-2.2 1-1.6 0-3.3-.6-3.8-1 .6-5.1 9.4-6.8 14.9-5.4 2 3.5-1.8 4.4-6.3 5.1zm-2-1.6c-.8-.1-1 .5-1.3 1 .9.1 1.4-.1 1.3-1zm-1.5.4c.9-.7 2.1-1.1 2.5-2.2-1.1.3-3.2 1.2-2.5 2.2zm3.8-.7h-.6c0 .4-.4.4-.3 1h.6c0-.4.4-.5.3-1zm2.5.7c.6.4 2.3-.1 2.2-1.3-.9.2-1.9.4-2.2 1.3zm-19.7 18.4c-3.3.7-7.3 2.4-10.2 1-1.7-3.7.9-7.3 3.2-11.8 1.4-2.7 5.8-9.5 2.5-11.1-3.4-1.7-2.6 3.6-7 2.5-3-4.4 2.6-9.5 7-9.5 5.2-.1 8.6 4.6 7 9.9-.8 2.5-2.5 5.2-4.1 7.3-1.5 2-4.4 4.1-2.2 7 3.3-.5 9.2-3.4 11.5 0-.3 3.3-4.6 4-7.7 4.7zm-8.9-25.4c0 .8-1.6 1.5-.6 2.2.1-.6 1.1-2 .6-2.2zm9.5 6.3c1.7-.3 1.9-5.2 0-5.4.4 1.5.6 4 0 5.4zm-1.9 4.5h.6c0-.4.4-.4.3-1h-.6c0 .4-.4.5-.3 1zm0-1c.1-.5.5-.5.6-1-.6-.2-1.4.9-.6 1zm-1.6-10.2c-.8 0-1.2.5-1.3 1.3.8-.1 1.6-.2 1.3-1.3zm-6 21c-.6.6-1.1 2.9-.3 3.8.2-.9 1.1-2.8.3-3.8zm.6 5.1h1v-.6h-1v.6zm1.9-7.3c0 .6-.9.4-.6 1.3.7.2 1.3-1.2.6-1.3zm-.9 5.7c1.2-.6 2.3-1.3 2.9-2.5-1.8 0-2.7 1-2.9 2.5zm1.3 1c1-.2 1.6-.7 1.6-1.9-1 .2-1.7.7-1.6 1.9zm2.8-1.9c.7.1 1-.3 1-1-.9-.2-.6.7-1 1zm-21.3-3.5c.1 3.1-.8 7-5.1 6.7-1.8-1.1-1.2-4-1-6.4-2-1-6.1 1.2-7-1.3.4-2.5 2.9-3.7 5.4-4.1 1.4-.3 3.2.6 4.1-.6-.7-.7-1.3.4-1.9-.6-.8-4.8 2.2-8.7 5.1-7.3 2.2 1.1 1.5 4.7 1.3 8 1.8.5 6-.8 6.7 1.6-.4 3.4-5.5 2.1-7.6 4zm-10.5-1.3c-.9-.4.8-.8.6-1.6-1.3-.5-1.7 2.7-.6 1.6zm2.2.7c.5-.5 1.3-.8 1.3-1.9-.9.1-2.6 1.4-1.3 1.9zm3.2 4.7c1 .5 1-2.1 0-1.6v1.6zm-1.3-6c1.6-.2 2.7-.9 2.9-2.5-1.1-.6-2.3 1.5-2.9 2.5zm2.3 1.9c.1-.8.9-1 1-1.9-1.1-.1-2.2 1.6-1 1.9zm.9-10.5c.1-.6.9-.6 1-1.3-.7-.1-1.8 1-1 1.3zm-1.2 12.1c1.3-.3 2.2-1 2.5-2.2-1.1.4-2.5.6-2.5 2.2zm5.4-3.2c.8-.6 2.6-.3 3.5-1-1.3-.9-3.9.4-3.5 1zm5-2.2c-1-.1-.9.8-1.3 1.3.8-.2 1.6-.3 1.3-1.3zm-32.1 10.5c1.1.8 2.6-.8 4.5-.6 1.2.1 3.5 1.3 3.5 1.9 0 .6-2.5 2.3-3.2 2.5-2.8 1-7.9.3-9.9 1.9-1.1-.8-2.9-.9-3.8-1.9-.3-7.1 7.5-10.5 10.5-15 .3-.5.2-1.4.6-2.2.6-1.2 2.3-3.5 1.6-6.4-.8-3.1-5.3-1.9-7.3.3-.6.7-1.5 4.1-2.9 4.1-1 .1-2.1-1.6-2.2-2.9-1.1-8.4 14.1-9.2 17.8-3.8 1.4 2 1.4 4.9 1.3 6.4-.8 7.6-9.2 9.4-10.5 15.7zm5.4 1.9h.6v-.6h-.6v.6zm1.9-14c.4-.5 2.3-1.1 1.3-1.9-.1.7-1.9 1.4-1.3 1.9zm-1.9 1.3c-.2-.6 1.8-.7.6-1.3 0 .4-1.6.8-.6 1.3zm-.9.3c-2.3 1.1.9-.5 0 0zm-11.2 13.6c0 .9 1.9 1.3 1.9.3-.7.1-.9-.5-1.9-.3zm6.4-6.3c-1.5 1.9-5.7 2.8-5.4 5.4 1.6-1.8 5.2-3.3 5.4-5.4zm0-3.5c-1.7 1.7-3.8 3-4.8 5.4 2.6-.8 3.6-3.2 5.4-4.8 0-.4-.1-.7-.6-.6zm.3-1.3c1.1.1 1.7-.5 1.6-1.6-.9.2-1.4.7-1.6 1.6zm1.3 2.2c.8 0 2-1.1 1.3-1.6-.4.7-1.4.6-1.3 1.6zm3.2-17.8c0 .5-.8.2-.6 1 .6.3 1.4-.8.6-1zm2.5 1.3c-.5.7-1.6.7-1.6 1.9 1.1.2 2.4-1.2 1.6-1.9zm2.2 3.5h-1c2.1 4.6-4.2 5-6 8.3 2.5 0 4.4-4.4 7.3-4.1-.3-1.6.4-2.6-.3-4.2z" fill="#D8D8D8"/></svg><svg height="35" viewBox="-258 379 94 35" width="94" x="325" y="155"><path d="M-169.6 408.5c-2.3 0-5.6-1.5-5.6-5.5 0-3.5 2.6-6.8 3.8-8.1v-6.4l-41.1 5.3h-.4l-43.2-5.5c-.9-.1-1.6-.9-1.6-1.8s.7-1.7 1.6-1.8l43.2-5.5h.5l43.2 5.5c.1 0 .2.1.3.1.1 0 .2 0 .3.1.1.1.2.1.3.2.1.1.2.1.2.2.1.1.2.2.2.4 0 .1.1.1.1.2.1.2.1.4.1.7v8.5c1.2 1.3 3.8 4.5 3.8 8.1-.1 3.8-3.5 5.3-5.7 5.3zm-43.3-25.8l-28.7 3.7 28.7 3.7 28.7-3.7-28.7-3.7zm43.3 15.8c-.9 1.3-1.9 3-1.9 4.5s1 1.8 1.9 1.8c.9 0 1.9-.4 1.9-1.8-.1-1.6-1-3.3-1.9-4.5zm-71.5-6.6c1 0 1.9.8 1.9 1.8v11.7c3.1 1.3 12.9 4.9 26.3 4.9s23.2-3.6 26.3-4.9v-11.7c0-1 .8-1.8 1.9-1.8 1 0 1.9.8 1.9 1.8v12.9c0 .7-.4 1.3-1 1.6-.5.2-11.9 5.7-29 5.7-17.2 0-28.6-5.5-29-5.7-.6-.3-1-1-1-1.6v-12.9c-.2-1 .7-1.8 1.7-1.8z" fill="#FFF"/></svg><svg height="77.9" viewBox="-269 359 73 78" width="72.1" x="1" y="200"><path d="M-205.2 385c-3.1 4.1-7.7 9.7-11.6 14.9-2.9 3.8-5.7 7.9-8.8 11.8-6.8 8.7-17 16.3-23.2 24.2-1.1.2-2.2-.8-3.2.1-3.2-3.7-9.7-6.4-13-11.4.8-2.3 4.7-4.8 5.5-7.2-.5-2.8-2.8-4.2-4-6.2-.7-1.2-1.2-2.8-1.8-4.2-3.2-6.9-4.9-12.6-3-20.1 2-7.9 3.5-14.9 13.4-21.9 10.9-7.6 22.8-10.4 34.6-1 1 .8 2.4 1.4 2.3 3.1 1.8-1.1 4.4-4.7 6.9-5.9 5.8 5.6 9.5 8.1 14.1 11.9-2.1 4.3-5.2 7.9-8.2 11.9zm-11.7 12.2c.9-.9 1.9-1.9 1.5-2.7-.4.9-2.7 1.9-1.5 2.7zm-8.9 9.7c-1.7 1.3-3.6 3.1-3.5 4.9 1.6-1.6 3.2-3.3 3.5-4.9zm-8.5 12.1c.5-.5 2.6-1.1 2-2.7-1.3 1.5-2.7 2.8-3.3 3.6-1.5 2 .3.1 1.3-.9zm-8.7 7.8c-2.6 2.7 1.2-1.3 0 0zm2.7-66.9c-.5.3-1.1.3-1.6.6.4.9 2.1.2 1.6-.6zm27.3 4.6c-2.7.9-3.9 5-5.8 6.4-1.1-1-2.2-2-3.3-3.1-1.9 1.7.8 3.2-.9 4.8-1.8-1.3-.3-4.3-1.6-6.1-1.3-1.7-3.5-2.3-5.7-2.7-.4 1.6 1 3.2.2 4.8-2.1-1.8-.5-3.7-2.1-5.5-2.4-.7-4.9-1.6-7.2-.5.2 1.3 2 2.6 1.5 3.9-2.5.5-2-3.1-3.1-4.4-1.6.8-3.4-.2-5 1.5-.4 1.3 2 2.4.7 3.7-1.9-.2-.6-2.5-2.3-3.6-2.2 1.4-4.3 2.4-6.4 4.8.1 1.3 2.3 1.8 2.2 2.6-1.6 1.8-2.1-.7-3.5-1.7l-3.3 3.6c1 1.2 3.6 2.3 1.8 3.7-.9-.8-1.9-1.7-2.8-2.5-2 2.4-4.1 5.4-5.5 8.8 1.3.9 3.9.2 3 2.3-1.1 1.1-2.3-.2-3.5-.6-1.4 2.3-1.5 4.5-1.6 6.7 1.1.6 3.5-.1 3.8 1.4-1.3 1.4-2.7.2-4 1-.1 1.7 0 3.4 1 5 1.3.5 2.5-.8 3.8.9-1.1 1.6-2.3.4-3.4 1.5.7 1.2.5 2.5 1.8 3.7 1.4.6 2.6-1.5 4 .1-1.1 1.8-2.3 1-3.4 2.5 1.2 1.3.8 2.6 2.6 3.9 1.3-.1 2.6-1.3 3.9-1.5.3 1.9-2.5 2.6-2.8 3.6 1.8 1.5 2.3 3.1 2.3 4.7-1.7 2.2-4.9 4.5-5 6.6 3.8 3.7 7.6 6.6 11.3 8.3 1.7-.9 3.1-3.3 4-5-1.6-1.4-5-2.4-5-4.6 2-.8 4.2 2.9 6.3 3.7 1.9-1.4 5-4.7 6.9-7.5-1.7-2.4-6.6-2.8-5-5.6 2.1.8 4.3 3.9 6.3 4.3 3.1-3.1 4.7-6.1 7.9-9.1 0-1.4-5.8-3.3-4.8-5.9 2.4-.5 3.7 4.7 6.3 4.3 4-4.2 6.5-7.8 9.9-11.4-1.4-2.4-6.9-3.2-4.3-5.9 1.8 1.8 3.7 3.4 5.5 4.6 3.1-3.9 6.6-7.7 9.1-11.6-1.6-2.3-6.2-2.4-4-5.2 1.7 1.2 3.3 2.3 5 3.5 2.3-2.9 3.8-5.7 5.2-8.5-3.6-3.1-7.3-6-11-8.7zm-38.2 44.6c-9.7-8-8.9-23.9.5-32.2 7.9-7 18.7-7.4 27.2 1.5-8.6 9.9-19.6 21.1-27.7 30.7zm12.5-36c-5.8.5-13.6 6.2-15.4 12.4-.4 1.2-.3 3.9-.3 5.9 0 4.7.8 10.7 4.9 14.2 7.7-9.6 15.8-18.6 24.2-26.4-4-3.4-9.2-6.4-13.4-6.1z" fill="#D8D8D8"/></svg><svg height="65.8" viewBox="-271 365 69 66" width="68.4" x="75" y="200"><path d="M-202.7 364.2c.2 2.2-.8 4.6-1.5 6.6-4.3 12.8-7.2 27.5-10.7 42.3-1 4-2 7.7-2.2 12.9-6-1.8-10.5-5.1-15.8-7.7-2 1.3-2.8 3.7-4 5.9-1.1 2-1.8 4.6-3.7 5.9-3.2-2.6-3.7-7.9-5.1-12.5-.4-1.3-1.3-2.6-1.8-4-.6-1.4-.7-2.9-1.5-4-2.7-4-7.9-4.8-12.5-6.6-1.6-.7-3.1-1.9-4.8-2.6-1.6-.7-3.7-.6-4.8-2.2 9-8 21.8-10.8 33.1-16.5 5.6-2.9 11.3-5.5 16.9-8.1 6.3-2.9 12.5-5.1 17.6-9.2.4-.2.6-.2.8-.2zm-39.6 52.6c1.3-1.4 1.5-3.9 4-4 .8-1.4-.5-1-.4-2.6.3-2.4 1.9-5.5 1.5-7.3-2.3 2.1-1.2 9.6-4.4 9.5.4-.8 1.3-3 .4-4-.4 3-2.6 4.2-2.9 7.4 1.6.1 1-2 2.2-2.2-.2.7-2.2 2.9-.4 3.2zm21.6-41.9c-4.2 2-8.7 3.8-12.9 5.9-12.1 6.1-24.8 9.8-34.5 17.3 6.5 3.1 14.2 4.9 19.1 9.6 15.1-11.7 29.2-24.5 41.9-38.6 0-.2-.1-.4-.4-.4-4.3 1.7-8.5 4-13.2 6.2zm-16.9 38.9c5.1 3.4 11.3 5.6 16.9 8.5 3-17.3 9.3-31.4 12.9-48.1.4 0 .3-.5-.4-.4-9.3 13.8-20.8 25.5-29.4 40zm21.7-33.4c1.4-1.4 4.6-3 4.4-4.8-1.5 1.1-4.4 4.6-4.4 4.8zm-6.6 9.6c-.1-1.2 1-1.2.7-2.6-1.2-.2-2 2.4-.7 2.6zm-3.3 2.5c0-.2.1-.4.4-.4 0-.4-.1-.9-.7-.7 0 .5-.1 1.1.3 1.1zm-4 1.9c1 .1 1.2-.5 1.1-1.5-1 0-1.8.8-1.1 1.5zm2.2 1.4c.8.9 3.3-1.9 1.5-2.6-.5 1-1.5 1.3-1.5 2.6zm-8.1 2.6c1.5-.8 3-1.7 4-2.9-1.7.5-2.8 1.8-4 2.9zm3.3 4c2.3-.3 2.9-5.7 2.2-6.6-1.4 1.6-2.2 3.7-2.2 6.6zm-1.1-.7c0-.9 2-3.1.4-3.3.3 1.3-1.6 2.3-.4 3.3zm-4.4 8.8c2.5-.8 2.4-4.6 2.9-7.3.3-1.6 1.6-3.5.4-4-2 2.8-2.3 7.4-3.3 11.3zm-7.4 1.5c.6-2.9 3.6-5.1 2.9-8.1.9-.1 3.3-2.1 1.8-2.2-2.5 2.2-5.3 6.1-4.7 10.3zm10.7-6.2c1.1-.1 1.1-3.3.7-3.7-.5 1-.9 2-.7 3.7zm-7 1.8c1.8-.3 2.7-3.4 2.2-4.8-1.5.9-2.1 2.5-2.2 4.8zm-5.1 2.2c.2-.2.9-1.7 0-1.8-.3.2-.9 1.7 0 1.8zm2.2 4.4c.3-1.8 2.5-3.7 1.5-5.5-.9 1.2-2.3 3.8-1.5 5.5zm6.6 3.3c.1-.2.9-1.4 0-1.5.3.7-1.1 1.3 0 1.5zm-5.2 3.3c.7-1.2 0-4.2-1.5-4.4-.4 1.1.3 3.8 1.5 4.4zm4.8 1.9c.7-2.1 2.8-2.8 2.6-5.9-3.1.1-3.1 4-2.6 5.9z" fill="#D8D8D8"/></svg><svg height="47" viewBox="-274 373 63 47" width="63" x="144" y="200"><path d="M-211.3 403.7c-.3 1.2-2.1 2.8-3.7 4.5-2.1 2.3-4.2 4.9-7.3 6.9 0 .8.6 1.8.8 2.6-2 .3-2.5 2.7-3.4 2.3-1.2.1-1.6-1.2-2.3-1.8-3-2.6-6-4.4-8.5-7.3-2.5-2.9-4.5-6.3-7.4-10-1.6-2-6.4-3.2-8.9-3.9-3.5-.9-7.1-1.4-10.1-3-.8-.4-1.6-1.2-2.5-1.7-2.2-1.3-5.3-2.9-7.1-5.6-.7-1-1.9-3.1-2.2-4.8-.2-1.3.5-3.1.8-4.4.3-1.4.7-2.7.9-4.2 7.2 1.4 13.9 4.2 20.7 6.9 4.2-2.8 8.2-4.1 12.5-6.2 3.9-.6 7.2-1.6 10.7.3 2.7 1.5 5.8 5.4 8.2 8.3.9-.4 1.7-.9 2.6-1.3 1.2 1.7 2.5 2.9 3.4 5.3-.5.9-1.5 1.1-1.8 2.3 2.5 3.2 4 6 4.6 9.3.3 2.1.6 3.2 0 5.5zm-6 5.7c-.4-1-2.3-.9-3.6-1.2-1.5-.3-3-.9-4-.4.2 0 .3.1.4.3 2.5.2 4.5 1.8 7.2 1.3zm-5.6-4.2c-1-.9-2.4-.3-3.4-1-1.3 1.1-2.9 2.1-3.3 3.5.7-.3 1.9.6 2.3-.3-.3.3-1.1-.4-.6-.8 1.9 0 4.4 1 6 .2-1.7-.5-3.6-.4-5.1-1.5 1.5-.6 2.5.5 4.1-.1zm.6 8.8c1-1.2 2.8-2.2 3.7-3.4-2.7-1.5-5.7-2.2-8.9-2.3 1.8 2 5.6 1.2 6.9 3-2 0-4.1-1.3-6-1.8-1.2-.3-3.1-.7-3.9-.2 2.6 1.6 7.1.6 8.7 3.4-.8.1-2.8-.2-2.2-1.1-2.2 0-2.9-1-5.9-1.1 1.9 1.3 4.2 1.3 6.2 2.3.6.1.7 1.6 1.4 1.2zm-1.3-.4c-2.5-.1-5.3-3-7.4-1.9 1.2.3 2.3 1.4 3.7 1.9 1.2.5 2.9 1.1 3.9.8-.2-.3 0-.5-.2-.8zm-1.6 5.4c.6-1.1 3.2-1.5 1.9-3.1-1.6.4-1.9 1.9-2.8 1.9.2.7.7.4.9 1.2zm-1.8-2.1c-.7-.8-2.2-2.1-2.7-1.6.9.5 1.6 1.4 2.7 1.6zm2.3-1.2c-.1-.3.3-.4.2-.6-1.1 0-2.2-.9-3.3-1.3-1.1-.4-2.9-.9-3.4-.4 2.1.8 3.9 3 6.5 2.3zm-8.3-3.1c.5-.3.8-.4 1.2-.3-.2-.9-.8-.7-1.1-1.6.9-.2 1.4-.6 1.5-1.3-1.2-.1-2.1 1.1-2.9 1.7.4.7 1 .7 1.3 1.5zm-10.9-20.3c1.9-1.3 3.9-2.5 5.3-4-3.7-.5-6.3-3.9-10.3-3.5.9 1.2 2.5 1.8 3.9 2.4 1.3.6 3 .8 3.7 1.9-2.7-.1-4.6-2.4-7.3-2.3 1.5 2 4.7 1.7 5.7 3.3-1.3-.2-2.5-.9-3.8-1.1 1.1 1.3 2.7 1.2 4 2-.5.5-1.8.6-1.2 1.3zm-3.7-10c-.5-.3-1.2-.8-2.4-.4.8.9 4.4 1.5 2.4.4zm-2.4 3.3l.3.6c.1-.1.3-.1.4-.2l-.3-.6c-.1.1-.2.1-.4.2zm2.1-1.3c-.2-.7-.7-.7-1.2-.8-.2.7.7.7 1.2.8zm-.3-1.2c.1.3.3.4.5.5 2.9 1.2 5.6 3 8.6 3.8.4.5.8 1.3 1.6.5-.3-1-1.4-.9-2.3-1.3-2.7-1.2-5.5-3.2-8.4-3.5zm-.9 4.8c.1.1.1.3.2.4.1-.1.3-.1.4-.2-.1-.1-.1-.3-.2-.4-.1 0-.2.1-.4.2zm2.2 3.2c.2.4.3 1.2.9.6-.3-.5-.5-.7-.9-.6zm1.5-.2c0 .8 1.2.9 1.2.2-.5.1-.8-.4-1.2-.2zm-19.7-14.7c-1.5-.4-3-1.2-4.5-1-.7.7-.3 1.7-.7 2.5-.2-.5-.5-.6-1-.3-.3 2.8-1 6 .6 8.8.9 1.4 2.9 2.9 4.6 3.9 1.6.9 3.6 1.6 5.2 2.3 3.9 1.6 7.8 2.9 10.8 3.8 1.7-1.1 3 .8 4.7.9-2.6-5-6.2-10.7-6.3-15.9-4.4-1.8-9.1-3.7-13.4-5zm14.9 4.1c.6 1 1.7.4 2.7 1.1 0 0-.2.4 0 .5 3.4 2.1 7.4 3.7 11.2 5.2.4-.1 2-1.2 2.9-1.2-4.3-1.9-8.3-4.4-13-5.1 2.6 1.6 5.8 2.8 8.4 3.9.9.4 1.9.8 2.4 1.5-4.2-.9-7.8-3.6-11.8-4.9-.1-.8-1.7-1.4-2.8-1zm1.8-.8c1.1.8 3 1.6 4 1-1.4-.3-2.4-1.5-4-1zm4.9.7c-.1-.1.1.5.3.6 2.9 1.9 7.1 2.5 10.2 4.8.5-.4 1.8-.6 1.8-1.2-1.1-.1-1.7.4-2.9.1-2.8-2.1-6.2-2.9-9.4-4.3.6-.4.9.3 1.4.1-1.5-1.1-3.2-1.6-4.9-1.8.8 1.1 2.1 1 3.5 1.7zm11 3.7c-2.8-1.5-5.6-3-8.6-3.8 2.7 1.6 5.5 3.3 8.6 3.8zm-10.2-7.5c-.5.3-1 .5-1.5.8.3.7 1 .3 1.6 0-.2-.4-.2-.6-.1-.8zm2.2-.9c-.7.5-1 .1-1.6.5.3.6 1.9.2 1.6-.5zm-1.8 2.3c.5.8 1.4.3 1.8 1.5-1.7-.3-3.1-1.7-5.1-1.5 1.8 1.4 4 1.7 6 2.4.3.3.2-.2.3-.4 3.3 1.4 7.2 5.2 11.2 4.1-3.1-2.4-6.5-3.7-10-5 2.8 1.9 5.9 2.9 8.7 4.5-1.2.3-1.9-.7-2.7-1.1-2.6-1.4-6.1-2.3-8.3-3.7.1 0 .5-.1.5 0-.2-.8-2-1.1-2.4-.8zm3.7-3c-.5.5-1.5-.1-1.5.8.8 0 1.3.6 2.3.2-.3-.5-.7-.3-.8-1zm8.3 6.4c.7.3 2.2 1.4 2.2.5-3.2-1.3-6.1-3.7-9.6-4.1 2.1 1.3 5.1 2.6 7.4 3.6zm1.4-2c-2.4-1.8-4.9-3.4-7.6-4 2.1 2.4 5.1 2.2 7.3 4.4-.3-.4-.1-.5.3-.4zm-6.1-4c1.8 1.1 3.7 2.3 5.7 2.8-1.7-1.2-4.2-2.9-5.7-2.8zm3.5.9c.8.1 1.3 1.2 2.2 1.1-.6-.4-1.9-1.6-2.2-1.1zm1.3-1.7c.8.7 1.6 1.4 2.5 1.7-.7-1-1.6-1.3-2.5-1.7zm1.9 4.4c.1.8 1.5 1.3 2.4 1.5-.7-.7-1.5-1.2-2.4-1.5zm-.6 1.4c-2.7-1.4-5.9-4.2-8.7-3.4 3.9 1.8 8 3.3 11.6 6 .3-.9-.5-.3-.8-1 .6 0 .4-.2 1.2-.3-.8-1-3-2.4-3.3-1.3zm5 1.5c.2.7.7.9 1.3.4-.3-.5-.7-.6-1.3-.4zm.8 1c.2.5.5.6 1 .3-.2-.6-.7-.2-1-.3zm3.7 4.3c-.2-.4-.4-.5-.8-.4-.2 1.5-.1 4-1.5 4.5-.2-1.6 1.2-2.7.4-4.5-.4-.5-1.1.1-1.5-.3.4-.9 1.5-.1 1.9-1-.4-1.4-1.3-1.1-2-1.4-.8.1.2.8-.6.9-3.6-1.2-8.2.9-12 3-3.6 2-7 4.7-9.7 7 .5.2.9-1 1.4.1-.3.8-.9.5-1.3 1.2 3 5.3 6.4 9.6 9.7 14 1.9-.6 3.6-2 5.1-3.3 4.2-3.8 8.1-8.5 10-12.8 1-2.2 1.3-4.6.9-7zm-3.2 12.4c.8 1.1 2.2.2 3.3.2 1.4 0 2.9.9 3.8 0-2.6-.6-4.4-.3-7.1-.2zm6.7-.7c-.5.2-.7-.4-1.2-.2.1.7 1.9.4 1.2.2zm-2.2-2.6c-1 .4-1.4-.9-2.5-.1.5.7 2.1.8 2.5.1zm-.4-8.4c.1.3.3.6.4.9.9-.3.3-1.5-.4-.9zm-.2 4.4c.1.6 1.2.5 1.1 0-.5.2-.6-.5-1.1 0zm2.6-5.1c-.2-.3-.3-.8-.8-.4.2.4.4.5.8.4zm-.8 3.9c.4-.2.6.5 1.1 0-.1-.7-1.2-.6-1.1 0zm-.4.7c.7.7 1.5 1.2 2.6.9-.5-1.4-1.7-.8-2.6-.9zm-1 1.3c0 .5 1 .4.4.9-.4-.1-.8-.4-1.4-.1-.3.4-.9.8-.3 1.5 1 0 .5-.4 1.2-.9.6.4.9 0 1.4-.4 1.1.4 2.1.9 3.3.8-.3-2.2-3.1-1.2-4.6-1.8zm1.7 2.4c1.2.2 2.2.9 3.6.7-1-.5-2.8-1.5-3.6-.7zm-.9.8c.6.8 1.6.7 2.5.6.5.2 2.4 1.1 2.2 0-1.9.5-2.9-1.3-4.7-.6zm4.8 1.6c-2.2.3-3.9-1-6-.8 1.3 1.8 3.6.8 5.2 1.7-1.1.4 1.1.9-.4 1.3 0 .5 1 .4.4.9-2 .6-4.2-1-5.7-.1.3-.1.5.1.6.2-1.6-.1-3.1-.3-4.6-.6-.3.8-1.5 1.4-1.2 2.5.5-.1.9.2 1.5-.2 0-.5-1-.4-.4-.9 3.9.1 7-.8 10.3.8-2.8.6-5-.9-7.8-.4 1.1.7 2.7 1.4 4.1 1.7.9.2 2.4-.4 2.6.9-3.2-.2-6.1-1.6-9.4-1.5 2.1 1.9 6.4.7 7.8 2.6-2.7-.1-4.9-1.4-7.6-1.3 1.8 1.5 4.3 1.2 6.2 2.3-2.5.8-4.2-1.1-6.6-.8.7 1 2.2 1.1 3.4 1.5 1 .3 2.6 1.3 3.7.9.7-.3 2.8-2.4 3.7-4 1.1-2.1 1-4.5.2-6.7zm-13.1.1c.2-1.6 1.1-3 2.8-4.1-.4 1.6-.9 3-2.8 4.1zm.5-11.9l.3.6c-1.5.3-3.2.9-4.7 1.3.5-1.5 3.2-1.7 4.4-1.9zm-2.7 14l.3.6c-1.5.8-1.5 2.8-3.3 3 .1-1.4 1.4-2.5 3-3.6zm-7-9.1c-.5-1.5 2.1-2.5 3.5-2.8l.3.6c-1.8.5-2.6 2.1-3.8 2.2zm2.8 14.2c-.2 1.5-2 2.4-3.3 3.6-.5-1.1-1.5-1.8-2.4-3.1 1.3-.7 1.7 1.2 2.6 1.9 1-.9 1.9-2.3 3.1-2.4zm-10.1-10.6c-.2-1.4 2.3-2.8 3.9-3 .2.3 0 .5.1.8-1.8-.1-2.5 2.2-4 2.2zm3 8.7c-1.1-.3-2.5-2.1-2.6-3.6 1.2.1 2.4 2.4 2.6 3.6zm-14.2-9.5c1.3-.1 2.2.9 3.2 1.6-1.2 0-3-.4-3.2-1.6zm-3.7-1.4c1.2-.3 2 .7 3.1.9-.1 1.1-3-.3-3.1-.9zm-5.3-2c1.3.5 2.8.3 3.8 1.6-2.5-.1-4.5-1.6-6.6-2.9.6-.6 2.8.6 2.8 1.3zm-6.4-3.8c1.3-.5 2 1 2.9 1.5-1.3.5-2.1-.4-2.9-1.5zm-.7-2.9c-.2 1 1 1.6.9 2.3-1.1.4-2.8-2.5-.9-2.3zm-.8-4.9c.3 1.4.3 2.6-.6 3.6-.3-1.4-.5-2.7.6-3.6z" fill="#D8D8D8"/></svg><svg height="62" viewBox="-279 366 53 62" width="53" x="1" y="279"><path d="M-226.1 398.2c0 .1 0 .1 0 0 0 1 0 1.9-.1 2.8-.2 4.2-1.7 8.2-4.6 12.2-3.3 4.5-7.7 8.2-13.7 11.4-1.8 1-3.6 1.8-5.4 2.5-.4.2-.9.4-1.3.6-.4.2-.9.3-1.4.3-.4 0-.8-.1-1.1-.2-7.3-2.8-13.2-6.5-17.8-11.2-3.6-3.7-5.9-7.6-6.9-12-.4-1.9-.6-3.7-.7-5.5-.1-5-.1-10.2 0-15.1v-5.4c0-2.2.9-3.2 3.1-3.4 7-.4 13.8-3.1 21.2-8.3.7-.5 1.3-.9 2.2-.9s1.4.4 2.2 1c5.6 3.9 10.6 6.3 15.9 7.5 1.3.3 2.7.5 4.2.6.5.1 1 .1 1.4.2 2.3.3 2.8 1.9 2.8 3.1V398.2zm-3.3-8.5v-3.1-7.8c-.4-.1-.8-.1-1.2-.1-1.5-.2-3-.4-4.5-.7-5.6-1.3-11.2-3.9-17.1-8-.1-.1-.2-.1-.2-.2-.1.1-.2.1-.2.2-7.9 5.6-15.2 8.4-22.8 8.9v20.4c0 1.5.2 3.1.6 4.7.8 3.7 2.8 7.1 6 10.3 4.3 4.4 9.7 7.8 16.5 10.4.4-.2.9-.4 1.3-.6 1.7-.8 3.5-1.5 5.2-2.4 5.5-2.9 9.6-6.3 12.5-10.4 2.5-3.4 3.7-6.7 3.9-10.2 0-.8.1-1.7.1-2.7v-.3l-.1-8.4zm-25.2 15.9c-.3.3-.8.5-1.2.5-.4 0-.9-.2-1.2-.5l-4.9-4.9c-.7-.7-.7-1.8 0-2.5s1.8-.7 2.4 0l3.7 3.7 10.3-10.5c.7-.7 1.8-.7 2.4 0 .7.7.7 1.8 0 2.5l-11.5 11.7z" fill="#FFF"/></svg><svg height="59" viewBox="-275 367 61 59" width="61" x="55" y="279"><path d="M-244.5 375.5l6.8 13.8 15.2 2.2-11 10.8 2.6 15.2-13.6-7.2-13.6 7.2 2.6-15.2-11-10.8 15.2-2.2 6.8-13.8z" fill="#E91C3A"/></svg><svg height="58" viewBox="-276 368 58 58" width="58" x="117" y="279"><path d="M-220.6 375.4c0 .1 0 .1 0 0l-3.6 8.7c0 .1-.1.2-.2.3l-41.3 41.3c-.2.2-.4.3-.7.3s-.5-.1-.7-.3l-8.7-8.7c-.2-.2-.3-.4-.3-.7 0-.2.1-.5.3-.7l41.3-41.3c.1-.1.2-.1.3-.2l8.7-3.6 6.2-2.5c.3-.1.7-.1 1 .2.3.3.3.7.2 1l-2.5 6.2zm-13.5 1.3l-39.7 39.7 3.1 3.1 12.4-12.4c.4-.4.9-.4 1.3 0s.4.9 0 1.3l-12.4 12.4 3.1 3.1 39.7-39.7c-.4-.2-.8-.6-1.2-.9-.7-.7-1.2-1.6-1.5-2.5l-24.2 24.2c-.2.2-.4.3-.7.3-.2 0-.5-.1-.7-.3-.4-.4-.4-.9 0-1.3l24.2-24.2c-.9-.3-1.8-.8-2.5-1.5-.3-.5-.6-.9-.9-1.3zm1.5-1.2c.2.4.4.7.7 1 .9.9 2.1 1.3 3.2 1.1.3-.1.6 0 .8.3.2.2.3.5.3.8-.2 1.1.2 2.3 1.1 3.2.3.3.6.5 1 .7l3-7.3-2.8-2.8-7.3 3zm9.1-3.7l1.7 1.7 1.2-2.8-2.9 1.1zm-26.8 14.5l-9.6-9.6c-.2.4-.6.8-.9 1.2-.7.7-1.6 1.2-2.5 1.5l10 10c.4.4.4.9 0 1.3-.2.2-.4.3-.7.3s-.5-.1-.7-.3l-10-10c-.3.9-.8 1.8-1.5 2.5-.4.4-.8.7-1.2.9l9.6 9.6c.4.4.4.9 0 1.3-.2.2-.4.3-.7.3s-.5-.1-.7-.3l-10.6-10.6c-.1-.1-.1-.2-.2-.3l-3.6-8.7-2.5-6.2c-.1-.3-.1-.7.2-1 .3-.3.7-.3 1-.2l6.2 2.5 8.7 3.6c.1 0 .2.1.3.2L-249 385c.4.4.4.9 0 1.3-.3.4-.9.4-1.3 0zm-23.1-15.7l1.2 2.8 1.7-1.7-2.9-1.1zm4.7 2l-2.8 2.8 3 7.3c.4-.2.7-.4 1-.7.9-.9 1.3-2.1 1.1-3.2-.1-.3 0-.6.3-.8.2-.2.5-.3.8-.3 1.1.2 2.3-.2 3.2-1.1.3-.3.5-.6.7-1l-7.3-3zM-235 409c-.2.2-.4.3-.7.3s-.5-.1-.7-.3l-4.4-4.4c-.4-.4-.4-.9 0-1.3s.9-.4 1.3 0l4.4 4.4c.5.4.5.9.1 1.3zm-8.7-1.3l16.1 16.1 3.1-3.1-7.4-7.4c-.4-.4-.4-.9 0-1.3s.9-.4 1.3 0l7.4 7.4 3.1-3.1-16.1-16.1c-.4-.4-.4-.9 0-1.3s.9-.4 1.3 0l16.7 16.7c.4.4.4.9 0 1.3l-8.7 8.7c-.2.2-.4.3-.7.3s-.5-.1-.7-.3L-245 409c-.4-.4-.4-.9 0-1.3.3-.4.9-.4 1.3 0z" fill="#FFF"/></svg><svg height="50" viewBox="0 0 50 50" width="50" x="176" y="279"><circle cx="25" cy="25.5" r="18.1" fill="#8CC63F"/><path d="M24.1 31.7l6.5-6.2-6.5-6.2-1.9 1.7 4.7 4.5-4.7 4.5 1.9 1.7z" fill="#FFF"/></svg><svg height="50" viewBox="0 0 50 50" width="50" x="227" y="279"><circle cx="25" cy="25.5" r="18.1" fill="#8CC63F"/><path d="M25.9 19.3l-6.5 6.2 6.5 6.2 1.9-1.7-4.7-4.5 4.7-4.5-1.9-1.7z" fill="#FFF"/></svg><svg height="41" viewBox="-285 376 41 41" width="40.7" x="208" y="200"><path d="M-264.7 417c-11.2 0-20.3-9.2-20.3-20.5s9.1-20.5 20.3-20.5c11.2 0 20.3 9.2 20.3 20.5.1 11.3-9 20.5-20.3 20.5zm.1-34.8c-4 0-7.2 3.2-7.2 7.2s3.2 7.2 7.1 7.2c4 0 7.2-3.2 7.2-7.1 0-4-3.2-7.3-7.1-7.3zm8.1 15.2c-.4-.7-1.1-.9-1.9-.8-.4.1-.7.3-1 .5-3.2 2.1-7.5 2.1-10.7-.1-.2-.1-.3-.2-.5-.3-.9-.4-1.7-.2-2.2.5-.6.8-.5 1.7.2 2.4.2.2.4.3.6.5 1.7 1.3 3.7 1.9 5.9 2.1l-.4.4c-1.6 1.6-3.2 3.3-4.8 4.9-.3.3-.6.7-.6 1.2 0 .7.4 1.4 1.1 1.8.7.3 1.3.2 1.9-.3l3.8-3.8c.3-.3.5-.4.8 0 1.2 1.3 2.5 2.5 3.7 3.7.3.3.7.6 1.1.6.7.1 1.5-.4 1.8-1.1.3-.7.2-1.4-.4-1.9-1.6-1.7-3.3-3.3-4.9-5l-.4-.4c1.2-.1 2.4-.4 3.5-.8 1.2-.5 2.2-1.1 3.1-2 .7-.6.8-1.3.3-2.1zm-8.2-4.4c-1.9 0-3.5-1.5-3.5-3.5s1.5-3.6 3.5-3.6c1.9 0 3.5 1.6 3.5 3.5 0 2-1.5 3.6-3.5 3.6z" fill="#FB890E"/></svg><svg height="39.4" viewBox="-285 378 40 40" width="39.2" x="250" y="200"><path d="M-265.4 377.6c-10.8 0-19.6 8.8-19.6 19.7 0 10.9 8.8 19.7 19.6 19.7s19.6-8.8 19.6-19.7c0-10.9-8.8-19.7-19.6-19.7zm9.9 21.8c.9.9 1.9 1.7 2.7 2.7.4.4.7.9 1 1.4.4.7 0 1.5-.6 1.6h-4c-1 .1-1.9-.3-2.6-1-.6-.6-1.1-1.2-1.6-1.8-.2-.2-.4-.5-.7-.6-.5-.4-1-.2-1.3.3-.3.6-.4 1.2-.4 1.9 0 1-.3 1.2-1.3 1.2-2 .1-4-.2-5.7-1.2-1.6-.9-2.8-2.2-3.9-3.6-2.1-2.8-3.7-5.9-5.1-9.1-.3-.7-.1-1.1.7-1.1h3.9c.5 0 .9.3 1.1.8.7 1.8 1.6 3.4 2.7 5 .3.4.6.8 1 1.1.5.3.8.2 1-.3.1-.3.2-.7.2-1 .1-1.2.1-2.4-.1-3.7-.1-.8-.5-1.2-1.3-1.4-.4-.1-.3-.2-.1-.4.3-.4.6-.6 1.2-.6h4.5c.7.1.9.5 1 1.2v5.1c0 .3.1 1.1.6 1.3.4.1.7-.2.9-.4 1.1-1.2 1.9-2.5 2.6-4 .3-.6.6-1.3.8-1.9.2-.5.5-.7 1-.7H-252.5c.7.1.9.4.7 1.2-.4 1.1-1.1 2.1-1.7 3-.7 1-1.5 2-2.2 3-.6.7-.6 1.2.2 2z" fill="#49769C"/></svg><svg height="39.4" viewBox="-285 378 40 40" width="39.2" x="290" y="200"><path d="M-265.4 377.6c-10.8 0-19.6 8.8-19.6 19.7 0 10.9 8.8 19.7 19.6 19.7s19.6-8.8 19.6-19.7c0-10.9-8.8-19.7-19.6-19.7zm4.8 20.4h-3.2v11.4h-4.7V398h-2.2v-4h2.2v-2.6c0-1.9.9-4.8 4.8-4.8h3.5v3.9h-2.5c-.4 0-1 .2-1 1.1v2.4h3.6l-.5 4z" fill="#30488C"/></svg><svg height="39.4" viewBox="-285 378 40 40" width="39.1" x="330" y="200"><path d="M-265.5 417c-10.8 0-19.6-8.8-19.6-19.7 0-10.9 8.8-19.7 19.6-19.7s19.6 8.8 19.6 19.7c0 10.9-8.8 19.7-19.6 19.7zm11.2-22v-4.6c0-2.4-1.9-4.3-4.3-4.3h-13.6c-2.4 0-4.3 1.9-4.3 4.3v13.8c0 2.4 1.9 4.3 4.3 4.3h13.6c2.4 0 4.3-1.9 4.3-4.3V395zm-4.3 11.3h-13.6c-1.2 0-2.1-1-2.1-2.1V395h3.3c-.3.7-.4 1.5-.4 2.3 0 3.4 2.7 6.1 6.1 6.1 3.4 0 6.1-2.8 6.1-6.1 0-.8-.2-1.6-.5-2.3h3.3v9.2c-.1 1.2-1.1 2.1-2.2 2.1zm-2.1-17.6h3.8v3.8h-3.8v-3.8zm-4.8 12.5c-2.2 0-3.9-1.8-3.9-3.9 0-.9.3-1.7.7-2.3.7-1 1.9-1.6 3.2-1.6 1.3 0 2.5.7 3.2 1.6.5.6.7 1.4.7 2.3.1 2.2-1.7 3.9-3.9 3.9z" fill="#F1096B"/></svg><svg height="34.1" viewBox="-292 380 25 35" width="25" x="420" y="155"><path d="M-272.2 397.5c.9 0 1.7.4 2.3 1.2.1.1.2.2.4.2h2c.3 0 .5-.2.5-.5v-9.6c0-.3-.2-.5-.5-.5h-9.5V387c.9-.8 1.3-1.8 1.3-3 0-2.2-1.7-4-3.8-4-2.1 0-3.8 1.8-3.8 4 0 1.2.5 2.3 1.3 3v1.3h-9.5c-.3 0-.5.2-.5.5v9.6c0 .3.2.5.5.5h2c.2 0 .3-.1.4-.2.5-.7 1.4-1.2 2.3-1.2 1.6 0 2.8 1.3 2.8 2.9 0 1.6-1.3 2.9-2.8 2.9-.9 0-1.7-.4-2.3-1.2-.1-.1-.2-.2-.4-.2h-2c-.3 0-.5.2-.5.5v11c0 .3.2.5.5.5h10c.3 0 .5-.2.5-.5V412c0-.2-.1-.3-.2-.4-.7-.6-1.1-1.4-1.1-2.3 0-1.6 1.3-2.9 2.8-2.9s2.8 1.3 2.8 2.9c0 .9-.4 1.8-1.1 2.3-.1.1-.2.3-.2.4v1.4c0 .3.2.5.5.5h10c.3 0 .5-.2.5-.5v-11c0-.3-.2-.5-.5-.5h-2c-.2 0-.3.1-.4.2-.5.7-1.4 1.2-2.3 1.2-1.6 0-2.8-1.3-2.8-2.9 0-1.6 1.3-2.9 2.8-2.9zm-3.8 2.9c0 2.2 1.7 4 3.8 4 1.1 0 2.2-.5 2.9-1.4h1.2v9.9h-9v-.6c.9-.8 1.3-1.8 1.3-3 0-2.2-1.7-4-3.8-4-2.1 0-3.8 1.8-3.8 4 0 1.2.5 2.3 1.3 3v.6h-9V403h1.2c.7.9 1.8 1.4 2.9 1.4 2.1 0 3.8-1.8 3.8-4s-1.7-4-3.8-4c-1.1 0-2.2.5-2.9 1.4h-1.2v-8.6h9.5c.3 0 .5-.2.5-.5v-2.1c0-.2-.1-.3-.2-.4-.7-.6-1.1-1.4-1.1-2.3 0-1.6 1.3-2.9 2.8-2.9s2.8 1.3 2.8 2.9c0 .9-.4 1.8-1.1 2.3-.1.1-.2.3-.2.4v2.1c0 .3.2.5.5.5h9.5v8.6h-1.2c-.7-.9-1.8-1.4-2.9-1.4-2.1 0-3.8 1.8-3.8 4z" fill="#8BC53E"/></svg><svg height="29.1" viewBox="-289 383 32 30" width="32" x="446" y="155"><path d="M-258 390.4c-.7 1.1-1.8 2.5-3.2 4.1-.8 1-1.7 2-2.6 3.1 0 3.8-1.5 7.4-4.2 10.1-2.7 2.7-6.4 4.3-10.3 4.3-2.1 0-4.7-.8-6.8-2-2.5-1.5-3.9-3.5-3.9-5.6 0-2.6 1.4-3.6 2.6-4.5.9-.7 1.7-1.3 1.7-2.5s-.7-1.8-1.7-2.5c-1.1-.9-2.6-1.9-2.6-4.5 0-2.1 1.4-4.1 3.9-5.6 2-1.2 4.6-2 6.8-2 3.2 0 6.2 1 8.7 2.9 2.2 1.7 3.9 3.9 4.9 6.5l.3-.3c5.4-4.7 6.3-4.7 6.7-4.7.3 0 .5.1.6.2.4.7 0 1.6-.9 3zm-12.4-3.6c-2.3-1.7-5.1-2.7-8-2.7-1.9 0-4.3.7-6.2 1.8-1.2.7-3.3 2.3-3.3 4.6 0 2 1 2.7 2.1 3.5 1 .8 2.2 1.6 2.2 3.4 0 1.8-1.1 2.7-2.2 3.4-1.1.8-2.1 1.6-2.1 3.5 0 3.7 5.7 6.4 9.5 6.4 3.6 0 6.9-1.4 9.4-3.9 2.1-2.1 3.5-4.9 3.8-7.8-1.5 1.7-3.1 3.4-4.4 4.8-.4 1.7-1.2 3-2.4 3.9-1 .7-2.1 1-3.5 1-2 0-3.7-.7-3.7-.7-.3-.1-.4-.4-.4-.6 0-.3.3-.5.5-.5 1.1-.1 1.3-.8 1.6-2.2.3-1.7.8-4 4.2-4.5 2.1-2.1 4.8-4.7 7.4-7-.7-2.6-2.3-4.8-4.5-6.4zm-.3 16.9l-2.4-2.4c-2.5.4-2.8 1.9-3.1 3.5-.2.8-.4 1.8-1 2.5.5.1 1.2.2 1.8.2 2.5 0 4-1.3 4.7-3.8zm6.9-10.7c-.3.2-.6.5-.9.8-2.5 2.2-5.2 4.8-7.4 6.9l1.6 1.6.4.4c2.3-2.4 5.2-5.6 7.5-8.4 2.5-3 3.6-4.6 4-5.4-.7.5-2.2 1.6-5.2 4.1zm-5.3 2.9c-.4.2-.7.3-1.1.3-1 0-1.9-.6-2.3-1.5-.3-.6-.3-1.3-.1-2 .2-.7.7-1.2 1.3-1.5.4-.2.7-.3 1.1-.3 1 0 1.9.6 2.3 1.5.3.6.3 1.3.1 2-.2.7-.7 1.2-1.3 1.5zm.1-3c-.2-.5-.7-.8-1.3-.8-.2 0-.4 0-.6.1-.3.2-.6.5-.7.8-.1.4-.1.7.1 1.1.2.5.7.8 1.3.8.2 0 .4 0 .6-.1.3-.2.6-.5.7-.8.1-.4.1-.7-.1-1.1zm-7.1-.9c-.2 0-.4 0-.6-.1-.7-.2-1.3-.6-1.6-1.2-.4-.6-.5-1.3-.3-2 .3-1.2 1.3-2 2.5-2 .2 0 .4 0 .6.1.7.2 1.3.6 1.6 1.2.4.6.5 1.3.3 2-.2 1.2-1.3 2-2.5 2zm1.2-3.4c-.2-.3-.5-.5-.9-.6h-.3c-.7 0-1.2.5-1.4 1.1-.1.4 0 .7.2 1.1.2.3.5.5.9.6h.3c.7 0 1.2-.5 1.4-1.1.1-.4 0-.7-.2-1.1zm-7.4 18.3c-.6 0-1.2-.2-1.6-.6-.5-.4-.9-1.1-1-1.7-.1-.7.1-1.4.6-1.9.5-.6 1.2-1 2-1 .6 0 1.2.2 1.6.6.5.4.9 1.1 1 1.8.1.7-.1 1.4-.6 1.9-.4.6-1.2.9-2 .9zm.9-3.7c-.3-.2-.6-.3-.9-.3-.4 0-.8.2-1.1.5-.2.3-.3.7-.3 1 0 .4.2.7.5.9.3.2.6.3.9.3.4 0 .8-.2 1.1-.5.2-.3.3-.7.3-1 0-.3-.2-.7-.5-.9zm0-9.8c-.5.4-1 .6-1.6.6-.8 0-1.5-.4-2-1-.4-.5-.6-1.2-.6-1.9.1-.7.4-1.3 1-1.7.5-.4 1-.6 1.6-.6.8 0 1.5.4 2 1 .4.5.6 1.2.6 1.9-.1.7-.4 1.3-1 1.7zm-.5-2.9c-.3-.3-.7-.5-1.1-.5-.3 0-.6.1-.9.3-.3.2-.5.6-.5.9 0 .4.1.7.3 1 .3.3.7.5 1.1.5.3 0 .6-.1.9-.3.3-.2.5-.6.5-.9.1-.3-.1-.7-.3-1z" fill="#8BC53E"/></svg><svg height="31.1" viewBox="-290 382 30 32" width="30" x="370" y="200"><path d="M-260.1 389.3c-.6 1.1-1.7 3.2-3.4 4.2-.5.4-1.2.5-1.9.5h-3.3c-.3.4-.6.8-.8 1.1 1.2.8 2.1 1.8 2.8 3.2 2.3 4.5.7 10.1-3.7 13l-.2.1c-1.6 1-3.4 1.6-5.2 1.6h-4.2c-.9 0-1.7-.1-2.5-.3-3-.9-5.3-3.3-6.5-7.1-.9-2.8-1-5.3-1-5.4-.4-3.7 1.1-6.4 2.1-7.7.2-.3.6-.5.9-.5.4 0 .7.1 1 .4l3.6 3.6c.6.6 1.3 1.1 2 1.3.8.3 1.4.3 1.9 0 .6-.4.7-1.3.7-1.7-.1 0-.1-.1-.2-.1-1-.8-3.5-2.8-3.5-6.2 0-4 3.3-7.3 7.3-7.3 3.6 0 6.6 2.6 7.2 6.1h5.9c.3 0 .6.2.8.4.4.2.4.5.2.8zm-7.9-.6v-.1c-.3-3-2.9-5.4-6.1-5.4-3.4 0-6.1 2.7-6.1 6.1 0 2.9 2.1 4.6 3 5.3.2.1.3.2.4.3.2.2.3.4.3.6 0 .6-.1 2.1-1.2 2.8-.8.5-1.7.6-3 .2-.9-.3-1.7-.8-2.5-1.6l-3.6-3.6-.6-.4.5.4c-.8 1.1-2.2 3.5-1.8 6.9 0 .1.3 9.5 6.7 11.4.6.2 1.3.3 2.1.3h4.2c1.6 0 3.2-.5 4.6-1.4l.1-.1c3.9-2.6 5.3-7.5 3.3-11.5-.6-1.2-1.5-2.2-2.6-2.9-.2-.1-.4-.4-.4-.6 0-.2 0-.5.2-.7.5-.6 1-1.2 1.4-1.9l.1-.1c.3-.5.5-.9.7-1.4.2-.5.3-.9.4-1.3v-.1c0-.2.1-.4.1-.6-.1-.3-.1-.4-.2-.6zm1.3.5v.9c0 .2-.1.4-.2.6v.1c0 .1 0 .1-.1.2 0 .1-.1.2-.1.3 0 0 0 .1-.1.1 0 .1-.1.2-.1.3 0 0 0 .1-.1.1-.1.1-.1.3-.2.4v.1c-.1.2-.2.3-.3.5h2.5c.5 0 .9-.1 1.3-.3 1.2-.8 2.2-2.4 2.7-3.3h-5.3zm-6.1 1.9c-1.7 0-3.1-1.4-3.1-3 0-1.7 1.4-3 3.1-3 1.7 0 3.1 1.4 3.1 3-.1 1.6-1.4 3-3.1 3zm0-4.9c-1 0-1.8.8-1.8 1.8s.8 1.8 1.8 1.8c.2 0 .5 0 .7-.1-.4-.2-.7-.6-.7-1.1 0-.7.5-1.2 1.2-1.2.2 0 .4 0 .5.1-.2-.7-.9-1.3-1.7-1.3zm-1.3 13.7c1.6.9 1.9 3.2 1.9 3.3v.1c0 2-.5 3.4-1.6 4.4-1.1 1-2.4 1.1-3 1.1h-.3c-4 0-6-4.2-6.5-5.5-.1-.3-.1-.6 0-.8.1-.3.4-.4.7-.5l.2-.1c1.9-.4 3.6-1 5-1.7s2.6-.8 3.6-.3zm-3 1.4c-1.5.8-3.2 1.4-5.2 1.8.6 1.3 2.2 4.4 5.3 4.4h.1s1.4.1 2.4-.8c.8-.7 1.2-1.9 1.2-3.4 0-.2-.3-1.8-1.3-2.3-.7-.3-1.5-.2-2.5.3z" fill="#88C13C"/></svg><svg height="19" viewBox="-296 387 19 19" width="19" x="401" y="200"><path d="M-286.5 406c-5.2 0-9.5-4.3-9.5-9.5s4.3-9.5 9.5-9.5 9.5 4.3 9.5 9.5-4.3 9.5-9.5 9.5zm0-16.1c-1.8 0-3.3 1.5-3.4 3.3 0 1.8 1.5 3.3 3.3 3.4 1.8 0 3.4-1.5 3.4-3.3 0-1.9-1.4-3.4-3.3-3.4zm3.8 7c-.2-.3-.5-.4-.9-.3-.2 0-.3.1-.5.2-1.5 1-3.5 1-5 0-.1 0-.1-.1-.2-.1-.4-.2-.8-.1-1 .2-.3.4-.2.8.1 1.1.1.1.2.2.3.2.8.6 1.7.9 2.7 1l-.2.2-2.3 2.3c-.2.2-.3.3-.3.6s.2.7.5.8c.3.2.6.1.9-.2l1.8-1.8c.1-.1.2-.2.4 0 .6.6 1.1 1.2 1.7 1.7.1.2.3.3.5.3.3 0 .7-.2.8-.5.1-.3.1-.6-.2-.9l-2.3-2.3-.2-.2c.6-.1 1.1-.2 1.6-.4s1-.5 1.4-.9c.6-.3.6-.6.4-1zm-3.8-2c-.9 0-1.6-.7-1.6-1.6 0-.9.7-1.7 1.6-1.7.9 0 1.6.7 1.6 1.6 0 .9-.7 1.7-1.6 1.7z" fill="#FB890E"/></svg><svg height="19" viewBox="-296 387 19 19" width="18.8" x="421" y="200"><path d="M-286.6 406c-5.2 0-9.4-4.3-9.4-9.5s4.2-9.5 9.4-9.5 9.4 4.3 9.4 9.5c.1 5.2-4.2 9.5-9.4 9.5zm0-16.1c-1.8 0-3.3 1.5-3.3 3.3 0 1.8 1.5 3.3 3.3 3.4 1.8 0 3.3-1.5 3.3-3.3 0-1.9-1.4-3.4-3.3-3.4zm3.8 7c-.2-.3-.5-.4-.9-.3-.2 0-.3.1-.5.2-1.5 1-3.5 1-4.9 0-.1 0-.1-.1-.2-.1-.4-.2-.8-.1-1 .2-.3.4-.2.8.1 1.1.1.1.2.2.3.2.8.6 1.7.9 2.7 1l-.2.2c-.7.8-1.5 1.5-2.2 2.3-.2.2-.3.3-.3.6s.2.7.5.8c.3.1.6.1.9-.2.6-.6 1.2-1.2 1.7-1.8.1-.1.2-.2.4 0 .6.6 1.1 1.2 1.7 1.7.1.2.3.3.5.3.3 0 .7-.2.8-.5.1-.3.1-.6-.2-.9l-2.3-2.3-.2-.2c.6-.1 1.1-.2 1.6-.4s1-.5 1.4-.9c.5-.3.5-.6.3-1zm-3.8-2c-.9 0-1.6-.7-1.6-1.6 0-.9.7-1.7 1.6-1.7.9 0 1.6.7 1.6 1.6.1.9-.7 1.7-1.6 1.7z" fill="#8CC63F"/></svg><svg height="18.4" viewBox="-296 388 19 19" width="18.4" x="441" y="200"><g fill="#FFF"><path d="M-279.7 387.6l2.1 2.1-16.3 16.3-2.1-2.1 16.3-16.3z"/><path d="M-277.6 403.9l-2.1 2.1-16.3-16.3 2.1-2.1 16.3 16.3z"/></g></svg><svg height="18.4" viewBox="-296 388 19 19" width="18.4" x="460" y="200"><g fill="#8cc63f"><path d="M-279.7 387.6l2.1 2.1-16.3 16.3-2.1-2.1 16.3-16.3z"/><path d="M-277.6 403.9l-2.1 2.1-16.3-16.3 2.1-2.1 16.3 16.3z"/></g></svg><svg height="18.3" viewBox="-296 388 19 19" width="18.3" x="278" y="279"><path d="M-286.9 406c-5 0-9.1-4.1-9.1-9.1s4.1-9.1 9.1-9.1 9.1 4.1 9.1 9.1c.1 5-4 9.1-9.1 9.1zm5.2-10.2v-2.1c0-1.1-.9-2-2-2h-6.4c-1.1 0-2 .9-2 2v6.4c0 1.1.9 2 2 2h6.4c1.1 0 2-.9 2-2v-4.3zm-2 5.2h-6.4c-.6 0-1-.4-1-1v-4.3h1.5c-.1.3-.2.7-.2 1.1 0 1.6 1.3 2.8 2.8 2.8 1.6 0 2.8-1.3 2.8-2.8 0-.4-.1-.7-.2-1.1h1.6v4.3c.1.6-.3 1-.9 1zm-.9-8.1h1.7v1.8h-1.8l.1-1.8zm-2.3 5.8c-1 0-1.8-.8-1.8-1.8 0-.4.1-.8.3-1.1.3-.5.9-.8 1.5-.8s1.2.3 1.5.8c.2.3.3.7.3 1.1.1 1-.7 1.8-1.8 1.8z" fill="#F1096B"/></svg><svg height="18.3" viewBox="-296 388 19 19" width="18.3" x="298" y="279"><path d="M-286.9 387.7c-5.1 0-9.2 4.1-9.2 9.1s4.1 9.1 9.2 9.1 9.2-4.1 9.2-9.1-4.1-9.1-9.2-9.1zm4.7 10.1c.4.4.9.8 1.3 1.3.2.2.3.4.5.6.2.3 0 .7-.3.7h-1.9c-.5 0-.9-.2-1.2-.5l-.8-.8-.3-.3c-.3-.2-.5-.1-.6.2-.1.3-.2.6-.2.9 0 .4-.2.6-.6.6-.9 0-1.8-.1-2.7-.6-.7-.4-1.3-1-1.8-1.7-1-1.3-1.7-2.7-2.4-4.2-.1-.3 0-.5.3-.5h1.8c.2 0 .4.1.5.4.3.8.7 1.6 1.2 2.3.1.2.3.4.5.5.2.1.4.1.5-.1.1-.2.1-.3.1-.5 0-.6.1-1.1 0-1.7-.1-.4-.2-.6-.6-.6-.2 0-.2-.1-.1-.2.2-.2.3-.3.6-.3h2.1c.3.1.4.2.5.6v2.4c0 .1.1.5.3.6.2.1.3-.1.4-.2.5-.5.9-1.2 1.2-1.8.1-.3.3-.6.4-.9.1-.2.2-.3.5-.3h2.2c.3.1.4.2.3.5-.2.5-.5 1-.8 1.4-.3.5-.7.9-1 1.4-.3.2-.3.5.1.8z" fill="#49769C"/></svg><svg height="18.3" viewBox="-296 388 19 19" width="18.2" x="317" y="279"><path d="M-286.9 387.7c-5 0-9.1 4.1-9.1 9.1s4.1 9.1 9.1 9.1 9.1-4.1 9.1-9.1-4.1-9.1-9.1-9.1zm4.6 10.1c.4.4.9.8 1.3 1.3.2.2.3.4.4.6.2.3 0 .7-.3.7h-1.9c-.5 0-.9-.2-1.2-.5-.3-.3-.5-.5-.7-.8l-.3-.3c-.3-.2-.5-.1-.6.2-.1.3-.2.6-.2.9 0 .4-.2.6-.6.6-.9 0-1.8-.1-2.7-.6-.7-.4-1.3-1-1.8-1.7-1-1.3-1.7-2.7-2.4-4.2-.1-.3 0-.5.3-.5h1.8c.2 0 .4.1.5.4.3.8.7 1.6 1.2 2.3.1.2.3.4.5.5.2.1.4.1.5-.1.1-.2.1-.3.1-.5 0-.6.1-1.1 0-1.7-.1-.4-.2-.6-.6-.6-.2 0-.2-.1-.1-.2.1-.2.3-.3.6-.3h2.1c.3.1.4.2.5.6v2.3c0 .1.1.5.3.6.2.1.3-.1.4-.2.5-.5.9-1.2 1.2-1.8.1-.3.3-.6.4-.9.1-.2.2-.3.5-.3h2.2c.3.1.4.2.3.5-.2.5-.5 1-.8 1.4-.3.5-.7.9-1 1.4-.3.4-.3.6.1.9z" fill="#8CC63F"/></svg><svg height="18.2" viewBox="-296 388 19 19" width="18.3" x="336" y="279"><path d="M-286.9 387.8c-5 0-9.1 4.1-9.1 9.1s4.1 9.1 9.1 9.1 9.1-4.1 9.1-9.1c.1-5.1-4-9.1-9.1-9.1zm2.3 9.4h-1.5v5.3h-2.2v-5.3h-1v-1.9h1v-1.2c0-.9.4-2.2 2.2-2.2h1.6v1.8h-1.2c-.2 0-.5.1-.5.5v1.1h1.7l-.1 1.9z" fill="#30488C"/></svg><svg height="18.3" viewBox="-296 388 19 19" width="18.1" x="278" y="299"><path d="M-286.9 406c-5 0-9.1-4.1-9.1-9.1s4.1-9.1 9.1-9.1 9.1 4.1 9.1 9.1c-.1 5-4.1 9.1-9.1 9.1zm5.1-10.2v-2.1c0-1.1-.9-2-2-2h-6.3c-1.1 0-2 .9-2 2v6.4c0 1.1.9 2 2 2h6.3c1.1 0 2-.9 2-2v-4.3zm-2 5.2h-6.3c-.5 0-1-.4-1-1v-4.3h1.5c-.1.3-.2.7-.2 1.1 0 1.6 1.3 2.8 2.8 2.8 1.6 0 2.8-1.3 2.8-2.8 0-.4-.1-.7-.2-1.1h1.5v4.3c.1.6-.3 1-.9 1zm-.9-8.1h1.7v1.8h-1.7v-1.8zm-2.2 5.8c-1 0-1.8-.8-1.8-1.8 0-.4.1-.8.3-1.1.3-.5.9-.8 1.5-.8s1.1.3 1.5.8c.2.3.3.7.3 1.1 0 1-.8 1.8-1.8 1.8z" fill="#8CC63F"/></svg><svg height="18.2" viewBox="-296 388 19 19" width="18.2" x="356" y="279"><path d="M-286.9 387.8c-5 0-9.1 4.1-9.1 9.1s4.1 9.1 9.1 9.1 9.1-4.1 9.1-9.1c0-5.1-4.1-9.1-9.1-9.1zm2.2 9.4h-1.5v5.3h-2.2v-5.3h-1v-1.9h1v-1.2c0-.9.4-2.2 2.2-2.2h1.6v1.8h-1.2c-.2 0-.5.1-.5.5v1.1h1.7l-.1 1.9z" fill="#8CC63F"/></svg></svg>